<?xml version="1.0" encoding="UTF-8"?>
<svg width="744.09448819" height="1052.3622047" xmlns="http://www.w3.org/2000/svg" xmlns:svg="http://www.w3.org/2000/svg">
 <title>eyes</title>

 <g>
  <title>Layer 1</title>
  <g id="layer1">
   <path fill="#000000" id="path1593" d="m510.91152,515.94876c-12.45754,6.18741 -18.7887,9.84652 -28.45704,16.53825c-5.84438,4.04504 -11.05653,7.96146 -11.57837,8.68092c-0.52184,0.71942 -2.10861,1.62613 -3.51482,1.99689c-1.40625,0.37067 -2.3548,1.18641 -2.11289,1.78137c0.24195,0.59498 -0.58444,1.71117 -1.81581,2.51181c-1.99041,1.29414 -1.93583,1.34427 0.06491,0.68291c1.23778,-0.40915 3.2274,-0.10143 4.4575,0.6699c1.9293,1.20962 2.78967,0.99021 6.39706,-1.53757c4.24044,-2.9714 10.13633,-4.55231 10.80625,-2.90508c0.20168,0.49594 -2.9235,3.51987 -6.97727,6.73883c-4.05383,3.21894 -7.83846,6.86196 -8.43401,8.04059c-0.4078,11.50402 19.93334,27.57284 20.72869,27.24939c0.89408,-0.36363 1.9895,0.70606 2.82222,2.75356c1.12696,2.77123 1.62709,3.02836 3.13384,1.77565c1.17972,-0.98083 2.62001,-0.94664 4.12433,0.02513c1.26276,0.81572 3.29906,1.23998 4.52036,0.99898c3.11241,-0.61428 4.41637,1.37117 2.05571,3.13622c-1.08298,0.80971 -1.7724,2.09549 -1.45994,2.8636c0.44174,1.08624 0.79075,0.99456 1.38855,-0.42284c1.09965,-2.60712 2.01678,-2.69707 3.74372,-0.38756c0.83339,1.11465 1.87916,1.53095 2.34784,0.88944c1.46067,-1.99933 7.11598,0.88592 7.34261,3.75254c0.21336,2.69827 2.34879,2.78395 2.3799,0.09616c0.01303,-1.13158 0.58119,-1.1747 1.98789,-0.17007c1.0803,0.77163 2.89608,1.02117 4.05414,0.55022c1.18726,-0.48287 2.35184,-0.14733 2.73779,0.80178c0.37644,0.9257 1.11322,1.19955 1.57727,0.56441c0.46397,-0.63512 1.69862,-0.88681 2.75441,-0.5527c1.05579,0.33409 2.56891,-0.05644 3.36307,-0.80024c1.4172,-1.32733 2.04761,-0.72844 5.8384,5.28641c1.04388,1.65635 1.4048,1.07468 2.11612,-3.34322c0.47304,-2.93828 0.23919,-6.50254 -0.53372,-7.94026c-0.77297,-1.43767 -0.83696,-2.27576 -0.12051,-1.86616c0.71642,0.40959 2.97568,0.65524 4.96915,0.5327c2.87419,-0.17665 4.33556,0.66933 7.24766,4.21676c3.41747,4.16309 6.18544,5.48882 4.9432,2.38756c-0.29797,-0.74381 0.95798,-0.33261 2.78731,0.92352l3.29577,2.3482l-0.51659,-2.84003c-0.54832,-2.76525 -0.52562,-2.72526 1.20393,-0.70242c2.41876,2.82892 4.5537,0.3832 3.00635,-3.42155c-0.68435,-1.68278 -1.70397,-3.14178 -2.31254,-3.24457c-0.6086,-0.10282 -0.31348,1.24894 0.67647,3.05874l1.77613,3.32087l-2.67167,-2.03455c-1.47469,-1.13027 -2.98635,-1.68509 -3.32577,-1.20106c-0.33944,0.484 -2.04487,-0.23352 -3.85289,-1.62508l-3.30916,-2.55556l3.30019,-1.12933c5.12422,-1.80984 10.24442,0.05816 12.17867,4.48128c0.89918,2.05623 1.5898,3.05024 1.53793,2.21186c-0.13555,-2.19428 4.71546,-1.48643 5.65411,0.82165c0.52549,1.29217 0.96519,1.29831 1.46488,0.1136c0.49966,-1.18477 -0.26839,-2.45087 -2.68591,-4.5114c-1.84948,-1.57635 -3.34084,-2.1309 -3.28964,-1.28671c0.16509,2.72287 -1.58434,2.31983 -2.57794,-0.58306c-0.78458,-2.29233 -0.51729,-2.86418 1.47133,-3.01008c1.34384,-0.0986 3.20786,-0.46357 4.15637,-0.76818c1.00667,-0.3233 2.28042,0.54397 3.05026,2.09336c2.52247,5.07672 8.75959,8.57535 6.89179,3.86495c-0.45317,-1.14276 -0.26773,-1.55595 0.49421,-1.05216c1.24072,0.8202 5.76885,1.10355 5.45612,0.33468c-0.08766,-0.21548 -2.25328,-1.40105 -4.81012,-2.58352c-7.18042,-3.3208 -6.95303,-4.46261 1.61611,-7.53775c4.07599,-1.46278 7.98348,-2.81902 8.63371,-3.01463c0.65019,-0.19563 3.63582,0.57697 6.64748,1.69445c6.24955,2.31897 6.82056,1.52977 0.92026,-1.22548c-6.1196,-2.85768 -3.18246,-2.81147 8.00521,0.14925c5.61812,1.48677 10.07202,2.2663 9.85677,1.73703c-0.21528,-0.5293 -1.06209,-1.04426 -1.82479,-1.17308c-0.76274,-0.12885 -1.54153,-1.0525 -1.75663,-2.052c-0.21517,-0.99953 -1.1668,-1.74452 -2.10845,-1.69616c-1.14469,0.05884 -1.21201,0.40564 -0.26211,1.09968c0.9115,0.66595 0.84515,0.91982 -0.11766,0.75718c-0.82543,-0.13943 -1.52933,-1.05771 -1.54931,-2.06539c-0.02558,-1.28778 -0.73501,-1.52565 -2.53042,-0.81517c-3.05175,1.20764 -10.80798,-0.52486 -7.88022,-1.7606c0.99866,-0.42154 2.2665,-0.47128 2.80593,-0.07712c0.53945,0.39411 2.74997,0.35423 4.92899,-0.08932c2.17899,-0.44355 5.6621,-0.31391 7.70085,0.273c3.34994,0.96423 4.02273,0.55907 2.77308,-1.55334c-0.23564,-0.3983 0.53797,-0.77797 1.71561,-0.83958c1.65602,-0.08665 1.31678,-0.48058 -1.40077,-1.70021c-2.9896,-1.34175 -3.5267,-1.23557 -3.84067,0.49795c-0.25722,1.4203 -0.55666,1.56318 -0.96048,0.60339c-0.71824,-1.70732 1.94213,-4.31176 3.44584,-3.38749c0.60682,0.37305 2.99252,1.30906 5.31979,2.09254c4.51782,1.52111 3.34952,-0.04748 -2.13931,-2.81849c-3.23948,-1.63541 -3.27492,-1.67887 -0.88907,-1.83737c2.43206,-0.16158 2.40571,-0.13837 -0.3713,-0.913c-1.53868,-0.42921 -3.27414,-0.28478 -3.91494,0.31535c-0.6408,0.60013 -1.38882,0.59669 -1.6227,0.02153c-0.61251,-1.50601 1.28049,-2.00219 10.75672,-3.02684c10.27286,-1.1108 9.91296,-0.95632 6.45185,-2.62381c-3.81237,-1.8368 -2.96385,-3.28566 1.42588,-2.42415c2.22281,0.43622 3.33902,0.18701 3.02264,-0.59086c-0.27688,-0.6807 -1.35631,-1.17808 -2.386,-1.15764c-1.0297,0.02041 -2.12007,-0.67823 -2.44888,-1.48675c-0.37017,-0.91017 0.1334,-1.45957 1.38248,-1.48436c1.70299,-0.03381 1.69476,-0.31804 -0.09582,-1.80529c-2.4805,-2.06044 -4.31351,-6.04841 -3.02717,-6.57155c0.49024,-0.19939 2.49943,0.37465 4.49767,1.29194c3.79463,1.74195 6.5427,1.68602 4.28217,-0.11003c-0.72012,-0.57212 1.30071,0.28953 4.53783,1.91401c3.23707,1.62447 6.43244,2.70402 7.091,2.43623c0.65859,-0.26787 -0.77613,-1.37512 -3.19875,-2.45858c-2.42265,-1.08351 -4.19967,-2.47678 -3.94664,-3.07655c0.25295,-0.59982 2.82646,-2.04231 5.70398,-3.24184c2.89714,-1.20771 4.32689,-2.09736 4.35356,-2.55079c0.02665,-0.45339 -1.36303,-0.46102 -4.22131,0.08528c-2.04216,0.39032 -3.51569,0.20558 -3.2722,-0.37166c0.24347,-0.57723 -0.88542,-1.17522 -2.54586,-1.37638c-2.41918,-0.29302 -2.70416,-0.56697 -1.20275,-1.21324c1.03054,-0.44365 1.77729,-1.0367 1.63935,-1.37602c-0.38696,-0.95142 -4.43821,-2.52203 -5.46628,-2.10392c-0.5035,0.20476 -1.82312,-1.82153 -2.89324,-4.49799c-1.92772,-4.82123 -1.45716,-6.79112 1.001,-4.16655c0.70128,0.74879 1.5753,0.91857 1.94245,0.4159c0.36721,-0.50264 1.18692,-0.54753 1.80531,-0.09578c2.37378,1.73429 4.22734,-0.41941 2.98162,-3.48242c-1.3206,-3.24722 -6.84952,-8.77651 -8.23456,-8.21326c-0.44997,0.18297 -1.98532,-0.64136 -3.45154,-1.85925c-2.6844,-2.22972 -17.93618,-7.03422 -19.85159,-6.25523c-0.56619,0.23026 -1.88351,-0.01949 -2.93174,-0.58104c-1.65954,-0.88906 -19.69825,-2.69352 -22.989,-2.28386c-2.05561,0.25587 -13.39544,0.85854 -16.04039,0.84866c-2.46325,-0.00921 -13.31457,0.99364 -30.39112,2.71257c-9.95529,1.00213 -31.16134,6.36301 -37.42927,9.47615zm-2.35647,27.34544c4.13945,-1.9221 4.35913,-1.86254 6.41541,1.64697c11.95979,20.41205 20.0036,26.92035 35.18331,28.60615c7.71119,0.85636 8.99766,0.66769 18.12648,-3.04478c6.73657,-2.73964 10.15923,-4.6494 10.97056,-6.16388c0.65046,-1.21429 1.32682,-1.97006 1.47942,-1.59472c0.15261,0.3753 2.14397,-1.49596 4.45378,-4.22299c5.67086,-6.69516 9.00821,-16.07271 8.21351,-23.05967c-0.76537,-6.72844 -0.13207,-6.8206 13.06846,-2.05177c4.64479,1.67799 9.83752,3.44895 11.5412,3.96027c1.70362,0.51136 3.57468,2.16207 4.16939,3.62437c1.45082,3.56749 1.17668,9.02647 -0.51764,9.71554c-0.75299,0.30619 -1.82206,1.57014 -2.33889,2.79543c-1.34981,3.20017 -13.3339,13.37003 -22.14795,18.79591c-8.83071,5.43604 -23.47306,10.39026 -31.48014,10.67437c-9.5035,0.33718 -24.38003,-0.58792 -31.21086,-1.91937c-11.33199,-2.2089 -28.97051,-9.45408 -33.13279,-13.622c-6.86394,-6.87342 -7.44385,-8.08025 -5.51909,-11.30373c0.88236,-1.84613 2.084,-4.88452 5.1277,-7.97278c1.38547,-0.56346 2.73555,-1.46431 2.95366,-1.98144c0.2181,-0.51714 2.29472,-1.79083 4.64448,-2.88188zm28.08609,-4.46475c6.21025,0.26342 10.67783,16.81275 8.37615,18.70859c0,0 2.27378,6.96014 -5.45827,3.20417c-2.61341,-1.2695 -6.11939,-4.21557 -6.11939,-4.21557c-1.58821,-3.90522 -7.5361,-8.90215 -4.27405,-15.39047c1.65798,-1.78568 5.40229,-2.36261 7.47556,-2.30672zm-27.12952,49.89849c0.59375,-0.24148 1.29972,0.05623 1.54112,0.65003c0.24148,0.59379 -0.05624,1.2997 -0.65002,1.54117c-0.59381,0.24147 -1.29973,-0.05625 -1.54116,-0.65003c-0.2415,-0.5938 0.05623,-1.29972 0.65006,-1.54117zm26.81794,6.11761c0.13349,-0.24399 0.35893,-0.35978 0.73041,-0.29704c0.74299,0.12549 1.58836,0.94064 1.95057,1.83127c0.3622,0.89065 0.10439,1.5201 -0.63865,1.39465c-0.74306,-0.12552 -1.67402,-0.97667 -2.03624,-1.86736c-0.18114,-0.44534 -0.13958,-0.81751 -0.00609,-1.06152zm18.02185,2.10499c-0.59381,0.24144 -0.8142,1.13742 -0.45201,2.02805c0.36219,0.89067 1.17012,1.43931 1.76392,1.19785c0.59375,-0.24149 0.78954,-1.19827 0.42728,-2.08895c-0.36225,-0.89067 -1.14544,-1.37844 -1.73919,-1.13695zm78.36189,-31.44265c-0.36693,0.07292 -0.40385,0.40232 -0.16514,0.98931c0.34153,0.83985 1.86539,1.71093 3.3546,1.9696c1.48913,0.25866 2.50975,0.06648 2.30358,-0.44032c-0.2061,-0.50677 -1.6691,-1.40253 -3.2937,-1.99436c-1.13549,-0.41359 -1.8324,-0.59715 -2.19934,-0.52423zm-32.05543,18.85283c-0.5018,0.20404 -0.57293,1.20766 -0.17043,2.19729c0.40246,0.9896 0.89264,1.35073 1.11509,0.8233c0.22244,-0.52746 1.67922,-0.81283 3.20524,-0.6651c1.37451,0.13303 2.02956,0.19012 2.00131,0.0373c-0.02828,-0.1528 -0.80353,-0.53489 -2.28902,-1.26801c-1.64925,-0.81397 -3.36039,-1.32884 -3.86219,-1.12478zm-14.55845,6.06251c0.2387,-0.041 0.80993,0.30867 1.87226,0.94095c1.29036,0.76803 1.97667,1.44945 2.06097,1.92824c0.08429,0.47877 -0.44147,0.72295 -1.63202,0.52185c-0.7925,-0.13387 -1.74581,-1.09908 -2.13523,-2.11083c-0.31088,-0.80756 -0.4047,-1.23925 -0.16598,-1.28021zm7.68341,-0.64206c-0.65976,0.29641 1.06844,1.257 3.86829,2.1863c2.79985,0.9293 6.32083,3.00325 7.83564,4.61603l2.77474,2.9857l-2.22897,-3.5623c-2.73046,-4.36792 -5.57247,-6.81827 -6.46249,-5.60009c-0.37189,0.50899 -1.51871,0.44214 -2.612,-0.14359c-1.09335,-0.58575 -2.51554,-0.77843 -3.17521,-0.48205zm14.51789,-2.49933c0.24144,0.59376 1.41754,1.32848 2.60878,1.70544c1.2082,0.3823 1.95123,0.26298 1.70628,-0.33926c-0.2415,-0.59378 -1.38136,-1.41412 -2.57264,-1.79106c-1.20826,-0.38234 -1.98735,-0.1774 -1.74242,0.42488z"/>
   <path fill="#000000" id="path1608" d="m622.03801,444.06358c-1.12118,0.31335 -1.50054,1.04049 -0.82034,1.58526c0.68021,0.54475 1.64037,0.82213 2.10716,0.69168c0.4668,-0.13051 0.74043,-0.75274 0.71447,-1.48038c-0.02601,-0.72762 -0.88017,-1.10994 -2.00129,-0.79656zm4.22487,1.68168c-0.21947,0.26607 0.04631,0.92691 0.73356,2.13022c1.20935,2.11754 1.04549,2.62137 -1.01081,2.39187c-1.45693,-0.16266 0.46053,1.06091 4.26207,2.72592c4.97024,2.17677 5.75542,3.08689 2.96241,3.16456c-2.13634,0.05936 -6.06562,-0.76393 -8.72209,-1.78063c-3.08288,-1.17989 -6.22254,-1.19213 -8.66102,-0.06506c-2.10109,0.97115 -4.73856,-2.65938 -5.87348,-2.94017c-3.11556,-0.77085 -10.88056,0.29954 -9.59775,1.32674c2.54598,2.03901 -1.40098,0.01146 -6.87903,-0.39914c-7.73773,-0.58004 -8.98161,-0.02097 -3.45142,1.56736c6.0429,1.73558 2.53618,2.77613 -5.64054,1.65198c-8.79248,-1.20887 -10.42945,-0.35131 -3.33493,1.7608c5.68214,1.69161 5.73343,1.74338 1.06178,2.11384c-2.6656,0.21138 -10.30714,-0.03345 -17.00968,-0.59408c-14.39013,-1.20363 -15.98181,-0.32752 -3.00944,1.66985c9.80402,1.50954 10.08175,2.46157 0.50056,1.74338c-3.19453,-0.23945 -6.48476,0.12248 -7.42471,0.79471c-0.94002,0.67217 -2.36864,0.80625 -3.05988,0.25259c-0.69137,-0.55363 -2.70748,-0.61046 -4.49728,-0.09887c-2.59854,0.74263 -2.65123,1.01505 -0.50005,1.3451c1.58925,0.2438 2.05011,1.27909 1.18622,2.53104c-1.03773,1.50361 -0.54807,1.57481 1.6571,0.36544c1.71146,-0.93866 3.51704,-1.30401 4.02328,-0.8986c0.50613,0.40542 -1.19934,1.38714 -3.86433,2.28545c-3.42678,1.1551 -5.16525,0.9952 -5.94258,-0.67425c-0.60458,-1.29827 -1.91952,-2.17536 -2.91726,-1.89649c-0.99772,0.27887 -1.34661,0.97404 -0.71448,1.48034c1.63925,1.31275 -19.90563,9.94443 -26.44003,9.63709c-5.82842,-0.27414 -7.12311,0.83363 -2.2338,1.90498c2.45043,0.53695 1.11713,1.25391 -6.88163,3.73152c-9.11672,2.82388 -9.79992,2.82234 -7.44861,0.12341c2.32599,-2.67003 2.03614,-2.70289 -2.86675,-0.47938c-2.98183,1.35228 -5.05311,1.91774 -4.56061,1.19942c0.49237,-0.71824 -1.91987,-0.61508 -5.46864,0.3233c-3.54877,0.93832 -6.10775,2.07496 -5.61129,2.47245c0.49633,0.39744 -1.06714,0.92314 -3.46474,1.19446c-5.49223,0.62137 -2.22127,2.34061 3.46254,1.81938c2.13144,-0.19546 0.24462,0.39604 -4.22969,1.25763c-4.47438,0.86162 -9.28106,2.37044 -10.62195,3.34565c-1.52773,1.111 1.45254,0.99725 7.88273,-0.24471c10.53445,-2.03469 15.88973,-1.95553 8.44396,0.12572c-2.29383,0.64117 -4.10195,1.76766 -4.07605,2.4953c0.02591,0.72759 1.11156,1.03403 2.43536,0.67523c1.60449,-0.43484 1.39707,0.02667 -0.49744,1.4197c-4.83597,3.55601 2.10087,1.05975 8.44082,-3.03733c5.96235,-3.8531 21.49193,-9.07854 23.82709,-8.01606c0.81037,0.36872 -0.52041,0.9293 -2.91684,1.19199c-2.39643,0.26266 -4.34641,1.0596 -4.31957,1.81003c0.02894,0.81449 -2.32898,1.7386 -5.83898,2.23476c-4.70413,0.66495 -5.77897,1.19171 -5.2724,2.75432c0.45872,1.41496 -1.06285,2.59059 -5.66132,4.14374c-11.37364,3.84144 -8.96947,4.47579 2.76622,0.73346c11.98914,-3.82322 21.65042,-5.17575 16.24957,-2.28209c-1.57385,0.84322 -4.57385,2.3299 -6.67789,3.29787c-2.10402,0.96801 -0.87142,0.59284 2.8216,-0.78868c3.69299,-1.38155 10.98493,-3.65084 16.15118,-5.04185c7.7393,-2.08384 9.18564,-2.81396 8.17863,-4.24467c-0.67221,-0.95508 -0.46904,-1.97816 0.46819,-2.24019c0.93723,-0.26196 2.10875,0.13314 2.55183,0.86871c0.48945,0.81273 4.34767,-3.91796 9.92335,-5.62301c5.04648,-1.54325 10.10345,-2.68447 11.19908,-2.5277c1.09548,0.15677 8.64918,-1.32735 16.76296,-3.2542c16.02846,-3.80649 18.02213,-3.91272 13.7881,-0.61472c-2.18831,1.70439 -2.00751,1.78658 0.99532,0.24909c8.82481,-4.51827 14.96848,-6.63928 13.6419,-4.7171c-0.93337,1.3525 1.59545,5.34127 8.52056,3.40555c5.38986,-1.50654 12.83265,1.43096 16.56187,1.45928c3.7291,0.02824 11.36442,-0.86531 16.91662,-2.01652c12.75079,-2.64381 15.3454,-3.06623 17.7689,-2.70678c4.54469,0.67396 24.96641,-0.60083 26.46443,-1.67203c0.89775,-0.64204 1.73019,-0.65592 1.75495,0.03677c0.02464,0.69275 1.28688,1.25031 2.89337,1.22523c1.29392,-0.02023 1.73464,-0.29435 1.61716,-0.75334c-0.35237,-1.37707 -5.8885,-4.15526 -10.23921,-4.36981c-2.82182,-0.13924 -5.09755,-0.86351 -4.9898,-1.61856c0.24774,-1.73514 -9.83232,-8.7794 -14.38788,-10.06539c-2.64004,-0.74521 -3.55417,-0.51781 -4.13187,0.9289c-1.59566,3.99519 -3.44531,2.37291 -2.82732,-2.44897c0.53839,-4.2018 0.10058,-4.77451 -2.42252,-3.39079c-1.67339,0.91765 -3.71778,1.17756 -4.47334,0.5724c-0.82707,-0.66233 -0.38648,-0.98752 0.95812,-0.79515c1.42482,0.20393 1.79429,-0.28708 1.048,-1.34756c-0.6435,-0.91427 -2.32898,-1.00773 -3.73494,-0.23667c-2.49829,1.37005 -8.11647,-2.17574 -7.28787,-4.59213c0.22976,-0.67002 -0.52149,-0.56556 -1.63581,0.23125c-1.1142,0.79673 -3.51215,1.05386 -5.24095,0.56096c-1.38668,-0.39536 -2.09141,-0.5241 -2.31089,-0.25806zm-13.61003,1.40692c-1.07473,-0.15381 -1.96067,0.34048 -1.9348,1.06816c0.02593,0.72759 0.95305,1.3887 2.02785,1.54244c1.07466,0.15381 1.96337,3.93941 1.93746,3.21173c-0.02598,-0.72768 -0.95585,-5.66846 -2.03051,-5.82233zm-160.72336,51.02676c-2.24016,0.69023 -2.60656,1.13071 -1.05597,1.12378c1.4031,-0.00621 3.06048,-0.56216 3.68443,-1.18051c0.62392,-0.61844 -0.60148,-0.56787 -2.62846,0.05673zm23.32214,-3.73166c-0.65467,0.11308 -1.8995,0.60518 -3.89083,1.53954c-3.04897,1.43061 -7.73618,3.16341 -10.38362,3.88169c-2.9774,0.80777 -3.5952,1.22594 -1.49805,1.02142c1.86462,-0.1819 3.40941,0.3283 3.43865,1.14812c0.03744,1.05155 0.79519,0.83353 2.38479,-0.74193c1.23929,-1.22832 3.74424,-2.6285 5.58736,-3.14373c1.8431,-0.51519 3.89065,-1.82742 4.61063,-2.87073c0.47029,-0.68146 0.40574,-0.94744 -0.24893,-0.83438zm38.07897,-4.84316c2.27792,-0.76788 3.58382,-0.92756 3.60516,-0.3297c0.02639,0.7415 -1.01545,1.66447 -2.33701,2.08451c-1.32156,0.42 -4.78179,1.67252 -7.6838,2.75041c-5.36753,1.99351 -7.31869,1.70095 -2.97531,-0.44899c3.86318,-1.91228 7.11305,-3.28835 9.39096,-4.05623zm47.09209,-8.32849c-1.01419,0.01788 -3.4082,0.8387 -6.92951,2.38891c-6.16663,2.71473 -6.25975,2.7625 -1.56135,2.31973c2.6641,-0.25106 5.93164,-1.38704 7.25505,-2.47991c1.84142,-1.52058 2.24996,-2.2466 1.23581,-2.22873zm13.58965,-0.03193c-2.24018,0.69027 -2.71504,1.16103 -1.1645,1.15415c1.40307,-0.00622 3.06058,-0.56216 3.68445,-1.18052c0.62393,-0.61843 -0.49288,-0.59822 -2.51995,0.02637z"/>
   <path fill="#000000" id="path1640" d="m233.18298,515.94876c12.45752,6.18741 18.78869,9.84652 28.45702,16.53825c5.84438,4.04504 11.05653,7.96146 11.57838,8.68092c0.52183,0.71942 2.1086,1.62613 3.51483,1.99689c1.40623,0.37067 2.3548,1.18641 2.11286,1.78137c-0.24194,0.59498 0.58445,1.71117 1.81581,2.51181c1.99042,1.29414 1.93583,1.34427 -0.06491,0.68291c-1.23777,-0.40915 -3.22739,-0.10143 -4.45749,0.6699c-1.92928,1.20962 -2.78967,0.99021 -6.39707,-1.53757c-4.24044,-2.9714 -10.13632,-4.55231 -10.80624,-2.90508c-0.20168,0.49594 2.9235,3.51987 6.97727,6.73883c4.05383,3.21894 7.83846,6.86196 8.43401,8.04059c0.59555,1.17861 2.24157,2.70877 3.62844,3.46173c1.38691,0.75297 3.12786,2.61435 3.85647,4.12195c0.72868,1.50759 1.84932,2.8914 2.50808,3.07704c0.65873,0.1856 1.78186,0.64262 2.49551,1.01487c0.71365,0.37221 1.05574,1.26678 0.74498,2.00537c-1.20317,2.85941 -7.10553,8.72371 -8.67605,8.60117c-0.90875,-0.0709 -2.30237,0.35484 -3.08027,0.94625c-0.77778,0.59147 -1.96813,0.50724 -2.69557,-0.17412c-0.75718,-0.70918 -3.32766,-0.36128 -5.98321,0.75875c-2.63844,1.11284 -5.21024,1.39859 -5.95844,0.69787c-0.82432,-0.77209 -2.23613,-0.40417 -3.75185,1.02779c-1.33025,1.25684 -3.02143,2.03417 -3.81677,1.71072c-0.89408,-0.36363 -1.98949,0.70606 -2.82222,2.75356c-1.12696,2.77123 -1.6271,3.02836 -3.13384,1.77565c-1.17973,-0.98083 -2.62001,-0.94664 -4.12434,0.02513c-1.26275,0.81572 -3.29905,1.23998 -4.52036,0.99898c-3.1124,-0.61428 -4.41637,1.37117 -2.0557,3.13622c1.08298,0.80971 1.77239,2.09549 1.45994,2.8636c-0.44174,1.08624 -0.79076,0.99456 -1.38856,-0.42284c-1.09963,-2.60712 -2.01678,-2.69707 -3.74371,-0.38756c-0.8334,1.11465 -1.87916,1.53095 -2.34784,0.88944c-1.46068,-1.99933 -7.11598,0.88592 -7.3426,3.75254c-0.21338,2.69827 -2.34881,2.78395 -2.37991,0.09616c-0.01303,-1.13158 -0.58118,-1.1747 -1.98789,-0.17007c-1.08031,0.77163 -2.89608,1.02117 -4.05414,0.55022c-1.18726,-0.48287 -2.35184,-0.14733 -2.7378,0.80178c-0.37643,0.9257 -1.11322,1.19955 -1.57727,0.56441c-0.46396,-0.63512 -1.69861,-0.88681 -2.7544,-0.5527c-1.0558,0.33409 -2.56891,-0.05644 -3.36308,-0.80024c-1.41719,-1.32733 -2.0476,-0.72844 -5.8384,5.28641c-1.04387,1.65635 -1.40479,1.07468 -2.11611,-3.34322c-0.47305,-2.93828 -0.23919,-6.50254 0.53372,-7.94026c0.77296,-1.43767 0.83697,-2.27576 0.12052,-1.86616c-0.71643,0.40959 -2.97569,0.65524 -4.96915,0.5327c-2.87419,-0.17665 -4.33556,0.66933 -7.24767,4.21676c-3.41747,4.16309 -6.18544,5.48882 -4.9432,2.38756c0.29796,-0.74381 -0.95798,-0.33261 -2.78731,0.92352l-3.29577,2.3482l0.51659,-2.84003c0.54833,-2.76525 0.52562,-2.72526 -1.20392,-0.70242c-2.41876,2.82892 -4.55371,0.3832 -3.00637,-3.42155c0.68437,-1.68278 1.70398,-3.14178 2.31254,-3.24457c0.60861,-0.10282 0.31348,1.24894 -0.67646,3.05874l-1.77613,3.32087l2.67167,-2.03455c1.4747,-1.13027 2.98634,-1.68509 3.32577,-1.20106c0.33945,0.484 2.04487,-0.23352 3.85288,-1.62508l3.30917,-2.55556l-3.30019,-1.12933c-5.12422,-1.80984 -10.24442,0.05816 -12.17867,4.48128c-0.89917,2.05623 -1.5898,3.05024 -1.53793,2.21186c0.13556,-2.19428 -4.71547,-1.48643 -5.6541,0.82165c-0.52549,1.29217 -0.9652,1.29831 -1.46489,0.1136c-0.49966,-1.18477 0.26838,-2.45087 2.68591,-4.5114c1.84947,-1.57635 3.34085,-2.1309 3.28965,-1.28671c-0.1651,2.72287 1.58433,2.31983 2.57793,-0.58306c0.78458,-2.29233 0.51729,-2.86418 -1.47134,-3.01008c-1.34383,-0.0986 -3.20786,-0.46357 -4.15635,-0.76818c-1.00668,-0.3233 -2.28043,0.54397 -3.05027,2.09336c-2.52247,5.07672 -8.75959,8.57535 -6.8918,3.86495c0.45318,-1.14276 0.26773,-1.55595 -0.4942,-1.05216c-1.24072,0.8202 -5.76885,1.10355 -5.45612,0.33468c0.08766,-0.21548 2.25329,-1.40105 4.81013,-2.58352c7.1804,-3.3208 6.95302,-4.46261 -1.61613,-7.53775c-4.07599,-1.46278 -7.98348,-2.81902 -8.6337,-3.01463c-0.65019,-0.19563 -3.63583,0.57697 -6.64749,1.69445c-6.24955,2.31897 -6.82056,1.52977 -0.92026,-1.22548c6.11961,-2.85768 3.18246,-2.81147 -8.00521,0.14925c-5.61812,1.48677 -10.07203,2.2663 -9.85677,1.73703c0.21529,-0.5293 1.06209,-1.04426 1.82479,-1.17308c0.76274,-0.12885 1.54153,-1.0525 1.75664,-2.052c0.21517,-0.99953 1.1668,-1.74452 2.10844,-1.69616c1.14469,0.05884 1.21202,0.40564 0.2621,1.09968c-0.91149,0.66595 -0.84515,0.91982 0.11768,0.75718c0.82543,-0.13943 1.52932,-1.05771 1.5493,-2.06539c0.02559,-1.28778 0.73501,-1.52565 2.53043,-0.81517c3.05174,1.20764 10.80797,-0.52486 7.88022,-1.7606c-0.99866,-0.42154 -2.26651,-0.47128 -2.80594,-0.07712c-0.53945,0.39411 -2.74997,0.35423 -4.92899,-0.08932c-2.17898,-0.44355 -5.6621,-0.31391 -7.70084,0.273c-3.34994,0.96423 -4.02274,0.55907 -2.77309,-1.55334c0.23565,-0.3983 -0.53797,-0.77797 -1.71562,-0.83958c-1.656,-0.08665 -1.31676,-0.48058 1.40078,-1.70021c2.98961,-1.34175 3.52669,-1.23557 3.84067,0.49795c0.25724,1.4203 0.55667,1.56318 0.96047,0.60339c0.71825,-1.70732 -1.94211,-4.31176 -3.44583,-3.38749c-0.60682,0.37305 -2.99253,1.30906 -5.31979,2.09254c-4.51782,1.52111 -3.34953,-0.04748 2.13931,-2.81849c3.23949,-1.63541 3.27494,-1.67887 0.88907,-1.83737c-2.43206,-0.16158 -2.40569,-0.13837 0.37131,-0.913c1.53866,-0.42921 3.27414,-0.28478 3.91494,0.31535c0.64078,0.60013 1.38883,0.59669 1.62269,0.02153c0.6125,-1.50601 -1.2805,-2.00219 -10.75672,-3.02684c-10.27285,-1.1108 -9.91296,-0.95632 -6.45184,-2.62381c3.81237,-1.8368 2.96384,-3.28566 -1.42587,-2.42415c-2.22283,0.43622 -3.33903,0.18701 -3.02265,-0.59086c0.27688,-0.6807 1.35631,-1.17808 2.38598,-1.15764c1.02971,0.02041 2.12008,-0.67823 2.4489,-1.48675c0.37017,-0.91017 -0.13341,-1.45957 -1.38249,-1.48436c-1.70297,-0.03381 -1.69476,-0.31804 0.09583,-1.80529c2.48049,-2.06044 4.3135,-6.04841 3.02715,-6.57155c-0.49022,-0.19939 -2.49942,0.37465 -4.49765,1.29194c-3.79464,1.74195 -6.5427,1.68602 -4.28218,-0.11003c0.72013,-0.57212 -1.30071,0.28953 -4.53784,1.91401c-3.23706,1.62447 -6.43243,2.70402 -7.09099,2.43623c-0.65859,-0.26787 0.77614,-1.37512 3.19875,-2.45858c2.42265,-1.08351 4.19967,-2.47678 3.94664,-3.07655c-0.25295,-0.59982 -2.82646,-2.04231 -5.70398,-3.24184c-2.89713,-1.20771 -4.32688,-2.09736 -4.35356,-2.55079c-0.02664,-0.45339 1.36303,-0.46102 4.22131,0.08528c2.04216,0.39032 3.5157,0.20558 3.2722,-0.37166c-0.24347,-0.57723 0.88541,-1.17522 2.54586,-1.37638c2.41919,-0.29302 2.70416,-0.56697 1.20275,-1.21324c-1.03054,-0.44365 -1.77729,-1.0367 -1.63934,-1.37602c0.38695,-0.95142 4.43819,-2.52203 5.46628,-2.10392c0.50349,0.20476 1.8231,-1.82153 2.89323,-4.49799c1.92773,-4.82123 1.45715,-6.79112 -1.00099,-4.16655c-0.70129,0.74879 -1.57531,0.91857 -1.94245,0.4159c-0.36721,-0.50264 -1.18692,-0.54753 -1.80532,-0.09578c-2.37377,1.73429 -4.22734,-0.41941 -2.98162,-3.48242c1.3206,-3.24722 6.84953,-8.77651 8.23456,-8.21326c0.44999,0.18297 1.98533,-0.64136 3.45156,-1.85925c2.68438,-2.22972 17.93616,-7.03422 19.85156,-6.25523c0.56621,0.23026 1.88353,-0.01949 2.93175,-0.58104c1.65954,-0.88906 19.69826,-2.69352 22.989,-2.28386c2.05562,0.25587 13.39545,0.85854 16.04039,0.84866c2.46326,-0.00921 13.31458,0.99364 30.39112,2.71257c9.95529,1.00213 31.16134,6.36301 37.42929,9.47615zm2.35646,27.34544c-4.13945,-1.9221 -4.35914,-1.86254 -6.4154,1.64697c-11.95979,20.41205 -20.0036,26.92035 -35.18332,28.60615c-7.71119,0.85636 -8.99766,0.66769 -18.12647,-3.04478c-6.73658,-2.73964 -10.15924,-4.6494 -10.97057,-6.16388c-0.65047,-1.21429 -1.32682,-1.97006 -1.47943,-1.59472c-0.15261,0.3753 -2.14397,-1.49596 -4.45377,-4.22299c-5.67086,-6.69516 -9.0082,-16.07271 -8.21351,-23.05967c0.76538,-6.72844 0.13206,-6.8206 -13.06847,-2.05177c-4.64478,1.67799 -9.83753,3.44895 -11.5412,3.96027c-1.70361,0.51136 -3.57468,2.16207 -4.1694,3.62437c-1.45081,3.56749 -1.17666,9.02647 0.51765,9.71554c0.75299,0.30619 1.82206,1.57014 2.33889,2.79543c1.34982,3.20017 13.3339,13.37003 22.14797,18.79591c8.83069,5.43604 23.47304,10.39026 31.48014,10.67437c9.50349,0.33718 24.38001,-0.58792 31.21085,-1.91937c11.33199,-2.2089 28.9705,-9.45408 33.13279,-13.622c6.86393,-6.87342 7.44386,-8.08025 5.51909,-11.30373c-0.97623,-1.63492 -2.3597,-2.80209 -3.09604,-2.67774c-0.73632,0.12437 -0.94919,-0.80546 -0.45202,-2.0281c0.6544,-1.60904 0.24377,-2.52536 -1.57965,-3.26694c-1.38546,-0.56346 -2.73554,-1.46431 -2.95365,-1.98144c-0.21811,-0.51714 -2.29473,-1.79083 -4.64448,-2.88188zm-61.79668,-9.38434c-1.89529,-0.26933 -3.75976,1.94386 -6.33347,6.50375c-1.37264,2.43201 -2.11503,3.68156 -2.07723,4.75893c0.03783,1.07737 0.86271,1.97725 2.38228,3.7352c1.69546,1.96135 5.19815,4.81551 7.83346,6.37772l4.79102,2.87054l1.78221,-4.38239c1.5882,-3.90522 1.36393,-5.06541 -1.89811,-11.55373c-2.65886,-5.28879 -4.58489,-8.04068 -6.48016,-8.31002zm60.84011,54.81808c-0.59374,-0.24148 -1.29972,0.05623 -1.54113,0.65003c-0.24146,0.59379 0.05625,1.2997 0.65003,1.54117c0.59381,0.24147 1.29972,-0.05625 1.54117,-0.65003c0.24148,-0.5938 -0.05625,-1.29972 -0.65007,-1.54117zm-26.81793,6.11761c-0.1335,-0.24399 -0.35894,-0.35978 -0.73042,-0.29704c-0.74298,0.12549 -1.58837,0.94064 -1.95057,1.83127c-0.3622,0.89065 -0.10439,1.5201 0.63866,1.39465c0.74305,-0.12552 1.67401,-0.97667 2.03623,-1.86736c0.18114,-0.44534 0.13957,-0.81751 0.0061,-1.06152zm-18.02185,2.10499c0.5938,0.24144 0.81418,1.13742 0.452,2.02805c-0.3622,0.89067 -1.17011,1.43931 -1.76392,1.19785c-0.59376,-0.24149 -0.78953,-1.19827 -0.42727,-2.08895c0.36224,-0.89067 1.14543,-1.37844 1.73919,-1.13695zm-78.36191,-31.44265c0.36693,0.07292 0.40384,0.40232 0.16513,0.98931c-0.34152,0.83985 -1.86538,1.71093 -3.35459,1.9696c-1.48913,0.25866 -2.50975,0.06648 -2.30359,-0.44032c0.20611,-0.50677 1.66911,-1.40253 3.29372,-1.99436c1.13548,-0.41359 1.8324,-0.59715 2.19933,-0.52423zm32.05544,18.85283c0.50179,0.20404 0.57293,1.20766 0.17042,2.19729c-0.40244,0.9896 -0.89263,1.35073 -1.11509,0.8233c-0.22244,-0.52746 -1.6792,-0.81283 -3.20523,-0.6651c-1.37451,0.13303 -2.02957,0.19012 -2.00131,0.0373c0.02828,-0.1528 0.80352,-0.53489 2.28901,-1.26801c1.64927,-0.81397 3.36041,-1.32884 3.8622,-1.12478zm14.55846,6.06251c-0.23872,-0.041 -0.80994,0.30867 -1.87227,0.94095c-1.29036,0.76803 -1.97666,1.44945 -2.06098,1.92824c-0.08427,0.47877 0.44149,0.72295 1.63202,0.52185c0.7925,-0.13387 1.74582,-1.09908 2.13524,-2.11083c0.31088,-0.80756 0.4047,-1.23925 0.16599,-1.28021zm-7.68342,-0.64206c0.65976,0.29641 -1.06843,1.257 -3.8683,2.1863c-2.79984,0.9293 -6.32082,3.00325 -7.83562,4.61603l-2.77476,2.9857l2.22898,-3.5623c2.73045,-4.36792 5.57248,-6.81827 6.46248,-5.60009c0.37189,0.50899 1.51871,0.44214 2.61201,-0.14359c1.09335,-0.58575 2.51553,-0.77843 3.17521,-0.48205zm-14.51789,-2.49933c-0.24145,0.59376 -1.41754,1.32848 -2.60878,1.70544c-1.2082,0.3823 -1.95122,0.26298 -1.70629,-0.33926c0.24151,-0.59378 1.38137,-1.41412 2.57266,-1.79106c1.20825,-0.38234 1.98734,-0.1774 1.74241,0.42488z"/>
   <path fill="#000000" id="path1642" d="m122.05647,444.06358c1.12119,0.31335 1.50054,1.04049 0.82034,1.58526c-0.68021,0.54475 -1.64036,0.82213 -2.10715,0.69168c-0.46681,-0.13051 -0.74045,-0.75274 -0.71448,-1.48038c0.02601,-0.72762 0.88017,-1.10994 2.00129,-0.79656zm-4.22486,1.68168c0.21948,0.26607 -0.04632,0.92691 -0.73356,2.13022c-1.20935,2.11754 -1.04549,2.62137 1.01081,2.39187c1.45692,-0.16266 -0.46053,1.06091 -4.26207,2.72592c-4.97025,2.17677 -5.75544,3.08689 -2.96242,3.16456c2.13633,0.05936 6.06563,-0.76393 8.7221,-1.78063c3.08287,-1.17989 6.22255,-1.19213 8.66101,-0.06506c2.1011,0.97115 4.73857,-2.65938 5.87349,-2.94017c3.11555,-0.77085 10.88055,0.29954 9.59776,1.32674c-2.546,2.03901 1.40096,0.01146 6.87901,-0.39914c7.73775,-0.58004 8.98162,-0.02097 3.45143,1.56736c-6.0429,1.73558 -2.53617,2.77613 5.64054,1.65198c8.79249,-1.20887 10.42945,-0.35131 3.33492,1.7608c-5.68213,1.69161 -5.73341,1.74338 -1.06177,2.11384c2.66559,0.21138 10.30715,-0.03345 17.00969,-0.59408c14.39011,-1.20363 15.9818,-0.32752 3.00943,1.66985c-9.80403,1.50954 -10.08174,2.46157 -0.50055,1.74338c3.19452,-0.23945 6.48474,0.12248 7.4247,0.79471c0.94003,0.67217 2.36864,0.80625 3.05988,0.25259c0.69137,-0.55363 2.70747,-0.61046 4.49728,-0.09887c2.59853,0.74263 2.65123,1.01505 0.50004,1.3451c-1.58925,0.2438 -2.0501,1.27909 -1.18622,2.53104c1.03774,1.50361 0.54808,1.57481 -1.65708,0.36544c-1.71148,-0.93866 -3.51705,-1.30401 -4.02328,-0.8986c-0.50615,0.40542 1.19934,1.38714 3.86432,2.28545c3.42679,1.1551 5.16524,0.9952 5.94258,-0.67425c0.60457,-1.29827 1.91952,-2.17536 2.91726,-1.89649c0.99772,0.27887 1.34661,0.97404 0.71447,1.48034c-1.63923,1.31275 19.90564,9.94443 26.44005,9.63709c5.82841,-0.27414 7.12311,0.83363 2.23379,1.90498c-2.45042,0.53695 -1.11713,1.25391 6.88162,3.73152c9.11674,2.82388 9.79993,2.82234 7.44862,0.12341c-2.326,-2.67003 -2.03615,-2.70289 2.86675,-0.47938c2.98182,1.35228 5.0531,1.91774 4.5606,1.19942c-0.49237,-0.71824 1.91987,-0.61508 5.46864,0.3233c3.54876,0.93832 6.10775,2.07496 5.61131,2.47245c-0.49636,0.39744 1.06712,0.92314 3.46474,1.19446c5.49221,0.62137 2.22125,2.34061 -3.46256,1.81938c-2.13144,-0.19546 -0.24463,0.39604 4.22969,1.25763c4.47438,0.86162 9.28106,2.37044 10.62195,3.34565c1.52773,1.111 -1.45254,0.99725 -7.88273,-0.24471c-10.53445,-2.03469 -15.88973,-1.95553 -8.44394,0.12572c2.29381,0.64117 4.10193,1.76766 4.07603,2.4953c-0.02591,0.72759 -1.11156,1.03403 -2.43536,0.67523c-1.60449,-0.43484 -1.39706,0.02667 0.49744,1.4197c4.83598,3.55601 -2.10087,1.05975 -8.44083,-3.03733c-5.96233,-3.8531 -21.49191,-9.07854 -23.82707,-8.01606c-0.81038,0.36872 0.5204,0.9293 2.91683,1.19199c2.39644,0.26266 4.34642,1.0596 4.31959,1.81003c-0.02896,0.81449 2.32898,1.7386 5.83896,2.23476c4.70414,0.66495 5.77898,1.19171 5.27241,2.75432c-0.45873,1.41496 1.06284,2.59059 5.66131,4.14374c11.37364,3.84144 8.96947,4.47579 -2.76621,0.73346c-11.98915,-3.82322 -21.65042,-5.17575 -16.24956,-2.28209c1.57384,0.84322 4.57383,2.3299 6.67787,3.29787c2.10402,0.96801 0.87144,0.59284 -2.82158,-0.78868c-3.693,-1.38155 -10.98495,-3.65084 -16.1512,-5.04185c-7.73928,-2.08384 -9.18564,-2.81396 -8.17863,-4.24467c0.67222,-0.95508 0.46906,-1.97816 -0.46819,-2.24019c-0.93723,-0.26196 -2.10875,0.13314 -2.55182,0.86871c-0.48945,0.81273 -4.34767,-3.91796 -9.92334,-5.62301c-5.04649,-1.54325 -10.10346,-2.68447 -11.19908,-2.5277c-1.0955,0.15677 -8.6492,-1.32735 -16.76296,-3.2542c-16.02847,-3.80649 -18.02214,-3.91272 -13.78811,-0.61472c2.18831,1.70439 2.00751,1.78658 -0.99533,0.24909c-8.8248,-4.51827 -14.96846,-6.63928 -13.64189,-4.7171c0.93338,1.3525 -1.59546,5.34127 -8.52056,3.40555c-5.38987,-1.50654 -12.83266,1.43096 -16.56187,1.45928c-3.7291,0.02824 -11.36442,-0.86531 -16.91664,-2.01652c-12.75077,-2.64381 -15.34538,-3.06623 -17.76889,-2.70678c-4.5447,0.67396 -24.9664,-0.60083 -26.46442,-1.67203c-0.89776,-0.64204 -1.73019,-0.65592 -1.75496,0.03677c-0.02465,0.69275 -1.28688,1.25031 -2.89337,1.22523c-1.29392,-0.02023 -1.73463,-0.29435 -1.61716,-0.75334c0.35236,-1.37707 5.88851,-4.15526 10.23921,-4.36981c2.82182,-0.13924 5.09756,-0.86351 4.9898,-1.61856c-0.24773,-1.73514 9.83232,-8.7794 14.38789,-10.06539c2.64004,-0.74521 3.55416,-0.51781 4.13186,0.9289c1.59566,3.99519 3.44531,2.37291 2.82732,-2.44897c-0.53838,-4.2018 -0.10057,-4.77451 2.42253,-3.39079c1.67338,0.91765 3.71777,1.17756 4.47333,0.5724c0.82707,-0.66233 0.38648,-0.98752 -0.95811,-0.79515c-1.42483,0.20393 -1.7943,-0.28708 -1.04802,-1.34756c0.64352,-0.91427 2.32898,-1.00773 3.73495,-0.23667c2.49829,1.37005 8.11648,-2.17574 7.28787,-4.59213c-0.22976,-0.67002 0.52149,-0.56556 1.6358,0.23125c1.11421,0.79673 3.51216,1.05386 5.24097,0.56096c1.38667,-0.39536 2.0914,-0.5241 2.31089,-0.25806zm13.61002,1.40692c1.07474,-0.15381 1.96069,0.34048 1.9348,1.06816c-0.02592,0.72759 -0.95304,1.3887 -2.02784,1.54244c-1.07465,0.15381 -1.96337,3.93941 -1.93747,3.21173c0.02599,-0.72768 0.95586,-5.66846 2.03051,-5.82233zm160.72336,51.02676c2.24016,0.69023 2.60656,1.13071 1.05597,1.12378c-1.4031,-0.00621 -3.06048,-0.56216 -3.68444,-1.18051c-0.62391,-0.61844 0.60148,-0.56787 2.62847,0.05673zm-23.32215,-3.73166c0.65469,0.11308 1.89953,0.60518 3.89084,1.53954c3.04897,1.43061 7.7362,3.16341 10.38361,3.88169c2.97741,0.80777 3.59521,1.22594 1.49808,1.02142c-1.86465,-0.1819 -3.40943,0.3283 -3.43867,1.14812c-0.03744,1.05155 -0.79517,0.83353 -2.38479,-0.74193c-1.23929,-1.22832 -3.74424,-2.6285 -5.58736,-3.14373c-1.84308,-0.51519 -3.89065,-1.82742 -4.61064,-2.87073c-0.47026,-0.68146 -0.40571,-0.94744 0.24893,-0.83438zm-38.07894,-4.84316c-2.27793,-0.76788 -3.58383,-0.92756 -3.60517,-0.3297c-0.02639,0.7415 1.01544,1.66447 2.33701,2.08451c1.32157,0.42 4.78178,1.67252 7.68379,2.75041c5.36754,1.99351 7.3187,1.70095 2.97531,-0.44899c-3.86316,-1.91228 -7.11303,-3.28835 -9.39094,-4.05623zm-47.0921,-8.32849c1.01419,0.01788 3.4082,0.8387 6.9295,2.38891c6.16664,2.71473 6.25977,2.7625 1.56135,2.31973c-2.6641,-0.25106 -5.93163,-1.38704 -7.25504,-2.47991c-1.84143,-1.52058 -2.24997,-2.2466 -1.23581,-2.22873zm-13.58964,-0.03193c2.24016,0.69027 2.71502,1.16103 1.1645,1.15415c-1.40309,-0.00622 -3.06059,-0.56216 -3.68446,-1.18052c-0.62394,-0.61843 0.49288,-0.59822 2.51996,0.02637z"/>
  </g>
 </g>
</svg>