<?xml version="1.0" encoding="UTF-8" standalone="no"?>
<!-- Created with Inkscape (http://www.inkscape.org/) -->

<svg
   xmlns:dc="http://purl.org/dc/elements/1.1/"
   xmlns:cc="http://creativecommons.org/ns#"
   xmlns:rdf="http://www.w3.org/1999/02/22-rdf-syntax-ns#"
   xmlns:svg="http://www.w3.org/2000/svg"
   xmlns="http://www.w3.org/2000/svg"
   xmlns:sodipodi="http://sodipodi.sourceforge.net/DTD/sodipodi-0.dtd"
   xmlns:inkscape="http://www.inkscape.org/namespaces/inkscape"
   width="210mm"
   height="297mm"
   viewBox="0 0 744.09448819 1052.3622047"
   id="svg11215"
   version="1.1"
   inkscape:version="0.91 r13725"
   sodipodi:docname="kapha-face-oil.svg">
  <defs
     id="defs11217" />
  <sodipodi:namedview
     id="base"
     pagecolor="#ffffff"
     bordercolor="#666666"
     borderopacity="1.0"
     inkscape:pageopacity="0.0"
     inkscape:pageshadow="2"
     inkscape:zoom="0.35"
     inkscape:cx="116.42857"
     inkscape:cy="520"
     inkscape:document-units="px"
     inkscape:current-layer="layer1"
     showgrid="false"
     inkscape:window-width="1280"
     inkscape:window-height="755"
     inkscape:window-x="0"
     inkscape:window-y="1"
     inkscape:window-maximized="1" />
  <metadata
     id="metadata11220">
    <rdf:RDF>
      <cc:Work
         rdf:about="">
        <dc:format>image/svg+xml</dc:format>
        <dc:type
           rdf:resource="http://purl.org/dc/dcmitype/StillImage" />
        <dc:title></dc:title>
      </cc:Work>
    </rdf:RDF>
  </metadata>
  <g
     inkscape:label="Layer 1"
     inkscape:groupmode="layer"
     id="layer1">
    <g
       transform="matrix(0.47062928,0,0,0.47062928,-728.34526,-1537.9769)"
       id="g7463">
      <text
         sodipodi:linespacing="125%"
         id="text5368"
         y="3935.125"
         x="2421.1147"
         style="font-style:normal;font-variant:normal;font-weight:normal;font-stretch:normal;font-size:30.38459206px;line-height:125%;font-family:Avenir;-inkscape-font-specification:'Avenir, Normal';text-align:start;letter-spacing:0px;word-spacing:0px;writing-mode:lr-tb;text-anchor:start;fill:#000000;fill-opacity:1;stroke:none;stroke-width:1.39999998;stroke-linecap:butt;stroke-linejoin:miter;stroke-miterlimit:4;stroke-dasharray:none;stroke-opacity:1"
         xml:space="preserve"><tspan
           y="3935.125"
           x="2421.1147"
           sodipodi:role="line"
           id="tspan4845"><tspan
   style="font-style:normal;font-variant:normal;font-weight:800;font-stretch:normal;font-size:30.38459206px;line-height:125%;font-family:Avenir;-inkscape-font-specification:'Avenir, Ultra-Bold';text-align:start;writing-mode:lr-tb;text-anchor:start"
   id="tspan4905">Ingredients:</tspan> Grapeseed Oil, Sunflower Oil, </tspan><tspan
           y="3973.1057"
           x="2421.1147"
           sodipodi:role="line"
           id="tspan4847">Safflower Oil, Licorice, Manjistha (Rubia </tspan><tspan
           y="4011.0864"
           x="2421.1147"
           sodipodi:role="line"
           id="tspan4849">cordifolia), Lodhra (Symplocos racemosa), </tspan><tspan
           y="4049.0671"
           x="2421.1147"
           sodipodi:role="line"
           id="tspan4851">Amalaki (Phyllanthus emblica), Triphala, </tspan><tspan
           y="4087.0479"
           x="2421.1147"
           sodipodi:role="line"
           id="tspan4853">Dashmool, Saffron, Essential oils of: </tspan><tspan
           y="4125.0288"
           x="2421.1147"
           sodipodi:role="line"
           id="tspan4855">Lemon, Lavender, Helichrysum, Mint, Orange</tspan><tspan
           y="4163.0093"
           x="2421.1147"
           sodipodi:role="line"
           id="tspan4857" /></text>
      <text
         x="1953.8944"
         y="4297.9697"
         xml:space="preserve"
         style="font-style:normal;font-variant:normal;font-weight:normal;font-stretch:normal;font-size:65.51712799px;line-height:125%;font-family:Allura;-inkscape-font-specification:'Allura, Normal';text-align:center;letter-spacing:0px;word-spacing:0px;writing-mode:lr-tb;text-anchor:middle;fill:#d4aa00;fill-opacity:1;stroke:none;stroke-width:1px;stroke-linecap:butt;stroke-linejoin:miter;stroke-opacity:1"
         id="text5408"
         sodipodi:linespacing="125%"><tspan
           id="tspan5410"
           sodipodi:role="line"
           x="1953.8944"
           y="4297.9697"
           style="font-style:normal;font-variant:normal;font-weight:normal;font-stretch:normal;font-size:65.51873016px;line-height:125%;font-family:Avenir;-inkscape-font-specification:'Avenir, Normal';text-align:center;writing-mode:lr-tb;text-anchor:middle;fill:#d4aa00;fill-opacity:1">Kapha Face Oil</tspan></text>
      <text
         sodipodi:linespacing="125%"
         id="text5412"
         y="4574.2886"
         x="1950.6542"
         style="font-style:normal;font-weight:normal;font-size:29.7531395px;line-height:125%;font-family:sans-serif;letter-spacing:0px;word-spacing:0px;fill:#000000;fill-opacity:1;stroke:none;stroke-width:1px;stroke-linecap:butt;stroke-linejoin:miter;stroke-opacity:1"
         xml:space="preserve"><tspan
           style="font-style:normal;font-variant:normal;font-weight:normal;font-stretch:normal;font-size:29.75346947px;line-height:125%;font-family:Avenir;-inkscape-font-specification:'Avenir, Normal';text-align:center;writing-mode:lr-tb;text-anchor:middle;fill:#000000;fill-opacity:1"
           y="4574.2886"
           x="1950.6542"
           sodipodi:role="line"
           id="tspan5414">1 fl.oz./30ml</tspan></text>
      <text
         x="1961.7869"
         y="4409.4893"
         xml:space="preserve"
         style="font-style:normal;font-variant:normal;font-weight:normal;font-stretch:normal;font-size:36.47436523px;line-height:125%;font-family:Allura;-inkscape-font-specification:'Allura, Normal';text-align:center;letter-spacing:0px;word-spacing:0px;writing-mode:lr-tb;text-anchor:middle;fill:#000000;fill-opacity:1;stroke:none;stroke-width:1px;stroke-linecap:butt;stroke-linejoin:miter;stroke-opacity:1"
         id="text5416"
         sodipodi:linespacing="125%"><tspan
           id="tspan5418"
           sodipodi:role="line"
           x="1961.7869"
           y="4409.4893"
           style="font-style:normal;font-variant:normal;font-weight:normal;font-stretch:normal;font-size:36.47525787px;line-height:125%;font-family:Avenir;-inkscape-font-specification:'Avenir, Normal';text-align:center;writing-mode:lr-tb;text-anchor:middle;fill:#000000;fill-opacity:1">All-Natural Ayurveda</tspan><tspan
           id="tspan5420"
           sodipodi:role="line"
           x="1961.7869"
           y="4455.0835"
           style="font-style:normal;font-variant:normal;font-weight:normal;font-stretch:normal;font-size:36.47525787px;line-height:125%;font-family:Avenir;-inkscape-font-specification:'Avenir, Normal';text-align:center;writing-mode:lr-tb;text-anchor:middle;fill:#000000;fill-opacity:1">Acneic/Oily Skin</tspan></text>
      <text
         sodipodi:linespacing="125%"
         id="text5422"
         y="3999.7246"
         x="1700.9668"
         style="font-style:normal;font-variant:normal;font-weight:200;font-stretch:normal;font-size:69.85847473px;line-height:125%;font-family:'.HeitiUI J';-inkscape-font-specification:'.HeitiUI J, Ultra-Light';text-align:start;letter-spacing:0px;word-spacing:0px;writing-mode:lr-tb;text-anchor:start;fill:#000000;fill-opacity:1;stroke:none;stroke-width:1px;stroke-linecap:butt;stroke-linejoin:miter;stroke-opacity:1"
         xml:space="preserve"><tspan
           y="3999.7246"
           x="1700.9668"
           id="tspan5424"
           sodipodi:role="line">YOGIC BEAUTY</tspan></text>
      <path
         inkscape:connector-curvature="0"
         id="path5426"
         d="m 1950.7157,4085.8877 c 0.061,0.076 0.1246,0.1604 0.1841,0.2364 -7.4181,3.0663 -15.8305,9.7303 -21.1754,19.9267 -0.1051,0.2012 -0.2078,0.4023 -0.3099,0.6047 -4.909,9.787 -5.3735,19.9876 -3.2244,27.6633 -1.6461,-1.5893 -3.4895,-3.1073 -5.593,-4.4958 -3.2225,-2.1222 -6.9685,-3.8466 -11.0262,-5.0714 -4.8674,-1.4576 -9.9492,-2.1552 -14.738,-2.3621 -0.8696,-0.036 -1.7304,-0.061 -2.5838,-0.07 -5.9738,-0.066 -11.5203,0.5201 -16.1953,1.278 l -2.3817,0.3506 c -8e-4,5.8592 0.8512,13.4041 4.3215,21.0417 1.6973,3.7562 4.1254,7.5829 7.5638,11.142 -1.3734,-0.3203 -2.7918,-0.5506 -4.2498,-0.6635 -8.2263,-0.1221 -16.6014,3.3088 -24.4144,8.4784 6.4309,7.336 14.0235,14.3294 22.8055,19.6186 0.037,0.018 0.074,0.036 0.1106,0.055 7.7548,3.8416 16.1714,6.1273 24.6427,6.4994 8.8184,0.3701 17.2359,-1.3617 24.5971,-4.3524 8.9758,-3.6526 16.2933,-9.0051 21.9154,-14.2881 5.5503,5.2312 12.8067,10.5661 21.7378,14.2196 7.3311,2.9943 15.7387,4.7453 24.5694,4.3867 8.4956,-0.361 16.9547,-2.6515 24.7567,-6.5222 0.3744,-0.2243 0.7464,-0.4521 1.1167,-0.683 8.3091,-5.1863 15.5364,-11.8918 21.71,-18.9373 -7.791,-5.171 -16.172,-8.6381 -24.4372,-8.5516 -1.4102,0.1063 -2.7841,0.3239 -4.1178,0.6244 3.3795,-3.5264 5.774,-7.3107 7.453,-11.0263 3.4704,-7.6377 4.3223,-15.1826 4.3215,-21.0417 l -2.3816,-0.3506 c -4.6751,-0.7581 -10.2216,-1.3444 -16.1954,-1.2781 -0.8534,0.012 -1.7141,0.03 -2.5838,0.07 -4.7887,0.2066 -9.8706,0.9045 -14.7379,2.3621 -4.0577,1.2248 -7.8037,2.9491 -11.0262,5.0713 -2.1363,1.4102 -4.003,2.9546 -5.668,4.5709 2.2553,-7.7334 1.8217,-18.2012 -3.3239,-28.2208 -0.018,-0.043 -0.043,-0.082 -0.064,-0.1222 -5.248,-10.0922 -13.5278,-16.7923 -20.9635,-19.9805 0.018,-0.024 0.036,-0.049 0.055,-0.07 -0.036,0.012 -0.073,0.03 -0.1094,0.049 -0.1203,-0.049 -0.2418,-0.1106 -0.3621,-0.1598 z"
         style="fill:#d4aa00;fill-rule:evenodd;stroke:none;stroke-width:1px;stroke-linecap:butt;stroke-linejoin:miter;stroke-opacity:1" />
      <path
         style="opacity:1;fill:#000000;fill-opacity:1;stroke:none;stroke-width:35;stroke-miterlimit:4;stroke-dasharray:none;stroke-opacity:1"
         d="m 1777.9098,4359.9182 c -6.9576,0 -12.5577,4.2368 -12.5577,9.5003 l 0,106.9151 c 0,5.2634 5.6001,9.4999 12.5577,9.4999 l 364.7035,0 c 6.9575,0 12.5576,-4.2365 12.5576,-9.4999 l 0,-106.9151 c 0,-5.2635 -5.6001,-9.5003 -12.5576,-9.5003 l -364.7035,0 z m 1.0596,1.3377 362.5842,0 c 6.8097,0 12.2915,4.1471 12.2915,9.2988 l 0,104.6426 c 0,5.1517 -5.4818,9.2989 -12.2915,9.2989 l -362.5842,0 c -6.8096,0 -12.2914,-4.1472 -12.2914,-9.2989 l 0,-104.6426 c 0,-5.1517 5.4818,-9.2988 12.2914,-9.2988 z"
         id="path5428"
         inkscape:connector-curvature="0" />
      <rect
         ry="46.809715"
         y="3837.5056"
         x="1589.1158"
         height="856.04279"
         width="723.51727"
         id="rect5430"
         style="opacity:1;fill:none;fill-opacity:1;stroke:#d4aa00;stroke-width:12.1538372;stroke-linecap:round;stroke-linejoin:round;stroke-miterlimit:4;stroke-dasharray:none;stroke-opacity:1" />
      <rect
         style="opacity:1;fill:none;fill-opacity:1;stroke:#d4aa00;stroke-width:12.1538372;stroke-linecap:round;stroke-linejoin:round;stroke-miterlimit:4;stroke-dasharray:none;stroke-opacity:1"
         id="rect5432"
         width="723.51727"
         height="856.04279"
         x="2373.1399"
         y="3837.5056"
         ry="46.809715" />
      <text
         sodipodi:linespacing="125%"
         id="text6469"
         y="4168.6401"
         x="2420.9629"
         style="font-style:normal;font-variant:normal;font-weight:300;font-stretch:normal;font-size:30.38500023px;line-height:125%;font-family:Avenir;-inkscape-font-specification:'Avenir, Light';text-align:start;letter-spacing:0px;word-spacing:0px;writing-mode:lr-tb;text-anchor:start;fill:#000000;fill-opacity:1;stroke:none;stroke-width:1px;stroke-linecap:butt;stroke-linejoin:miter;stroke-opacity:1"
         xml:space="preserve"><tspan
           y="4168.6401"
           x="2420.9629"
           id="tspan6701"
           sodipodi:role="line"><tspan
   id="tspan6711"
   style="font-style:normal;font-variant:normal;font-weight:800;font-stretch:normal;font-size:30.38500023px;line-height:125%;font-family:Avenir;-inkscape-font-specification:'Avenir, Ultra-Bold';text-align:start;writing-mode:lr-tb;text-anchor:start">Directions:</tspan> Wash face with Tridoshic Herbal </tspan><tspan
           y="4206.6216"
           x="2420.9629"
           id="tspan6703"
           sodipodi:role="line">Pack or Oil Cleanser. Pat dry. Massage few </tspan><tspan
           y="4244.6025"
           x="2420.9629"
           id="tspan6705"
           sodipodi:role="line">drops of Kapha Face Oil onto the face. </tspan><tspan
           y="4282.584"
           x="2420.9629"
           id="tspan6707"
           sodipodi:role="line">Allow at least 10 mins to absorb fully. </tspan><tspan
           y="4320.5649"
           x="2420.9629"
           id="tspan6709"
           sodipodi:role="line">Either leave oil or blot excess from face.</tspan></text>
      <text
         sodipodi:linespacing="125%"
         id="text6483"
         y="4444.7959"
         x="2733.7637"
         style="font-style:normal;font-variant:normal;font-weight:normal;font-stretch:normal;font-size:23.12750053px;line-height:125%;font-family:sans-serif;-inkscape-font-specification:'sans-serif, Normal';text-align:center;letter-spacing:0px;word-spacing:0px;writing-mode:lr-tb;text-anchor:middle;fill:#000000;fill-opacity:1;stroke:none;stroke-width:1px;stroke-linecap:butt;stroke-linejoin:miter;stroke-opacity:1"
         xml:space="preserve"><tspan
           id="tspan6485"
           sodipodi:role="line"
           x="2737.4451"
           y="4444.7959">Manufactured for Kimberly Beauty LLC </tspan><tspan
           id="tspan6487"
           sodipodi:role="line"
           x="2733.7637"
           y="4473.7051">San Francisco, CA</tspan><tspan
           id="tspan6489"
           sodipodi:role="line"
           x="2733.7637"
           y="4502.6147">www.yogiquesf.com</tspan></text>
      <text
         xml:space="preserve"
         style="font-style:normal;font-variant:normal;font-weight:normal;font-stretch:normal;font-size:23.12777328px;line-height:125%;font-family:sans-serif;-inkscape-font-specification:'sans-serif, Normal';text-align:center;letter-spacing:0px;word-spacing:0px;writing-mode:lr-tb;text-anchor:middle;fill:#000000;fill-opacity:1;stroke:none;stroke-width:1px;stroke-linecap:butt;stroke-linejoin:miter;stroke-opacity:1"
         x="2735.5647"
         y="4570.0132"
         id="text6491"
         sodipodi:linespacing="125%"><tspan
           id="tspan6493"
           sodipodi:role="line"
           x="2735.5647"
           y="4570.0132"
           style="font-style:normal;font-variant:normal;font-weight:normal;font-stretch:normal;font-size:23.12777328px;line-height:125%;font-family:sans-serif;-inkscape-font-specification:'sans-serif, Normal';text-align:center;writing-mode:lr-tb;text-anchor:middle;fill:#000000;fill-opacity:1">Warning: Safety of this product not determined</tspan></text>
    </g>
  </g>
</svg>
