<?xml version="1.0" encoding="UTF-8" standalone="no"?>
<!-- Created with Inkscape (http://www.inkscape.org/) -->

<svg
   xmlns:dc="http://purl.org/dc/elements/1.1/"
   xmlns:cc="http://creativecommons.org/ns#"
   xmlns:rdf="http://www.w3.org/1999/02/22-rdf-syntax-ns#"
   xmlns:svg="http://www.w3.org/2000/svg"
   xmlns="http://www.w3.org/2000/svg"
   xmlns:sodipodi="http://sodipodi.sourceforge.net/DTD/sodipodi-0.dtd"
   xmlns:inkscape="http://www.inkscape.org/namespaces/inkscape"
   width="210mm"
   height="297mm"
   viewBox="0 0 744.09448819 1052.3622047"
   id="svg7720"
   version="1.1"
   inkscape:version="0.91 r13725"
   sodipodi:docname="symbol.svg">
  <defs
     id="defs7722">
    <inkscape:perspective
       sodipodi:type="inkscape:persp3d"
       inkscape:vp_x="0 : 526.1811 : 1"
       inkscape:vp_y="0 : 1000 : 0"
       inkscape:vp_z="744.09449 : 526.1811 : 1"
       inkscape:persp3d-origin="372.04724 : 350.7874 : 1"
       id="perspective8529" />
  </defs>
  <sodipodi:namedview
     id="base"
     pagecolor="#ffffff"
     bordercolor="#666666"
     borderopacity="1.0"
     inkscape:pageopacity="0.0"
     inkscape:pageshadow="2"
     inkscape:zoom="1"
     inkscape:cx="318.63248"
     inkscape:cy="463.06971"
     inkscape:document-units="px"
     inkscape:current-layer="layer1"
     showgrid="false"
     inkscape:window-width="1697"
     inkscape:window-height="942"
     inkscape:window-x="1484"
     inkscape:window-y="193"
     inkscape:window-maximized="0"
     inkscape:object-paths="false"
     showguides="false" />
  <metadata
     id="metadata7725">
    <rdf:RDF>
      <cc:Work
         rdf:about="">
        <dc:format>image/svg+xml</dc:format>
        <dc:type
           rdf:resource="http://purl.org/dc/dcmitype/StillImage" />
        <dc:title></dc:title>
      </cc:Work>
    </rdf:RDF>
  </metadata>
  <g
     inkscape:label="Layer 1"
     inkscape:groupmode="layer"
     id="layer1">
    <rect
       style="display:inline;opacity:1;fill:#000000;fill-opacity:1;stroke:#000000;stroke-width:6.49544287;stroke-miterlimit:4;stroke-dasharray:none;stroke-opacity:1"
       id="rect7699"
       width="808.35864"
       height="1374.1575"
       x="-30.465031"
       y="-141.57376"
       ry="3.5317791" />
    <path
       style="display:inline;fill:#d4aa00;fill-opacity:0.99215686;fill-rule:evenodd;stroke:none;stroke-width:1px;stroke-linecap:butt;stroke-linejoin:miter;stroke-opacity:1"
       d="m 244.82951,619.43439 c 1.42218,0.36943 2.87406,0.69856 4.35438,0.98522 10.19055,1.97287 21.19773,1.85616 32.70011,-0.11169 10.45955,-1.78995 20.80233,-5.00066 31.53833,-9.05812 10.51941,-3.97643 19.64845,-8.03598 30.63833,-12.48585 3.86342,-1.56461 7.79649,-3.09978 11.78124,-4.54405 6.55756,-2.3767 13.08934,-4.44671 19.69544,-6.05432 5.41932,-1.31851 10.83398,-2.30608 16.24434,-2.86654 5.55641,-0.57559 11.06586,-0.69068 16.46844,-0.28295 11.54757,0.86948 22.37945,4.17942 31.40379,9.81833 4.84375,3.02826 9.0842,6.70515 12.58827,10.80826 3.72726,4.36405 6.5859,9.18714 8.46852,14.19179 2.50851,6.67283 3.19945,13.57972 2.63908,19.88141 -0.64803,7.29769 -2.95228,13.80401 -6.09761,19.08536 -2.68146,4.50076 -5.95282,8.11193 -9.23878,10.93438 2.03726,-0.9615 4.23097,-2.16863 6.48661,-3.68915 4.88294,-3.29209 10.34086,-8.27009 14.43699,-15.2401 3.26094,-5.54703 5.63528,-12.36789 6.28104,-20.00183 0.55686,-6.59144 -0.19267,-13.80564 -2.83177,-20.752 -1.97946,-5.21353 -4.97993,-10.23856 -8.88419,-14.78714 -3.67156,-4.27702 -8.11285,-8.10848 -13.18115,-11.2626 -9.44411,-5.8803 -20.79645,-9.32152 -32.90918,-10.22424 -5.66861,-0.42148 -11.45411,-0.294 -17.29412,0.31536 -5.68698,0.59335 -11.3842,1.6365 -17.09364,3.02789 -6.96057,1.69598 -13.85062,3.8819 -20.77798,6.39306 -4.2095,1.52594 -8.36801,3.14839 -12.45643,4.80228 -11.61663,4.69995 -21.33618,9.01239 -32.50419,13.22133 -11.41497,4.30303 -22.44146,7.70558 -33.60617,9.59705 -12.27934,2.08107 -24.05026,2.17242 -34.95314,0.032 -5.99845,-1.17855 -11.60574,-3.02581 -16.71082,-5.41926 -5.59508,-2.62288 -10.51361,-5.87722 -14.67052,-9.55847 -7.3892,-6.54499 -12.1722,-14.21625 -15.04127,-21.25271 0.46613,2.83976 1.20488,5.93527 2.35024,9.17548 2.56106,7.24624 7.31573,15.5324 15.18555,22.43773 6.53945,5.74105 15.0354,10.29832 24.99026,12.88399 z"
       id="path7568"
       inkscape:connector-curvature="0" />
    <path
       inkscape:connector-curvature="0"
       id="path7570"
       d="m 432.86473,619.43439 c -1.42218,0.36943 -2.87404,0.69856 -4.35436,0.98522 -10.19057,1.97287 -21.19775,1.85616 -32.70011,-0.11169 -10.45958,-1.78995 -20.80233,-5.00066 -31.53835,-9.05812 -10.51942,-3.97643 -19.64842,-8.03598 -30.63831,-12.48585 -3.86344,-1.56461 -7.79649,-3.09978 -11.78124,-4.54405 -6.55758,-2.3767 -13.08925,-4.44671 -19.69544,-6.05432 -5.41935,-1.31851 -10.83398,-2.30608 -16.24436,-2.86654 -5.55641,-0.57559 -11.06584,-0.69068 -16.46844,-0.28295 -11.54755,0.86948 -22.37943,4.17942 -31.40379,9.81833 -4.84375,3.02826 -9.08422,6.70515 -12.58825,10.80826 -3.72726,4.36405 -6.58592,9.18714 -8.46849,14.19179 -2.50854,6.67283 -3.19948,13.57972 -2.63911,19.88141 0.64801,7.29769 2.95226,13.80401 6.09761,19.08536 1.44679,2.42842 4.21953,5.47997 6.92477,7.75813 1.26592,1.06607 5.31265,2.96607 6.88853,3.76377 1.22502,0.62009 -0.50787,0.70053 0.17546,1.28748 -2.03724,-0.9615 -8.98095,-4.04363 -11.23659,-5.56415 -4.88296,-3.29209 -10.34086,-8.27009 -14.43698,-15.2401 -3.26095,-5.54703 -5.63531,-12.36789 -6.28107,-20.00183 -0.55684,-6.59144 0.19266,-13.80564 2.83177,-20.752 1.97948,-5.21353 4.97993,-10.23856 8.88422,-14.78714 3.67155,-4.27702 8.11284,-8.10848 13.18112,-11.2626 9.44413,-5.8803 20.79645,-9.32152 32.90918,-10.22424 5.66861,-0.42148 11.45411,-0.294 17.29412,0.31536 5.68698,0.59335 11.38429,1.6365 17.09373,3.02789 6.9605,1.69598 13.85055,3.8819 20.778,6.39306 4.20939,1.52594 8.3679,3.14839 12.45632,4.80228 11.61665,4.69995 21.3362,9.01239 32.50418,13.22133 11.415,4.30303 22.44156,7.70558 33.60629,9.59705 12.27923,2.08107 24.05023,2.17242 34.95302,0.032 5.99846,-1.17855 11.60578,-3.02581 16.71092,-5.41926 5.59501,-2.62288 10.51354,-5.87722 14.67043,-9.55847 7.38922,-6.54499 12.17219,-14.21625 15.04127,-21.25271 -0.46611,2.83976 -1.20486,5.93527 -2.35024,9.17548 -2.56106,7.24624 -7.31571,15.5324 -15.18553,22.43773 -6.53945,5.74105 -15.0354,10.29832 -24.99028,12.88399 z"
       style="display:inline;fill:#d4aa00;fill-rule:evenodd;stroke:none;stroke-width:1px;stroke-linecap:butt;stroke-linejoin:miter;stroke-opacity:1;fill-opacity:0.99215686"
       sodipodi:nodetypes="cccccccsccccccssccccccccsccccccccccccc" />
    <circle
       id="path7622"
       style="display:inline;fill:#d4aa00;stroke:none;fill-opacity:0.99215686"
       cx="224.46753"
       cy="493.52115"
       r="0.13581623" />
    <path
       style="display:inline;fill:#d4aa00;fill-rule:evenodd;stroke:none;stroke-width:1px;stroke-linecap:butt;stroke-linejoin:miter;stroke-opacity:1;fill-opacity:0.99215686"
       d="m 345.71662,436.25762 c 5.0873,1.82555 10.63106,4.21817 16.32085,7.35654 6.15873,3.39699 12.51403,7.68493 18.46621,13.00085 5.17242,4.61943 10.058,10.03858 14.11321,16.22916 3.6857,5.62692 6.66831,11.86977 8.70075,18.60046 1.89056,6.26095 2.95028,12.90932 3.00136,19.77775 0.0483,6.49291 -0.80612,13.16673 -2.7071,19.80952 -1.81829,6.35402 -4.59765,12.67464 -8.4262,18.69683 -4.86015,7.644 -11.33008,14.79246 -19.18025,21.04019 -0.0654,0.0521 -0.13081,0.10412 -0.19644,0.15618 -0.27111,0.21447 -0.54374,0.42747 -0.81727,0.63924 0.41832,-0.16218 0.83482,-0.32677 1.24925,-0.49427 13.90242,-5.61637 25.51344,-14.14979 33.70397,-24.10031 8.74139,-10.61885 13.55671,-22.76101 14.60487,-34.59068 1.1488,-12.95923 -2.17958,-25.44436 -8.35697,-35.95964 -7.06779,-12.03211 -17.74067,-21.42428 -29.13113,-27.84499 -4.01554,-2.26364 -8.11005,-4.16361 -12.20363,-5.74495 -10.11894,-3.90897 -20.23201,-5.87048 -29.14154,-6.57188 z m -29.6561,8.89049 c -7.40526,2.52849 -15.55802,6.38696 -23.29313,11.89875 -3.12928,2.22977 -6.18987,4.72996 -9.10484,7.52155 -8.26858,7.91831 -15.28375,18.20155 -18.66784,29.94167 -2.95801,10.26019 -3.07174,21.57323 0.7151,32.31666 3.45635,9.80703 10.17607,19.06162 19.89553,26.17199 9.10712,6.66304 20.80787,11.38176 33.81951,13.12871 0.38782,0.0521 0.77698,0.10145 1.16696,0.14817 -0.27799,-0.12036 -0.55533,-0.24183 -0.83184,-0.36497 -0.067,-0.0298 -0.13371,-0.0596 -0.20045,-0.0897 -8.01478,-3.59604 -15.05405,-8.25581 -20.83557,-13.6851 -4.55455,-4.27749 -8.28406,-9.03577 -11.20538,-14.03101 -3.05415,-5.22221 -5.22712,-10.69787 -6.59524,-16.21608 -1.44726,-5.8372 -1.99123,-11.70664 -1.74631,-17.42776 0.2633,-6.15049 1.43847,-12.09308 3.34378,-17.66598 2.09628,-6.1313 5.0645,-11.78845 8.44958,-16.82941 3.8953,-5.80098 8.3556,-10.81756 12.84261,-15.03564 4.14529,-3.89692 8.32852,-7.12937 12.24764,-9.78196 z"
       id="path7636"
       inkscape:connector-curvature="0" />
    <path
       style="display:inline;fill:#d4aa00;fill-rule:evenodd;stroke:none;stroke-width:1px;stroke-linecap:butt;stroke-linejoin:miter;stroke-opacity:1;fill-opacity:0.99215686"
       d="m 340.54267,363.42994 c -2.25883,0.81057 -4.72035,1.87283 -7.2467,3.26631 -2.73464,1.50833 -5.55653,3.41221 -8.19942,5.77255 -2.29667,2.0511 -4.4659,4.45734 -6.26647,7.20604 -1.63649,2.49843 -2.96062,5.27026 -3.86308,8.25879 -0.83942,2.77997 -1.31007,5.73208 -1.33272,8.78172 -0.0222,2.88296 0.35792,5.84621 1.20197,8.79569 0.8073,2.82129 2.04151,5.62766 3.74148,8.3016 2.15793,3.39403 5.03055,6.56808 8.51613,9.34216 0.0289,0.0231 0.0583,0.0463 0.0874,0.0692 0.12036,0.0952 0.2413,0.18978 0.36282,0.28384 -0.18577,-0.0721 -0.37069,-0.14506 -0.55477,-0.21959 -6.17285,-2.49376 -11.32826,-6.28266 -14.96497,-10.70084 -3.88134,-4.7149 -6.01936,-10.1062 -6.48476,-15.35873 -0.51012,-5.75406 0.96773,-11.29778 3.71059,-15.96671 3.13817,-5.34244 7.87716,-9.51265 12.93469,-12.36353 1.783,-1.0051 3.60094,-1.84866 5.41853,-2.5508 4.49298,-1.73563 8.98333,-2.60649 12.93929,-2.91791 z m 13.16764,3.94751 c 3.28803,1.12271 6.90798,2.83591 10.34249,5.28322 1.38941,0.99006 2.74838,2.1002 4.04273,3.3397 3.67128,3.51586 6.78626,8.08166 8.28884,13.29443 1.31335,4.5557 1.36378,9.57875 -0.31763,14.34895 -1.5347,4.35447 -4.51831,8.46365 -8.83393,11.62077 -4.04362,2.95851 -9.23896,5.0538 -15.01629,5.82951 -0.1722,0.0231 -0.34498,0.0449 -0.5182,0.0659 0.12348,-0.0534 0.24664,-0.10746 0.36943,-0.16219 0.0296,-0.0134 0.0594,-0.0265 0.089,-0.0398 3.55866,-1.59669 6.68441,-3.66568 9.25143,-6.07636 2.02231,-1.89926 3.67827,-4.0119 4.97533,-6.22988 1.35606,-2.31874 2.32092,-4.75005 2.92837,-7.2002 0.6426,-2.59179 0.88426,-5.19787 0.77551,-7.73815 -0.11702,-2.73088 -0.63889,-5.36965 -1.48483,-7.8441 -0.9308,-2.72235 -2.24875,-5.23411 -3.75171,-7.47238 -1.72958,-2.57572 -3.71013,-4.80316 -5.70238,-6.67603 -1.84057,-1.73029 -3.698,-3.16551 -5.43808,-4.3433 z"
       id="path7663"
       inkscape:connector-curvature="0" />
    <path
       inkscape:connector-curvature="0"
       id="path8358"
       d="m 1105.7166,1.9719057 c 5.0873,1.82555 10.6311,4.21817 16.3209,7.35654 6.1587,3.3969903 12.514,7.6849303 18.4662,13.0008503 5.1724,4.61943 10.058,10.03858 14.1132,16.22916 3.6857,5.62692 6.6683,11.86977 8.7007,18.60046 1.8906,6.26095 2.9503,12.90932 3.0014,19.77775 0.048,6.49291 -0.8061,13.16673 -2.7071,19.80952 -1.8183,6.354024 -4.5976,12.674644 -8.4262,18.696834 -4.8601,7.644 -11.3301,14.79246 -19.1802,21.04019 -0.065,0.0521 -0.1309,0.10412 -0.1965,0.15618 -0.2711,0.21447 -0.5437,0.42747 -0.8173,0.63924 0.4184,-0.16218 0.8349,-0.32677 1.2493,-0.49427 13.9024,-5.61637 25.5134,-14.14979 33.704,-24.10031 8.7414,-10.61885 13.5567,-22.761014 14.6048,-34.590684 1.1488,-12.95923 -2.1795,-25.44436 -8.3569,-35.95964 -7.0678,-12.03211 -17.7407,-21.42428 -29.1312,-27.84499 -4.0155,-2.26364 -8.11,-4.16361 -12.2036,-5.7449503 -10.1189,-3.90897 -20.232,-5.87048 -29.1415,-6.57188 z m -29.6561,8.8904903 c -7.4052,2.52849 -15.558,6.38696 -23.2931,11.89875 -3.1293,2.22977 -6.1899,4.72996 -9.1048,7.52155 -8.2686,7.91831 -15.2838,18.20155 -18.6679,29.94167 -2.958,10.26019 -3.0717,21.57323 0.7151,32.31666 3.4564,9.807034 10.1761,19.061624 19.8955,26.171994 9.1072,6.66304 20.8079,11.38176 33.8196,13.12871 0.3878,0.0521 0.7769,0.10145 1.1669,0.14817 -0.278,-0.12036 -0.5553,-0.24183 -0.8318,-0.36497 -0.067,-0.0298 -0.1337,-0.0596 -0.2005,-0.0897 -8.0148,-3.59604 -15.054,-8.25581 -20.8355,-13.6851 -4.5546,-4.27749 -8.2841,-9.03577 -11.2054,-14.03101 -3.0542,-5.222214 -5.2271,-10.697874 -6.5953,-16.216084 -1.4472,-5.8372 -1.9912,-11.70664 -1.7463,-17.42776 0.2633,-6.15049 1.4385,-12.09308 3.3438,-17.66598 2.0963,-6.1313 5.0645,-11.78845 8.4496,-16.82941 3.8953,-5.80098 8.3556,-10.81756 12.8426,-15.03564 4.1453,-3.89692 8.3285,-7.12937 12.2476,-9.78196 z"
       style="display:inline;fill:#d4aa00;fill-rule:evenodd;stroke:none;stroke-width:1px;stroke-linecap:butt;stroke-linejoin:miter;stroke-opacity:1" />
    <path
       inkscape:connector-curvature="0"
       id="path8360"
       d="m 964.82951,596.57725 c 1.42218,0.36943 2.87406,0.69856 4.35438,0.98522 10.19055,1.97287 21.19773,1.85616 32.70011,-0.11169 10.4596,-1.78995 20.8023,-5.00066 31.5383,-9.05812 10.5194,-3.97643 19.6485,-8.03598 30.6384,-12.48585 3.8634,-1.56461 7.7965,-3.09978 11.7812,-4.54405 6.5576,-2.3767 13.0893,-4.44671 19.6954,-6.05432 5.4194,-1.31851 10.834,-2.30608 16.2444,-2.86654 5.5564,-0.57559 11.0658,-0.69068 16.4684,-0.28295 11.5476,0.86948 22.3795,4.17942 31.4038,9.81833 4.8438,3.02826 9.0842,6.70515 12.5883,10.80826 3.7272,4.36405 6.5859,9.18714 8.4685,14.19179 2.5085,6.67283 3.1995,13.57972 2.6391,19.88141 -0.648,7.29769 -2.9523,13.80401 -6.0976,19.08536 -2.6815,4.50076 -5.9528,8.11193 -9.2388,10.93438 2.0373,-0.9615 4.231,-2.16863 6.4866,-3.68915 4.8829,-3.29209 10.3409,-8.27009 14.437,-15.2401 3.2609,-5.54703 5.6353,-12.36789 6.281,-20.00183 0.5569,-6.59144 -0.1926,-13.80564 -2.8317,-20.752 -1.9795,-5.21353 -4.98,-10.23856 -8.8842,-14.78714 -3.6716,-4.27702 -8.1129,-8.10848 -13.1812,-11.2626 -9.4441,-5.8803 -20.7964,-9.32152 -32.9092,-10.22424 -5.6686,-0.42148 -11.4541,-0.294 -17.2941,0.31536 -5.687,0.59335 -11.3842,1.6365 -17.0936,3.02789 -6.9606,1.69598 -13.8506,3.8819 -20.778,6.39306 -4.2095,1.52594 -8.368,3.14839 -12.4564,4.80228 -11.6167,4.69995 -21.3362,9.01239 -32.5042,13.22133 -11.415,4.30303 -22.4415,7.70558 -33.6062,9.59705 -12.27933,2.08107 -24.05025,2.17242 -34.95313,0.032 -5.99845,-1.17855 -11.60574,-3.02581 -16.71082,-5.41926 -5.59508,-2.62288 -10.51361,-5.87722 -14.67052,-9.55847 -7.3892,-6.54499 -12.1722,-14.21625 -15.04127,-21.25271 0.46613,2.83976 1.20488,5.93527 2.35024,9.17548 2.56106,7.24624 7.31573,15.5324 15.18555,22.43773 6.53945,5.74105 15.0354,10.29832 24.99026,12.88399 z"
       style="display:inline;fill:#000000;fill-opacity:1;fill-rule:evenodd;stroke:none;stroke-width:1px;stroke-linecap:butt;stroke-linejoin:miter;stroke-opacity:1" />
    <path
       style="display:inline;fill:#000000;fill-rule:evenodd;stroke:none;stroke-width:1px;stroke-linecap:butt;stroke-linejoin:miter;stroke-opacity:1"
       d="m 1152.8647,596.57725 c -1.4221,0.36943 -2.874,0.69856 -4.3543,0.98522 -10.1906,1.97287 -21.1978,1.85616 -32.7001,-0.11169 -10.4596,-1.78995 -20.8024,-5.00066 -31.5384,-9.05812 -10.5194,-3.97643 -19.6484,-8.03598 -30.6383,-12.48585 -3.8634,-1.56461 -7.7965,-3.09978 -11.7812,-4.54405 -6.5576,-2.3767 -13.0893,-4.44671 -19.6955,-6.05432 -5.4193,-1.31851 -10.834,-2.30608 -16.2443,-2.86654 -5.5564,-0.57559 -11.06588,-0.69068 -16.46848,-0.28295 -11.54755,0.86948 -22.37943,4.17942 -31.40379,9.81833 -4.84375,3.02826 -9.08422,6.70515 -12.58825,10.80826 -3.72726,4.36405 -6.58592,9.18714 -8.46849,14.19179 -2.50854,6.67283 -3.19948,13.57972 -2.63911,19.88141 0.64801,7.29769 2.95226,13.80401 6.09761,19.08536 2.68144,4.50076 5.95283,8.11193 9.23876,10.93438 -2.03724,-0.9615 -4.23095,-2.16863 -6.48659,-3.68915 -4.88296,-3.29209 -10.34086,-8.27009 -14.43698,-15.2401 -3.26095,-5.54703 -5.63531,-12.36789 -6.28107,-20.00183 -0.55684,-6.59144 0.19266,-13.80564 2.83177,-20.752 1.97948,-5.21353 4.97993,-10.23856 8.88422,-14.78714 3.67155,-4.27702 8.11284,-8.10848 13.18112,-11.2626 9.44413,-5.8803 20.79645,-9.32152 32.90918,-10.22424 5.66861,-0.42148 11.45411,-0.294 17.29412,0.31536 5.68698,0.59335 11.38428,1.6365 17.09378,3.02789 6.9605,1.69598 13.8505,3.8819 20.778,6.39306 4.2093,1.52594 8.3679,3.14839 12.4563,4.80228 11.6166,4.69995 21.3362,9.01239 32.5042,13.22133 11.415,4.30303 22.4415,7.70558 33.6062,9.59705 12.2793,2.08107 24.0503,2.17242 34.9531,0.032 5.9984,-1.17855 11.6057,-3.02581 16.7109,-5.41926 5.595,-2.62288 10.5135,-5.87722 14.6704,-9.55847 7.3892,-6.54499 12.1722,-14.21625 15.0413,-21.25271 -0.4661,2.83976 -1.2049,5.93527 -2.3503,9.17548 -2.561,7.24624 -7.3157,15.5324 -15.1855,22.43773 -6.5394,5.74105 -15.0354,10.29832 -24.9903,12.88399 z"
       id="path8362"
       inkscape:connector-curvature="0" />
    <circle
       r="0.13581623"
       cy="470.664"
       cx="944.46753"
       style="display:inline;fill:#000000;stroke:none"
       id="circle8364" />
    <path
       inkscape:connector-curvature="0"
       id="path8366"
       d="m 1065.7166,413.40048 c 5.0873,1.82555 10.6311,4.21817 16.3209,7.35654 6.1587,3.39699 12.514,7.68493 18.4662,13.00085 5.1724,4.61943 10.058,10.03858 14.1132,16.22916 3.6857,5.62692 6.6683,11.86977 8.7007,18.60046 1.8906,6.26095 2.9503,12.90932 3.0014,19.77775 0.048,6.49291 -0.8061,13.16673 -2.7071,19.80952 -1.8183,6.35402 -4.5976,12.67464 -8.4262,18.69683 -4.8601,7.644 -11.3301,14.79246 -19.1802,21.04019 -0.065,0.0521 -0.1309,0.10412 -0.1965,0.15618 -0.2711,0.21447 -0.5437,0.42747 -0.8173,0.63924 0.4184,-0.16218 0.8349,-0.32677 1.2493,-0.49427 13.9024,-5.61637 25.5134,-14.14979 33.704,-24.10031 8.7414,-10.61885 13.5567,-22.76101 14.6048,-34.59068 1.1488,-12.95923 -2.1795,-25.44436 -8.3569,-35.95964 -7.0678,-12.03211 -17.7407,-21.42428 -29.1312,-27.84499 -4.0155,-2.26364 -8.11,-4.16361 -12.2036,-5.74495 -10.1189,-3.90897 -20.232,-5.87048 -29.1415,-6.57188 z m -29.6561,8.89049 c -7.4052,2.52849 -15.558,6.38696 -23.2931,11.89875 -3.1293,2.22977 -6.1899,4.72996 -9.1048,7.52155 -8.26863,7.91831 -15.2838,18.20155 -18.66789,29.94167 -2.95801,10.26019 -3.07174,21.57323 0.7151,32.31666 3.45635,9.80703 10.17607,19.06162 19.89549,26.17199 9.1072,6.66304 20.8079,11.38176 33.8196,13.12871 0.3878,0.0521 0.7769,0.10145 1.1669,0.14817 -0.278,-0.12036 -0.5553,-0.24183 -0.8318,-0.36497 -0.067,-0.0298 -0.1337,-0.0596 -0.2005,-0.0897 -8.0148,-3.59604 -15.054,-8.25581 -20.8355,-13.6851 -4.5546,-4.27749 -8.2841,-9.03577 -11.2054,-14.03101 -3.0542,-5.22221 -5.2271,-10.69787 -6.5953,-16.21608 -1.44723,-5.8372 -1.9912,-11.70664 -1.74628,-17.42776 0.2633,-6.15049 1.43848,-12.09308 3.34378,-17.66598 2.0963,-6.1313 5.0645,-11.78845 8.4496,-16.82941 3.8953,-5.80098 8.3556,-10.81756 12.8426,-15.03564 4.1453,-3.89692 8.3285,-7.12937 12.2476,-9.78196 z"
       style="display:inline;fill:#000000;fill-rule:evenodd;stroke:none;stroke-width:1px;stroke-linecap:butt;stroke-linejoin:miter;stroke-opacity:1" />
    <path
       inkscape:connector-curvature="0"
       id="path8368"
       d="m 1060.5427,340.5728 c -2.2589,0.81057 -4.7204,1.87283 -7.2467,3.26631 -2.7347,1.50833 -5.5566,3.41221 -8.1994,5.77255 -2.2967,2.0511 -4.4659,4.45734 -6.2665,7.20604 -1.6365,2.49843 -2.9606,5.27026 -3.8631,8.25879 -0.8394,2.77997 -1.3101,5.73208 -1.3327,8.78172 -0.022,2.88296 0.3579,5.84621 1.202,8.79569 0.8073,2.82129 2.0415,5.62766 3.7414,8.3016 2.158,3.39403 5.0306,6.56808 8.5162,9.34216 0.029,0.0231 0.058,0.0463 0.087,0.0692 0.1203,0.0952 0.2413,0.18978 0.3628,0.28384 -0.1858,-0.0721 -0.3707,-0.14506 -0.5548,-0.21959 -6.1728,-2.49376 -11.3282,-6.28266 -14.965,-10.70084 -3.8813,-4.7149 -6.0193,-10.1062 -6.4847,-15.35873 -0.5101,-5.75406 0.9677,-11.29778 3.7106,-15.96671 3.1381,-5.34244 7.8771,-9.51265 12.9347,-12.36353 1.783,-1.0051 3.6009,-1.84866 5.4185,-2.5508 4.493,-1.73563 8.9833,-2.60649 12.9393,-2.91791 z m 13.1676,3.94751 c 3.288,1.12271 6.908,2.83591 10.3425,5.28322 1.3894,0.99006 2.7484,2.1002 4.0427,3.3397 3.6713,3.51586 6.7863,8.08166 8.2889,13.29443 1.3133,4.5557 1.3638,9.57875 -0.3177,14.34895 -1.5347,4.35447 -4.5183,8.46365 -8.8339,11.62077 -4.0436,2.95851 -9.2389,5.0538 -15.0163,5.82951 -0.1722,0.0231 -0.345,0.0449 -0.5182,0.0659 0.1235,-0.0534 0.2467,-0.10746 0.3695,-0.16219 0.03,-0.0134 0.059,-0.0265 0.089,-0.0398 3.5586,-1.59669 6.6844,-3.66568 9.2514,-6.07636 2.0223,-1.89926 3.6783,-4.0119 4.9753,-6.22988 1.3561,-2.31874 2.3209,-4.75005 2.9284,-7.2002 0.6426,-2.59179 0.8842,-5.19787 0.7755,-7.73815 -0.117,-2.73088 -0.6389,-5.36965 -1.4848,-7.8441 -0.9308,-2.72235 -2.2488,-5.23411 -3.7517,-7.47238 -1.7296,-2.57572 -3.7102,-4.80316 -5.7024,-6.67603 -1.8406,-1.73029 -3.698,-3.16551 -5.4381,-4.3433 z"
       style="display:inline;fill:#000000;fill-rule:evenodd;stroke:none;stroke-width:1px;stroke-linecap:butt;stroke-linejoin:miter;stroke-opacity:1" />
    <text
       sodipodi:linespacing="125%"
       id="text8370"
       y="656.46991"
       x="953.66333"
       style="font-style:normal;font-weight:normal;font-size:72.77340698px;line-height:125%;font-family:sans-serif;letter-spacing:0px;word-spacing:0px;display:inline;fill:#000000;fill-opacity:1;stroke:none;stroke-width:1px;stroke-linecap:butt;stroke-linejoin:miter;stroke-opacity:1"
       xml:space="preserve"><tspan
         style="font-style:normal;font-variant:normal;font-weight:normal;font-stretch:normal;font-size:72.77303314px;line-height:125%;font-family:Satisfy;-inkscape-font-specification:'Satisfy, Normal';text-align:start;writing-mode:lr-tb;text-anchor:start;fill:#000000"
         y="656.46991"
         x="953.66333"
         id="tspan8372"
         sodipodi:role="line">Yogique.</tspan></text>
    <path
       inkscape:connector-curvature="0"
       style="font-style:normal;font-variant:normal;font-weight:normal;font-stretch:normal;font-size:72.77303314px;line-height:125%;font-family:Satisfy;-inkscape-font-specification:'Satisfy, Normal';text-align:start;letter-spacing:0px;word-spacing:0px;writing-mode:lr-tb;text-anchor:start;opacity:1;fill:#d4aa00;fill-opacity:0.99215686;stroke:none;stroke-width:1px;stroke-linecap:butt;stroke-linejoin:miter;stroke-opacity:1"
       d="m 261.41049,626.89453 c -0.24381,0 -0.48709,0.0134 -0.73088,0.0371 -0.53637,0.0474 -1.0746,0.16401 -1.61096,0.35352 -0.43886,0.14213 -0.92539,0.33342 -1.46175,0.57031 -0.4876,0.18951 -0.95155,0.47253 -1.3904,0.85156 -0.43884,1.75299 -0.90061,3.64828 -1.38823,5.68555 -0.3068,1.25205 -0.55996,2.37467 -0.82818,3.5332 0.008,-0.005 0.0161,-0.007 0.0238,-0.0117 -0.74403,2.39505 -1.58001,4.63361 -2.52995,6.67969 -1.31135,2.89007 -2.75327,5.37629 -4.32689,7.46094 -1.57361,2.03727 -3.19975,3.62465 -4.87828,4.76172 -1.67853,1.0897 -3.33221,1.63476 -4.95828,1.63476 -2.0457,0 -3.59136,-0.54506 -4.64043,-1.63476 -0.99662,-1.0897 -1.41802,-2.93716 -1.26065,-5.54297 0.20981,-2.13202 0.76033,-4.8554 1.65205,-8.17188 0.44151,-1.70913 1.08173,-3.84041 1.79908,-6.13672 1.01301,-2.83056 2.16128,-5.89264 3.48355,-9.25195 -0.2395,-0.18949 -0.54876,-0.30805 -0.93198,-0.35547 -0.38321,-0.0947 -0.76931,-0.14258 -1.15253,-0.14258 -0.47901,0 -0.93333,0.0229 -1.36444,0.0703 -0.57483,0.0474 -1.12512,0.14302 -1.65205,0.28515 -0.47901,0.0948 -1.03148,0.26116 -1.6542,0.49805 -0.57482,0.18951 -1.14858,0.47254 -1.7234,0.85156 -1.09421,3.57977 -2.01655,6.7547 -2.84783,9.7168 0.0374,-0.0246 0.075,-0.0406 0.11244,-0.0644 -0.48352,1.95912 -0.9225,3.80429 -1.22822,5.31054 -0.6819,3.31648 -1.12652,6.03985 -1.33633,8.17188 -0.26227,3.45861 0.39196,6.20687 1.96558,8.24414 1.62607,2.03727 4.19657,3.05664 7.71097,3.05664 2.36043,0 4.4863,-0.38062 6.37463,-1.13867 1.9408,-0.75805 3.61772,-1.70472 5.03397,-2.8418 1.46871,-1.13708 2.72858,-2.34579 3.77765,-3.625 1.04908,-1.27921 1.91508,-2.46303 2.59698,-3.55273 -1.06199,4.22935 -2.19505,7.76478 -3.39057,10.66992 -1.42786,2.54532 -3.99786,5.01975 -6.24347,5.63629 -1.86654,0.51985 -5.11692,1.00159 -7.47965,1.23754 -1.73661,0.17342 -2.56266,0.329 -4.19572,-0.31428 -5.03193,-1.98213 -13.79032,-10.37847 -17.63087,-12.34502 5.44824,5.83191 16.08251,16.79064 23.99427,17.09796 2.98986,0 5.61329,-0.45138 7.86882,-1.35157 2.25551,-0.90019 2.78123,-0.99299 5.19824,-3.61523 2.41701,-2.62224 3.63046,-4.76187 4.47433,-7.77734 l 1.18065,-4.26367 c 1.20644,-4.45358 2.22912,-8.19631 3.06838,-11.22852 0.83926,-3.03221 1.54859,-5.54331 2.12561,-7.5332 0.12586,-0.49608 0.22341,-0.83695 0.32651,-1.20899 0.26217,-0.89356 0.49557,-1.67607 0.80007,-2.73633 0.6339,-2.03727 1.36586,-4.31316 2.1948,-6.82422 -0.24381,-0.23689 -0.58611,-0.40139 -1.02496,-0.49609 -0.39009,-0.0947 -0.77975,-0.16549 -1.16984,-0.21289 -0.24379,-0.0237 -0.48707,-0.0371 -0.73087,-0.0371 z"
       id="path8504"
       sodipodi:nodetypes="cccccccccccsccccccscccccccccsccscccssccssccscccccccc" />
    <path
       inkscape:connector-curvature="0"
       id="path8506"
       style="font-style:normal;font-variant:normal;font-weight:normal;font-stretch:normal;font-size:72.77303314px;line-height:125%;font-family:Satisfy;-inkscape-font-specification:'Satisfy, Normal';text-align:start;letter-spacing:0px;word-spacing:0px;writing-mode:lr-tb;text-anchor:start;fill:#d4aa00;fill-opacity:0.99215686;stroke:none;stroke-width:1px;stroke-linecap:butt;stroke-linejoin:miter;stroke-opacity:1"
       d="m 288.00163,657.52731 q -0.7868,2.70056 -2.12438,5.04578 -1.33757,2.34523 -3.2259,4.05085 -1.80967,1.70561 -4.17009,2.62949 -2.28173,0.99494 -5.03556,0.99494 -3.22591,0 -5.11424,-1.27921 -1.80966,-1.20814 -2.75383,-3.0559 -0.86549,-1.84775 -1.02285,-4.05084 -0.23604,-2.20309 -0.23604,-4.12191 0,-1.35028 0.3934,-2.98483 0.31472,-1.63455 0.94417,-3.34017 0.62944,-1.70562 1.57361,-3.41124 1.02286,-1.70561 2.36042,-3.12696 0.47209,-1.20815 1.41626,-2.13203 1.02284,-0.92387 2.28174,-1.49241 1.33757,-0.63961 2.83251,-0.92388 1.49493,-0.35533 2.91118,-0.35533 0.23605,0 0.3934,0.0711 0.23604,0.0711 0.47209,0.14214 1.02285,0.0711 2.51778,0.71067 1.57361,0.63961 2.98986,1.91882 1.49495,1.27922 2.51779,3.2691 1.02285,1.91882 1.02285,4.69045 0,0.56854 -0.0787,1.42135 -0.0787,0.78174 -0.15735,1.35028 1.80965,-0.6396 3.77667,-1.56348 1.96702,-0.92388 3.77667,-1.91882 1.88834,-1.06601 3.46195,-2.13202 1.57361,-1.06601 2.51778,-1.91882 0.78682,-0.63961 1.33758,-0.71068 0.55076,-0.0711 0.7868,0.28427 0.23604,0.35534 0.0787,0.99495 -0.15737,0.6396 -0.86549,1.42134 -0.3934,0.42641 -2.0457,1.70562 -1.57361,1.27922 -3.77667,2.77163 -2.20306,1.49242 -4.79952,2.91376 -2.59647,1.42135 -4.95689,2.13203 z M 274.7046,646.72506 q -0.23605,0.63961 -0.23605,1.35028 0,1.13708 0.15736,2.41629 0.15736,1.20815 0.78681,2.20309 0.62944,0.99495 1.96702,1.70562 1.41625,0.63961 3.85535,0.63961 0.39341,0 0.78681,0 0.3934,-0.0711 0.7868,-0.14214 0.23604,-0.92387 0.39341,-1.63455 0.23604,-0.78174 0.23604,-1.35028 0.15736,-1.35028 0,-2.77163 -0.15737,-1.42135 -0.62945,-2.55842 -0.3934,-1.20815 -1.10152,-1.91882 -0.62945,-0.78175 -1.57362,-0.78175 -1.49493,0 -2.91119,0.78175 -1.33756,0.71067 -2.51777,2.06095 z m -5.03557,12.50787 q 0,1.27921 0.15736,2.55842 0.15736,1.20815 0.62945,2.20309 0.47208,0.92388 1.25888,1.56349 0.78681,0.56853 2.04571,0.56853 1.41625,0 2.59645,-0.56853 1.18021,-0.63961 2.12438,-1.56349 0.94417,-0.99494 1.6523,-2.20309 0.78681,-1.27921 1.33757,-2.62949 -0.55076,0.0711 -1.10153,0.14213 -0.47208,0 -1.10152,0 -2.98988,0 -5.19293,-1.56348 -2.12438,-1.63455 -3.30459,-4.12191 -0.47209,1.49242 -0.78681,2.91376 -0.31472,1.42135 -0.31472,2.70057 z" />
    <path
       inkscape:connector-curvature="0"
       id="path8508"
       style="font-style:normal;font-variant:normal;font-weight:normal;font-stretch:normal;font-size:72.77303314px;line-height:125%;font-family:Satisfy;-inkscape-font-specification:'Satisfy, Normal';text-align:start;letter-spacing:0px;word-spacing:0px;writing-mode:lr-tb;text-anchor:start;fill:#d4aa00;fill-opacity:0.99215686;stroke:none;stroke-width:1px;stroke-linecap:butt;stroke-linejoin:miter;stroke-opacity:1"
       d="m 317.27086,678.98967 q -0.39341,1.70561 -1.02286,4.26404 -0.55076,2.55843 -1.33757,5.40113 -0.70812,2.84269 -1.73098,5.61432 -0.94417,2.8427 -2.12437,5.04579 -1.18021,2.27415 -2.59646,3.6955 -1.41626,1.42135 -3.14723,1.42135 -2.59646,0 -4.4848,-1.42135 -1.80966,-1.35028 -3.06855,-3.4823 -1.25889,-2.06096 -1.80966,-4.47725 -0.62944,-2.41629 -0.62944,-4.47724 0,-2.8427 0.55076,-4.76152 0.55076,-1.84775 1.88834,-3.55337 1.41625,-1.70562 3.77667,-3.62444 2.36043,-1.91882 6.05842,-4.76152 1.80966,-1.42135 3.46195,-2.70056 1.65229,-1.27921 3.14723,-2.34522 0.3934,-1.42135 0.70812,-2.6295 0.3934,-1.27921 0.62944,-2.27416 -2.04569,2.48736 -4.95687,4.19298 -2.83251,1.70562 -6.53051,1.70562 -3.38327,0 -5.50765,-2.70056 -2.04569,-2.77163 -2.04569,-8.10169 0,-2.62949 1.10152,-6.04073 1.10154,-3.41123 3.14723,-6.39606 2.0457,-2.98484 5.03556,-5.04579 2.98988,-2.06096 6.68786,-2.06096 1.73099,0 2.98988,0.78175 1.25889,0.78174 2.12438,1.98988 0.86548,1.13708 1.33756,2.48736 0.47209,1.27922 0.70813,2.41629 0.15736,-0.4264 0.23604,-0.8528 0.0787,-0.49748 0.23604,-0.85281 0.78682,-2.4163 1.73099,-3.2691 1.02284,-0.92388 2.98986,-0.92388 1.10153,0 1.80966,0.35534 0.7868,0.35533 0.7868,0.6396 -0.3934,0.78174 -0.62945,1.20815 -0.23604,0.4264 -0.47208,0.92388 -0.23604,0.4264 -0.47208,1.13707 -0.23605,0.71068 -0.62944,2.06096 -0.15737,0.49747 -0.62945,2.34522 -0.39341,1.77669 -1.10154,4.26405 -0.62944,2.48736 -1.41624,5.47219 -0.70813,2.98483 -1.41625,5.82753 2.20305,-1.13708 4.56348,-2.77163 2.36042,-1.63455 4.48479,-3.34017 2.12438,-1.70562 3.77667,-3.19803 1.6523,-1.56349 2.4391,-2.55843 0.62945,-0.85281 1.41626,-1.20815 0.78681,-0.35533 1.33757,-0.2132 0.62945,0.0711 0.70813,0.63961 0.15737,0.49747 -0.47208,1.42135 -1.80966,2.62949 -4.40612,5.11685 -2.59646,2.41629 -5.35029,4.54831 -2.67515,2.06096 -5.27161,3.69551 -2.51778,1.56348 -4.32744,2.55843 -0.7868,3.19803 -1.33757,5.18792 -0.55077,1.98989 -0.94416,3.62444 z m -9.91378,-14.00028 q 1.6523,0 3.06855,-0.78175 1.49493,-0.78174 2.67514,-1.77668 1.18022,-1.06601 1.96702,-2.13202 0.78681,-1.06601 1.18021,-1.70562 0.31473,-0.63961 0.70813,-1.70562 0.47208,-1.06601 0.70812,-2.06095 0.23605,-0.99495 0.15737,-1.77669 0,-0.78174 -0.55076,-0.85281 -0.4721,-0.0711 -0.78682,-0.56854 -0.23604,-0.49747 -0.39339,-1.13708 -0.15737,-0.6396 -0.23605,-1.27921 0,-0.63961 -0.0787,-1.13708 -0.39341,-2.48736 -1.33758,-3.62444 -0.94417,-1.13708 -2.12438,-1.13708 -1.96702,0 -3.77667,1.42135 -1.73098,1.42135 -3.14723,3.69551 -1.33757,2.20309 -2.12437,4.90365 -0.78682,2.62949 -0.78682,5.04579 0,2.98483 0.94417,4.83258 0.94417,1.77669 3.93404,1.77669 z m -3.61931,32.97528 q 1.57362,0 2.51778,-2.13203 1.02286,-2.06095 2.12438,-5.68539 0.23604,-0.85281 0.62945,-2.48736 0.47208,-1.56348 1.02285,-3.62444 0.62944,-2.06095 1.25888,-4.47724 0.62945,-2.34523 1.33758,-4.76152 -0.62945,0.49747 -1.33758,0.99494 -0.62944,0.56854 -1.33756,1.27922 -1.73098,1.49241 -3.38327,2.84269 -1.57362,1.42135 -2.83251,2.91377 -1.25889,1.56348 -2.0457,3.34017 -0.70813,1.77668 -0.70813,4.12191 0,2.34522 0.15737,3.83764 0.23604,1.49241 0.55076,2.34522 0.39341,0.85281 0.86549,1.13708 0.55076,0.35534 1.18021,0.35534 z" />
    <path
       inkscape:connector-curvature="0"
       id="path8510"
       style="font-style:normal;font-variant:normal;font-weight:normal;font-stretch:normal;font-size:72.77303314px;line-height:125%;font-family:Satisfy;-inkscape-font-specification:'Satisfy, Normal';text-align:start;letter-spacing:0px;word-spacing:0px;writing-mode:lr-tb;text-anchor:start;fill:#d4aa00;fill-opacity:0.99215686;stroke:none;stroke-width:1px;stroke-linecap:butt;stroke-linejoin:miter;stroke-opacity:1"
       d="m 350.94619,626.96832 q -0.23605,0.78174 -0.94417,1.56348 -0.62944,0.71068 -1.49493,1.20815 -0.78681,0.4264 -1.6523,0.56854 -0.86549,0.14213 -1.41625,-0.28427 -1.6523,-1.13708 -1.73098,-2.41629 -0.0787,-1.35029 0.70813,-2.48736 0.78681,-1.20815 1.96702,-1.98989 1.18021,-0.85281 2.0457,-0.99495 0.86548,-0.14213 1.41625,0.35534 0.62944,0.42641 0.94417,1.20815 0.31472,0.71067 0.31472,1.63455 0.0787,0.92387 -0.15736,1.63455 z m -10.85794,15.13736 q 0.3934,-0.42641 1.49493,-0.71068 1.10154,-0.28427 2.28175,-0.4264 1.18021,-0.2132 2.12437,-0.2132 1.02286,-0.0711 1.18021,0 0.0787,0.0711 -0.3934,1.49241 -0.47208,1.42135 -1.18021,3.34017 -0.70812,1.91882 -1.49493,3.97978 -0.78681,1.98988 -1.18021,3.2691 -0.39341,1.27921 -0.94417,2.91376 -0.55077,1.56349 -1.02286,3.12697 -0.39339,1.49241 -0.55076,2.84269 -0.15735,1.35029 0.23605,2.06096 0.3934,0.85281 0.86549,1.20815 0.47208,0.28427 1.02284,0.28427 1.57362,0 3.93403,-1.56349 2.43911,-1.56348 4.87821,-3.6955 2.51778,-2.20309 4.64216,-4.40618 2.12438,-2.27416 3.14723,-3.62444 0.62945,-0.71068 1.2589,-0.92388 0.70812,-0.2132 1.10152,0.0711 0.47208,0.28427 0.47208,0.92388 0.0787,0.6396 -0.47208,1.49241 -1.25889,1.98989 -3.69799,4.76152 -2.4391,2.70056 -5.19293,5.25899 -2.75382,2.48736 -5.42897,4.26404 -2.59645,1.77669 -4.24875,1.84776 -1.33758,0.0711 -2.67514,-0.42641 -1.2589,-0.4264 -2.36042,-1.20815 -1.02286,-0.8528 -1.73099,-1.91882 -0.70812,-1.13707 -0.7868,-2.34522 -0.23604,-1.77669 0,-4.83258 0.23604,-3.12697 0.86549,-6.325 0.62944,-3.26911 1.57361,-6.18287 1.02285,-2.91376 2.28174,-4.33511 z" />
    <path
       inkscape:connector-curvature="0"
       id="path8512"
       style="font-style:normal;font-variant:normal;font-weight:normal;font-stretch:normal;font-size:72.77303314px;line-height:125%;font-family:Satisfy;-inkscape-font-specification:'Satisfy, Normal';text-align:start;letter-spacing:0px;word-spacing:0px;writing-mode:lr-tb;text-anchor:start;fill:#d4aa00;fill-opacity:0.99215686;stroke:none;stroke-width:1px;stroke-linecap:butt;stroke-linejoin:miter;stroke-opacity:1"
       d="m 375.02249,665.06045 q -0.86549,1.06601 -1.88834,2.13203 -1.02284,1.06601 -2.20306,1.91882 -1.18021,0.85281 -2.51778,1.35028 -1.33757,0.56854 -2.83251,0.56854 -3.69799,0 -5.74369,-1.35028 -2.04569,-1.35029 -3.06854,-3.19804 -0.94417,-1.84775 -1.10153,-3.76657 -0.23605,-1.98989 -0.23605,-3.19804 0,-3.2691 1.41626,-6.60926 1.41625,-3.41124 3.77667,-6.18287 2.36043,-2.77163 5.35029,-4.47725 3.06855,-1.77668 6.21577,-1.77668 1.96702,0 3.30459,0.78174 1.33757,0.71067 2.20306,1.77668 0.86549,1.06602 1.25889,2.27416 0.47209,1.20815 0.62945,2.13202 0.15737,-0.8528 0.31472,-1.77668 0.15736,-0.78174 0.31473,-1.70562 0.15735,-0.92388 0.31472,-1.77668 0.47208,-0.35534 1.02285,-0.56854 0.62944,-0.21321 1.25888,-0.35534 0.70813,-0.14214 1.41626,-0.2132 0.70812,0 1.33757,0.0711 1.25889,0.14214 1.73098,0.78175 -2.20306,6.5382 -3.14723,9.8073 -0.55076,1.84775 -0.86549,3.19803 -0.31472,0.99495 -0.94417,3.0559 -0.55076,2.06096 -1.33757,4.76152 -0.7868,2.70056 -1.65229,5.82753 -0.86549,3.0559 -1.6523,6.04073 1.73098,-1.56349 3.698,-3.34017 2.04569,-1.77669 4.0914,-3.69551 2.04569,-1.91882 4.0127,-3.9087 2.04571,-2.06096 3.77668,-4.05085 1.02286,-1.13708 1.73097,-1.42135 0.78682,-0.28427 1.10154,0.0711 0.31472,0.28427 0.15736,1.06601 -0.0787,0.71068 -0.78681,1.56349 -1.25889,1.56348 -2.75382,3.34016 -1.49493,1.70562 -3.14723,3.48231 -1.57362,1.70562 -3.22591,3.41123 -1.6523,1.70562 -3.14723,3.12697 -1.57362,1.42135 -3.46194,2.98483 -1.88834,1.63455 -3.698,3.76657 -0.31472,1.35029 -0.55077,2.4163 -0.15736,1.06601 -0.31471,1.91882 -0.39341,2.48736 -0.55078,4.19297 -0.0787,1.77669 -0.0787,3.0559 0,1.35028 0.0787,2.4163 0.0787,1.13707 0.0787,2.34522 0.0787,2.55843 -0.23604,3.55337 -0.23604,0.99494 -1.80966,0.99494 -0.78681,0 -2.0457,-0.6396 -1.25888,-0.63961 -2.43909,-1.77669 -1.18022,-1.13708 -2.04571,-2.77163 -0.7868,-1.63455 -0.7868,-3.6955 0,-2.70056 1.18021,-5.33006 1.18021,-2.55843 3.14723,-5.04579 0.55076,-1.77668 1.18021,-3.97977 0.70812,-2.20309 1.41625,-4.54831 0.70813,-2.27416 1.41625,-4.61939 0.70813,-2.34522 1.33757,-4.40618 z m -12.82496,-3.62443 q 0,2.06095 0.55077,3.19803 0.62944,1.13708 1.41626,1.70562 0.86548,0.49747 1.73097,0.56854 0.86548,0.0711 1.41625,0.0711 1.6523,0 3.22591,-1.20814 1.57362,-1.27922 2.8325,-3.12697 1.33758,-1.84775 2.28175,-3.97977 1.02285,-2.20309 1.49493,-4.05085 0.23604,-1.06601 0.3934,-1.91882 0.23604,-0.85281 0.3934,-1.42135 -1.49493,0.14214 -2.0457,-0.56853 -0.55076,-0.71068 -0.62944,-2.48736 0,-0.71068 -0.15736,-1.49242 -0.15736,-0.85281 -0.55076,-1.49242 -0.39341,-0.71067 -1.02285,-1.13707 -0.62945,-0.42641 -1.57362,-0.42641 -2.04569,0 -3.85535,1.70562 -1.73098,1.70562 -3.06855,4.33511 -1.33757,2.6295 -2.12438,5.75646 -0.70813,3.12697 -0.70813,5.96967 z" />
    <path
       inkscape:connector-curvature="0"
       id="path8514"
       style="font-style:normal;font-variant:normal;font-weight:normal;font-stretch:normal;font-size:72.77303314px;line-height:125%;font-family:Satisfy;-inkscape-font-specification:'Satisfy, Normal';text-align:start;letter-spacing:0px;word-spacing:0px;writing-mode:lr-tb;text-anchor:start;fill:#d4aa00;fill-opacity:0.99215686;stroke:none;stroke-width:1px;stroke-linecap:butt;stroke-linejoin:miter;stroke-opacity:1"
       d="m 403.03282,669.96411 q -2.98987,0 -4.87819,-0.85281 -1.88834,-0.85281 -2.98988,-2.06096 -1.02284,-1.27921 -1.49493,-2.70056 -0.3934,-1.49242 -0.3934,-2.70056 0,-2.13203 0.3934,-4.47725 0.39341,-2.41629 0.94417,-4.40618 0.55076,-2.06095 0.94417,-3.4823 0.47208,-1.42135 0.62944,-1.77669 0.70813,-2.06095 1.80966,-3.55337 1.18021,-1.56348 3.2259,-2.13202 0.78682,-0.14214 1.6523,-0.28427 0.70813,-0.0711 1.41625,-0.0711 0.78682,0 1.41626,0.2132 -2.12438,4.90366 -3.38327,8.17276 -1.18021,3.2691 -1.80965,5.33005 -0.70813,2.34523 -0.86549,3.76658 -0.39341,3.19803 0.62945,4.83258 1.02284,1.63455 4.17007,1.63455 2.04569,0 3.93403,-1.35028 1.88834,-1.42135 3.46196,-3.62444 -0.23605,-1.13708 -0.23605,-2.34522 0,-2.27416 0.39341,-4.40618 0.47207,-2.20309 1.02285,-4.05085 0.62944,-1.91882 1.25889,-3.41123 0.70812,-1.49242 1.18021,-2.34523 0.86549,-1.70561 1.57361,-2.06095 0.70813,-0.42641 2.28174,-0.49747 0.62945,-0.0711 1.02285,0 0.47208,0 0.78681,0.0711 0.94417,0.21321 0.94417,0.85281 0,1.13708 -0.15737,3.41124 -0.15736,2.27416 -0.94416,4.69045 -0.55077,1.98989 -1.10154,3.41123 -0.47208,1.35029 -0.94417,2.34523 -0.47207,0.92388 -0.94417,1.56348 -0.47207,0.56854 -0.86548,1.06601 0.15737,2.13203 0.39341,3.41124 0.23604,1.27921 0.55076,1.98989 0.39341,0.6396 0.86548,0.92387 0.55077,0.21321 1.18021,0.21321 1.10154,0 2.59647,-0.92388 1.49493,-0.99494 3.06855,-2.41629 1.65229,-1.49242 3.22591,-3.19804 1.65229,-1.77668 2.98986,-3.34017 1.33758,-1.56348 2.28175,-2.70056 0.94417,-1.20814 1.18021,-1.49241 0.55076,-0.63961 1.02285,-0.78174 0.55076,-0.14214 0.86548,0.14213 0.31473,0.2132 0.31473,0.78174 0.0787,0.49747 -0.31473,1.13708 -1.57361,2.70056 -3.93403,5.75646 -2.28175,2.98483 -4.95689,5.54326 -2.59646,2.55843 -5.27161,4.26404 -2.67514,1.70562 -5.03556,1.70562 -2.12438,0 -3.38327,-1.27921 -1.18021,-1.35028 -2.04569,-3.83764 -1.80966,2.55843 -4.24876,3.97977 -2.4391,1.35029 -5.42898,1.35029 z" />
    <path
       inkscape:connector-curvature="0"
       id="path8516"
       style="font-style:normal;font-variant:normal;font-weight:normal;font-stretch:normal;font-size:72.77303314px;line-height:125%;font-family:Satisfy;-inkscape-font-specification:'Satisfy, Normal';text-align:start;letter-spacing:0px;word-spacing:0px;writing-mode:lr-tb;text-anchor:start;fill:#d4aa00;fill-opacity:0.99215686;stroke:none;stroke-width:1px;stroke-linecap:butt;stroke-linejoin:miter;stroke-opacity:1"
       d="m 466.71787,654.42 q -2.36042,3.12697 -5.35029,6.1118 -2.98987,2.91377 -6.37313,5.25899 -3.3046,2.27416 -6.84523,3.69551 -3.46195,1.42134 -6.76654,1.42134 -1.73097,0 -3.77667,-0.78174 -1.96702,-0.71067 -3.61931,-2.27415 -1.6523,-1.56349 -2.67515,-4.05085 -0.94417,-2.48736 -0.55077,-6.04073 0.31473,-2.91376 1.96703,-6.1118 1.73097,-3.2691 4.17007,-5.96966 2.51779,-2.70056 5.58633,-4.47725 3.14722,-1.77668 6.29446,-1.77668 2.98986,0 4.32744,1.35028 1.33756,1.35028 1.18021,3.34017 -0.23604,2.20309 -1.41625,4.05084 -1.10154,1.84775 -2.67515,3.34017 -1.57361,1.49242 -3.38328,2.70056 -1.73097,1.20815 -3.30458,2.20309 -1.73098,1.06601 -3.30459,2.06096 -1.57362,0.92387 -2.75383,1.70561 0.0787,1.77669 0.70813,2.98484 0.62945,1.20814 1.57362,1.98988 0.94417,0.71068 2.12438,1.06601 1.25889,0.28427 2.51777,0.28427 2.67515,0 5.58634,-1.49241 2.91119,-1.56348 5.665,-3.69551 2.83251,-2.20309 5.19293,-4.54831 2.4391,-2.34523 4.01272,-4.05084 0.55076,-0.56854 1.10153,-0.63961 0.62945,-0.14214 0.94417,0.14213 0.3934,0.21321 0.3934,0.85281 0,0.56854 -0.55076,1.35028 z M 446.5756,643.47562 q -0.94417,0 -2.28173,0.85281 -1.25889,0.85281 -2.51779,2.48736 -1.25889,1.56348 -2.36041,3.90871 -1.10154,2.27416 -1.6523,5.25899 0.94417,-0.63961 2.04569,-1.27922 1.10154,-0.71067 2.20306,-1.49241 3.38328,-2.34523 4.72085,-4.12191 1.33757,-1.77669 1.49493,-3.0559 0.15736,-1.35028 -0.31472,-1.91882 -0.47209,-0.63961 -1.33758,-0.63961 z" />
    <path
       style="fill:#d3a900;fill-rule:evenodd;stroke:none;stroke-width:1px;stroke-linecap:butt;stroke-linejoin:miter;stroke-opacity:1;fill-opacity:1"
       d="m 226.67192,666.76803 c 0,0 5.87782,3.57973 10.16466,3.13779 4.28683,-0.44194 -3.88909,1.72357 -3.88909,1.72357 l -6.89429,-3.93328 z"
       id="path8688"
       inkscape:connector-curvature="0" />
  </g>
</svg>
