<?xml version="1.0" encoding="UTF-8" standalone="no"?>
<!-- Created with Inkscape (http://www.inkscape.org/) -->

<svg
   xmlns:dc="http://purl.org/dc/elements/1.1/"
   xmlns:cc="http://creativecommons.org/ns#"
   xmlns:rdf="http://www.w3.org/1999/02/22-rdf-syntax-ns#"
   xmlns:svg="http://www.w3.org/2000/svg"
   xmlns="http://www.w3.org/2000/svg"
   xmlns:sodipodi="http://sodipodi.sourceforge.net/DTD/sodipodi-0.dtd"
   xmlns:inkscape="http://www.inkscape.org/namespaces/inkscape"
   width="210mm"
   height="297mm"
   viewBox="0 0 744.09448819 1052.3622047"
   id="svg13272"
   version="1.1"
   inkscape:version="0.91 r13725"
   sodipodi:docname="tridoshic-oil-cleanser.svg">
  <defs
     id="defs13274" />
  <sodipodi:namedview
     id="base"
     pagecolor="#ffffff"
     bordercolor="#666666"
     borderopacity="1.0"
     inkscape:pageopacity="0.0"
     inkscape:pageshadow="2"
     inkscape:zoom="0.35"
     inkscape:cx="573.57143"
     inkscape:cy="520"
     inkscape:document-units="px"
     inkscape:current-layer="layer1"
     showgrid="false"
     inkscape:window-width="1280"
     inkscape:window-height="755"
     inkscape:window-x="0"
     inkscape:window-y="1"
     inkscape:window-maximized="1" />
  <metadata
     id="metadata13277">
    <rdf:RDF>
      <cc:Work
         rdf:about="">
        <dc:format>image/svg+xml</dc:format>
        <dc:type
           rdf:resource="http://purl.org/dc/dcmitype/StillImage" />
        <dc:title></dc:title>
      </cc:Work>
    </rdf:RDF>
  </metadata>
  <g
     inkscape:label="Layer 1"
     inkscape:groupmode="layer"
     id="layer1">
    <g
       transform="matrix(0.45655151,0,0,0.45655151,-1500.3251,-1437.9277)"
       id="g7427">
      <text
         xml:space="preserve"
         style="font-style:normal;font-variant:normal;font-weight:normal;font-stretch:normal;font-size:30.38459206px;line-height:125%;font-family:Avenir;-inkscape-font-specification:'Avenir, Normal';text-align:start;letter-spacing:0px;word-spacing:0px;writing-mode:lr-tb;text-anchor:start;fill:#000000;fill-opacity:1;stroke:none;stroke-width:1.39999998;stroke-linecap:butt;stroke-linejoin:miter;stroke-miterlimit:4;stroke-dasharray:none;stroke-opacity:1"
         x="4190.5088"
         y="3935.125"
         id="text5436"
         sodipodi:linespacing="125%"><tspan
           y="3935.125"
           x="4190.5088"
           sodipodi:role="line"
           id="tspan4887"><tspan
   style="font-style:normal;font-variant:normal;font-weight:800;font-stretch:normal;font-size:30.38459206px;line-height:125%;font-family:Avenir;-inkscape-font-specification:'Avenir, Ultra-Bold';text-align:start;writing-mode:lr-tb;text-anchor:start"
   id="tspan4895">Ingredients:</tspan> Grapeseed Oil, Olive Oil, </tspan><tspan
           y="3973.1057"
           x="4190.5088"
           sodipodi:role="line"
           id="tspan4889">Aloe Vera, Essential Oil of: Lemon, </tspan><tspan
           y="4011.0864"
           x="4190.5088"
           sodipodi:role="line"
           id="tspan4891">Sweet Orange</tspan><tspan
           y="4049.0671"
           x="4190.5088"
           sodipodi:role="line"
           id="tspan4893" /></text>
      <text
         sodipodi:linespacing="125%"
         id="text5476"
         style="font-style:normal;font-variant:normal;font-weight:normal;font-stretch:normal;font-size:65.51712799px;line-height:125%;font-family:Allura;-inkscape-font-specification:'Allura, Normal';text-align:center;letter-spacing:0px;word-spacing:0px;writing-mode:lr-tb;text-anchor:middle;fill:#d4aa00;fill-opacity:1;stroke:none;stroke-width:1px;stroke-linecap:butt;stroke-linejoin:miter;stroke-opacity:1"
         xml:space="preserve"
         y="4297.9697"
         x="3723.2883"><tspan
           style="font-style:normal;font-variant:normal;font-weight:normal;font-stretch:normal;font-size:65.51873016px;line-height:125%;font-family:Avenir;-inkscape-font-specification:'Avenir, Normal';text-align:center;writing-mode:lr-tb;text-anchor:middle;fill:#d4aa00;fill-opacity:1"
           y="4297.9697"
           x="3732.374"
           sodipodi:role="line"
           id="tspan5478">Tridoshic Oil Cleanser </tspan></text>
      <text
         xml:space="preserve"
         style="font-style:normal;font-weight:normal;font-size:29.7531395px;line-height:125%;font-family:sans-serif;letter-spacing:0px;word-spacing:0px;fill:#000000;fill-opacity:1;stroke:none;stroke-width:1px;stroke-linecap:butt;stroke-linejoin:miter;stroke-opacity:1"
         x="3720.0481"
         y="4574.2886"
         id="text5480"
         sodipodi:linespacing="125%"><tspan
           id="tspan5482"
           sodipodi:role="line"
           x="3720.0481"
           y="4574.2886"
           style="font-style:normal;font-variant:normal;font-weight:normal;font-stretch:normal;font-size:29.75346947px;line-height:125%;font-family:Avenir;-inkscape-font-specification:'Avenir, Normal';text-align:center;writing-mode:lr-tb;text-anchor:middle;fill:#000000;fill-opacity:1">1 fl.oz./30ml</tspan></text>
      <text
         sodipodi:linespacing="125%"
         id="text5484"
         style="font-style:normal;font-variant:normal;font-weight:normal;font-stretch:normal;font-size:36.47436523px;line-height:125%;font-family:Allura;-inkscape-font-specification:'Allura, Normal';text-align:center;letter-spacing:0px;word-spacing:0px;writing-mode:lr-tb;text-anchor:middle;fill:#000000;fill-opacity:1;stroke:none;stroke-width:1px;stroke-linecap:butt;stroke-linejoin:miter;stroke-opacity:1"
         xml:space="preserve"
         y="4409.4893"
         x="3731.1807"><tspan
           style="font-style:normal;font-variant:normal;font-weight:normal;font-stretch:normal;font-size:36.47525787px;line-height:125%;font-family:Avenir;-inkscape-font-specification:'Avenir, Normal';text-align:center;writing-mode:lr-tb;text-anchor:middle;fill:#000000;fill-opacity:1"
           y="4409.4893"
           x="3731.1807"
           sodipodi:role="line"
           id="tspan5488">All-Natural Ayurveda</tspan><tspan
           style="font-style:normal;font-variant:normal;font-weight:normal;font-stretch:normal;font-size:36.47525787px;line-height:125%;font-family:Avenir;-inkscape-font-specification:'Avenir, Normal';text-align:center;writing-mode:lr-tb;text-anchor:middle;fill:#000000;fill-opacity:1"
           y="4455.0835"
           x="3731.1807"
           sodipodi:role="line"
           id="tspan5656">Normal to Dry Skin</tspan></text>
      <text
         xml:space="preserve"
         style="font-style:normal;font-variant:normal;font-weight:200;font-stretch:normal;font-size:69.85847473px;line-height:125%;font-family:'.HeitiUI J';-inkscape-font-specification:'.HeitiUI J, Ultra-Light';text-align:start;letter-spacing:0px;word-spacing:0px;writing-mode:lr-tb;text-anchor:start;fill:#000000;fill-opacity:1;stroke:none;stroke-width:1px;stroke-linecap:butt;stroke-linejoin:miter;stroke-opacity:1"
         x="3470.3606"
         y="3999.7246"
         id="text5490"
         sodipodi:linespacing="125%"><tspan
           sodipodi:role="line"
           id="tspan5492"
           x="3470.3606"
           y="3999.7246">YOGIC BEAUTY</tspan></text>
      <path
         style="fill:#d4aa00;fill-rule:evenodd;stroke:none;stroke-width:1px;stroke-linecap:butt;stroke-linejoin:miter;stroke-opacity:1"
         d="m 3720.1095,4085.8877 c 0.061,0.076 0.1246,0.1604 0.1842,0.2364 -7.4182,3.0663 -15.8306,9.7303 -21.1755,19.9267 -0.1051,0.2012 -0.2078,0.4023 -0.3099,0.6047 -4.909,9.787 -5.3734,19.9876 -3.2244,27.6633 -1.6461,-1.5893 -3.4894,-3.1073 -5.593,-4.4958 -3.2225,-2.1222 -6.9685,-3.8466 -11.0262,-5.0714 -4.8674,-1.4576 -9.9492,-2.1552 -14.738,-2.3621 -0.8696,-0.036 -1.7303,-0.061 -2.5837,-0.07 -5.9738,-0.066 -11.5203,0.5201 -16.1954,1.278 l -2.3816,0.3506 c -9e-4,5.8592 0.8511,13.4041 4.3214,21.0417 1.6974,3.7562 4.1254,7.5829 7.5638,11.142 -1.3734,-0.3203 -2.7917,-0.5506 -4.2497,-0.6635 -8.2263,-0.1221 -16.6014,3.3088 -24.4145,8.4784 6.4309,7.336 14.0236,14.3294 22.8056,19.6186 0.036,0.018 0.073,0.036 0.1106,0.055 7.7548,3.8416 16.1714,6.1273 24.6426,6.4994 8.8184,0.3701 17.2359,-1.3617 24.5971,-4.3524 8.9759,-3.6526 16.2934,-9.0051 21.9154,-14.2881 5.5503,5.2312 12.8068,10.5661 21.7378,14.2196 7.3311,2.9943 15.7388,4.7453 24.5694,4.3867 8.4956,-0.361 16.9547,-2.6515 24.7567,-6.5222 0.3744,-0.2243 0.7465,-0.4521 1.1167,-0.683 8.3091,-5.1863 15.5364,-11.8918 21.7101,-18.9373 -7.7911,-5.171 -16.1721,-8.6381 -24.4373,-8.5516 -1.4102,0.1063 -2.784,0.3239 -4.1177,0.6244 3.3795,-3.5264 5.7739,-7.3107 7.4529,-11.0263 3.4704,-7.6377 4.3224,-15.1826 4.3215,-21.0417 l -2.3816,-0.3506 c -4.6751,-0.7581 -10.2216,-1.3444 -16.1953,-1.2781 -0.8534,0.012 -1.7142,0.03 -2.5838,0.07 -4.7888,0.2066 -9.8706,0.9045 -14.738,2.3621 -4.0577,1.2248 -7.8037,2.9491 -11.0262,5.0713 -2.1363,1.4102 -4.0029,2.9546 -5.668,4.5709 2.2553,-7.7334 1.8217,-18.2012 -3.3238,-28.2208 -0.018,-0.043 -0.043,-0.082 -0.064,-0.1222 -5.248,-10.0922 -13.5277,-16.7923 -20.9634,-19.9805 0.018,-0.024 0.036,-0.049 0.055,-0.07 -0.036,0.012 -0.073,0.03 -0.1094,0.049 -0.1204,-0.049 -0.2419,-0.1106 -0.3622,-0.1598 z"
         id="path5494"
         inkscape:connector-curvature="0" />
      <path
         inkscape:connector-curvature="0"
         id="path5496"
         d="m 3547.3036,4359.9182 c -6.9576,0 -12.5576,4.2368 -12.5576,9.5003 l 0,106.9151 c 0,5.2634 5.6,9.4999 12.5576,9.4999 l 364.7035,0 c 6.9576,0 12.5576,-4.2365 12.5576,-9.4999 l 0,-106.9151 c 0,-5.2635 -5.6,-9.5003 -12.5576,-9.5003 l -364.7035,0 z m 1.0597,1.3377 362.5842,0 c 6.8096,0 12.2914,4.1471 12.2914,9.2988 l 0,104.6426 c 0,5.1517 -5.4818,9.2989 -12.2914,9.2989 l -362.5842,0 c -6.8097,0 -12.2915,-4.1472 -12.2915,-9.2989 l 0,-104.6426 c 0,-5.1517 5.4818,-9.2988 12.2915,-9.2988 z"
         style="opacity:1;fill:#000000;fill-opacity:1;stroke:none;stroke-width:35;stroke-miterlimit:4;stroke-dasharray:none;stroke-opacity:1" />
      <rect
         style="opacity:1;fill:none;fill-opacity:1;stroke:#d4aa00;stroke-width:12.1538372;stroke-linecap:round;stroke-linejoin:round;stroke-miterlimit:4;stroke-dasharray:none;stroke-opacity:1"
         id="rect5498"
         width="723.51727"
         height="856.04279"
         x="3358.5098"
         y="3837.5056"
         ry="46.809715" />
      <rect
         ry="46.809715"
         y="3837.5056"
         x="4142.5337"
         height="856.04279"
         width="723.51727"
         id="rect5500"
         style="opacity:1;fill:none;fill-opacity:1;stroke:#d4aa00;stroke-width:12.1538372;stroke-linecap:round;stroke-linejoin:round;stroke-miterlimit:4;stroke-dasharray:none;stroke-opacity:1" />
      <g
         transform="matrix(1.0148904,0,0,1.0148904,1745.3133,2028.4732)"
         id="g6553">
        <text
           sodipodi:linespacing="125%"
           id="text6555"
           y="1996.6639"
           x="2407.793"
           style="font-style:normal;font-variant:normal;font-weight:300;font-stretch:normal;font-size:29.93919373px;line-height:125%;font-family:Avenir;-inkscape-font-specification:'Avenir, Light';text-align:start;letter-spacing:0px;word-spacing:0px;writing-mode:lr-tb;text-anchor:start;fill:#000000;fill-opacity:1;stroke:none;stroke-width:1px;stroke-linecap:butt;stroke-linejoin:miter;stroke-opacity:1"
           xml:space="preserve"><tspan
             y="1996.6639"
             x="2407.793"
             id="tspan6863"
             sodipodi:role="line"><tspan
   id="tspan6875"
   style="font-style:normal;font-variant:normal;font-weight:900;font-stretch:normal;font-size:29.93919373px;line-height:125%;font-family:Avenir;-inkscape-font-specification:'Avenir, Heavy';text-align:start;writing-mode:lr-tb;text-anchor:start">Directions:</tspan> Take a few drops of Tridoshic</tspan><tspan
             y="2034.0879"
             x="2407.793"
             id="tspan6865"
             sodipodi:role="line">Oil Cleanser and work the oil into the face for</tspan><tspan
             y="2071.512"
             x="2407.793"
             id="tspan6867"
             sodipodi:role="line">up to a minute for gentle exfoliatiion and</tspan><tspan
             y="2108.936"
             x="2407.793"
             id="tspan6869"
             sodipodi:role="line">cleansing. Rinse with lukewarm water. Pat</tspan><tspan
             y="2146.3599"
             x="2407.793"
             id="tspan6871"
             sodipodi:role="line">excess oil off.</tspan><tspan
             y="2183.7839"
             x="2407.793"
             id="tspan6873"
             sodipodi:role="line" /></text>
        <text
           sodipodi:linespacing="125%"
           id="text6569"
           y="2378.0681"
           x="2717.3811"
           style="font-style:normal;font-variant:normal;font-weight:normal;font-stretch:normal;font-size:22.78817558px;line-height:125%;font-family:sans-serif;-inkscape-font-specification:'sans-serif, Normal';text-align:center;letter-spacing:0px;word-spacing:0px;writing-mode:lr-tb;text-anchor:middle;fill:#000000;fill-opacity:1;stroke:none;stroke-width:1px;stroke-linecap:butt;stroke-linejoin:miter;stroke-opacity:1"
           xml:space="preserve"><tspan
             id="tspan6571"
             sodipodi:role="line"
             x="2721.0085"
             y="2378.0681">Manufactured for Kimberly Beauty LLC </tspan><tspan
             id="tspan6573"
             sodipodi:role="line"
             x="2717.3811"
             y="2406.5532">San Francisco, CA</tspan><tspan
             id="tspan6575"
             sodipodi:role="line"
             x="2717.3811"
             y="2435.0386">www.yogiquesf.com</tspan></text>
        <text
           xml:space="preserve"
           style="font-style:normal;font-variant:normal;font-weight:normal;font-stretch:normal;font-size:22.78844452px;line-height:125%;font-family:sans-serif;-inkscape-font-specification:'sans-serif, Normal';text-align:center;letter-spacing:0px;word-spacing:0px;writing-mode:lr-tb;text-anchor:middle;fill:#000000;fill-opacity:1;stroke:none;stroke-width:1px;stroke-linecap:butt;stroke-linejoin:miter;stroke-opacity:1"
           x="2719.156"
           y="2501.4485"
           id="text6577"
           sodipodi:linespacing="125%"><tspan
             id="tspan6579"
             sodipodi:role="line"
             x="2719.156"
             y="2501.4485"
             style="font-style:normal;font-variant:normal;font-weight:normal;font-stretch:normal;font-size:22.78844452px;line-height:125%;font-family:sans-serif;-inkscape-font-specification:'sans-serif, Normal';text-align:center;writing-mode:lr-tb;text-anchor:middle;fill:#000000;fill-opacity:1">Warning: Safety of this product not determined</tspan></text>
      </g>
    </g>
  </g>
</svg>
