<?xml version="1.0" encoding="UTF-8" standalone="no"?>
<!-- Created with Inkscape (http://www.inkscape.org/) -->

<svg
   xmlns:dc="http://purl.org/dc/elements/1.1/"
   xmlns:cc="http://creativecommons.org/ns#"
   xmlns:rdf="http://www.w3.org/1999/02/22-rdf-syntax-ns#"
   xmlns:svg="http://www.w3.org/2000/svg"
   xmlns="http://www.w3.org/2000/svg"
   xmlns:sodipodi="http://sodipodi.sourceforge.net/DTD/sodipodi-0.dtd"
   xmlns:inkscape="http://www.inkscape.org/namespaces/inkscape"
   width="210mm"
   height="297mm"
   viewBox="0 0 744.09448819 1052.3622047"
   id="svg12586"
   version="1.1"
   inkscape:version="0.91 r13725"
   sodipodi:docname="tridoshic-herbal-pack.svg">
  <defs
     id="defs12588" />
  <sodipodi:namedview
     id="base"
     pagecolor="#ffffff"
     bordercolor="#666666"
     borderopacity="1.0"
     inkscape:pageopacity="0.0"
     inkscape:pageshadow="2"
     inkscape:zoom="0.35"
     inkscape:cx="-112.14286"
     inkscape:cy="520"
     inkscape:document-units="px"
     inkscape:current-layer="layer1"
     showgrid="false"
     inkscape:window-width="1280"
     inkscape:window-height="755"
     inkscape:window-x="0"
     inkscape:window-y="1"
     inkscape:window-maximized="1" />
  <metadata
     id="metadata12591">
    <rdf:RDF>
      <cc:Work
         rdf:about="">
        <dc:format>image/svg+xml</dc:format>
        <dc:type
           rdf:resource="http://purl.org/dc/dcmitype/StillImage" />
        <dc:title></dc:title>
      </cc:Work>
    </rdf:RDF>
  </metadata>
  <g
     inkscape:label="Layer 1"
     inkscape:groupmode="layer"
     id="layer1">
    <g
       transform="matrix(0.46125017,0,0,0.46125017,-1519.6472,-998.10554)"
       id="g7390">
      <text
         sodipodi:linespacing="125%"
         id="text5504"
         y="2907.1575"
         x="4190.5088"
         style="font-style:normal;font-variant:normal;font-weight:normal;font-stretch:normal;font-size:30.38500023px;line-height:125%;font-family:Avenir;-inkscape-font-specification:'Avenir, Normal';text-align:start;letter-spacing:0px;word-spacing:0px;writing-mode:lr-tb;text-anchor:start;fill:#000000;fill-opacity:1;stroke:none;stroke-width:1.39999998;stroke-linecap:butt;stroke-linejoin:miter;stroke-miterlimit:4;stroke-dasharray:none;stroke-opacity:1"
         xml:space="preserve"><tspan
           y="2907.1575"
           x="4190.5088"
           id="tspan6877"
           sodipodi:role="line"><tspan
   id="tspan6889"
   style="font-style:normal;font-variant:normal;font-weight:800;font-stretch:normal;font-size:30.38500023px;line-height:125%;font-family:Avenir;-inkscape-font-specification:'Avenir, Ultra-Bold';text-align:start;writing-mode:lr-tb;text-anchor:start">Ingredients:</tspan> Moong Bean Powder, Licorice,</tspan><tspan
           y="2945.1387"
           x="4190.5088"
           id="tspan6879"
           sodipodi:role="line">Anantamool (Indian Sarsaparilla), Aloe Vera,</tspan><tspan
           y="2983.1199"
           x="4190.5088"
           id="tspan6881"
           sodipodi:role="line">Musta (Cyperus rotundus), Lodhra (Symplocos </tspan><tspan
           y="3021.1013"
           x="4190.5088"
           id="tspan6883"
           sodipodi:role="line">racemosa), Manjistha (Rubia cordifolia), </tspan><tspan
           y="3059.0825"
           x="4190.5088"
           id="tspan6885"
           sodipodi:role="line">Priyangu (Aglaia elaeagnoidea), Turmeric,</tspan><tspan
           y="3097.0637"
           x="4190.5088"
           id="tspan6887"
           sodipodi:role="line">Saffron, Clay, Orange Peel</tspan></text>
      <text
         x="3723.2883"
         y="3270.0022"
         xml:space="preserve"
         style="font-style:normal;font-variant:normal;font-weight:normal;font-stretch:normal;font-size:65.51712799px;line-height:125%;font-family:Allura;-inkscape-font-specification:'Allura, Normal';text-align:center;letter-spacing:0px;word-spacing:0px;writing-mode:lr-tb;text-anchor:middle;fill:#d4aa00;fill-opacity:1;stroke:none;stroke-width:1px;stroke-linecap:butt;stroke-linejoin:miter;stroke-opacity:1"
         id="text5544"
         sodipodi:linespacing="125%"><tspan
           id="tspan5546"
           sodipodi:role="line"
           x="3723.2883"
           y="3270.0022"
           style="font-style:normal;font-variant:normal;font-weight:normal;font-stretch:normal;font-size:65.51873016px;line-height:125%;font-family:Avenir;-inkscape-font-specification:'Avenir, Normal';text-align:center;writing-mode:lr-tb;text-anchor:middle;fill:#d4aa00;fill-opacity:1">Tridoshic Herbal Pack</tspan></text>
      <text
         sodipodi:linespacing="125%"
         id="text5548"
         y="3546.321"
         x="3720.0481"
         style="font-style:normal;font-weight:normal;font-size:29.7531395px;line-height:125%;font-family:sans-serif;letter-spacing:0px;word-spacing:0px;fill:#000000;fill-opacity:1;stroke:none;stroke-width:1px;stroke-linecap:butt;stroke-linejoin:miter;stroke-opacity:1"
         xml:space="preserve"><tspan
           style="font-style:normal;font-variant:normal;font-weight:normal;font-stretch:normal;font-size:29.75346947px;line-height:125%;font-family:Avenir;-inkscape-font-specification:'Avenir, Normal';text-align:center;writing-mode:lr-tb;text-anchor:middle;fill:#000000;fill-opacity:1"
           y="3546.321"
           x="3720.0481"
           sodipodi:role="line"
           id="tspan5550">1 fl.oz./30ml</tspan></text>
      <text
         x="3731.1807"
         y="3381.5217"
         xml:space="preserve"
         style="font-style:normal;font-variant:normal;font-weight:normal;font-stretch:normal;font-size:36.47436523px;line-height:125%;font-family:Allura;-inkscape-font-specification:'Allura, Normal';text-align:center;letter-spacing:0px;word-spacing:0px;writing-mode:lr-tb;text-anchor:middle;fill:#000000;fill-opacity:1;stroke:none;stroke-width:1px;stroke-linecap:butt;stroke-linejoin:miter;stroke-opacity:1"
         id="text5552"
         sodipodi:linespacing="125%"><tspan
           sodipodi:role="line"
           x="3731.1807"
           y="3381.5217"
           style="font-style:normal;font-variant:normal;font-weight:normal;font-stretch:normal;font-size:36.47525787px;line-height:125%;font-family:Avenir;-inkscape-font-specification:'Avenir, Normal';text-align:center;writing-mode:lr-tb;text-anchor:middle;fill:#000000;fill-opacity:1"
           id="tspan5646">All-Natural Ayurveda</tspan><tspan
           sodipodi:role="line"
           x="3731.1807"
           y="3427.1157"
           style="font-style:normal;font-variant:normal;font-weight:normal;font-stretch:normal;font-size:36.47525787px;line-height:125%;font-family:Avenir;-inkscape-font-specification:'Avenir, Normal';text-align:center;writing-mode:lr-tb;text-anchor:middle;fill:#000000;fill-opacity:1"
           id="tspan5650">Combo to Oily Skin</tspan></text>
      <text
         sodipodi:linespacing="125%"
         id="text5558"
         y="2971.7571"
         x="3470.3606"
         style="font-style:normal;font-variant:normal;font-weight:200;font-stretch:normal;font-size:69.85847473px;line-height:125%;font-family:'.HeitiUI J';-inkscape-font-specification:'.HeitiUI J, Ultra-Light';text-align:start;letter-spacing:0px;word-spacing:0px;writing-mode:lr-tb;text-anchor:start;fill:#000000;fill-opacity:1;stroke:none;stroke-width:1px;stroke-linecap:butt;stroke-linejoin:miter;stroke-opacity:1"
         xml:space="preserve"><tspan
           y="2971.7571"
           x="3470.3606"
           id="tspan5560"
           sodipodi:role="line">YOGIC BEAUTY</tspan></text>
      <path
         inkscape:connector-curvature="0"
         id="path5562"
         d="m 3720.1095,3057.9201 c 0.061,0.076 0.1246,0.1604 0.1842,0.2364 -7.4182,3.0663 -15.8306,9.7303 -21.1755,19.9267 -0.1051,0.2012 -0.2078,0.4023 -0.3099,0.6047 -4.909,9.787 -5.3734,19.9876 -3.2244,27.6633 -1.6461,-1.5893 -3.4894,-3.1073 -5.593,-4.4959 -3.2225,-2.1221 -6.9685,-3.8465 -11.0262,-5.0713 -4.8674,-1.4576 -9.9492,-2.1552 -14.738,-2.3621 -0.8696,-0.036 -1.7303,-0.061 -2.5837,-0.07 -5.9738,-0.066 -11.5203,0.5201 -16.1954,1.278 l -2.3816,0.3506 c -9e-4,5.8591 0.8511,13.4041 4.3214,21.0417 1.6974,3.7562 4.1254,7.5829 7.5638,11.142 -1.3734,-0.3203 -2.7917,-0.5506 -4.2497,-0.6635 -8.2263,-0.1221 -16.6014,3.3088 -24.4145,8.4783 6.4309,7.336 14.0236,14.3295 22.8056,19.6186 0.036,0.018 0.073,0.037 0.1106,0.055 7.7548,3.8416 16.1714,6.1273 24.6426,6.4994 8.8184,0.37 17.2359,-1.3617 24.5971,-4.3524 8.9759,-3.6526 16.2934,-9.0051 21.9154,-14.2882 5.5503,5.2313 12.8068,10.5662 21.7378,14.2197 7.3311,2.9943 15.7388,4.7453 24.5694,4.3867 8.4956,-0.361 16.9547,-2.6515 24.7567,-6.5222 0.3744,-0.2243 0.7465,-0.4521 1.1167,-0.683 8.3091,-5.1864 15.5364,-11.8918 21.7101,-18.9373 -7.7911,-5.171 -16.1721,-8.6381 -24.4373,-8.5516 -1.4102,0.1063 -2.784,0.3239 -4.1177,0.6244 3.3795,-3.5264 5.7739,-7.3108 7.4529,-11.0263 3.4704,-7.6377 4.3224,-15.1826 4.3215,-21.0417 l -2.3816,-0.3506 c -4.6751,-0.7581 -10.2216,-1.3444 -16.1953,-1.2781 -0.8534,0.012 -1.7142,0.03 -2.5838,0.07 -4.7888,0.2066 -9.8706,0.9045 -14.738,2.362 -4.0577,1.2249 -7.8037,2.9492 -11.0262,5.0714 -2.1363,1.4102 -4.0029,2.9546 -5.668,4.5709 2.2553,-7.7334 1.8217,-18.2012 -3.3238,-28.2209 -0.018,-0.043 -0.043,-0.081 -0.064,-0.1221 -5.248,-10.0922 -13.5277,-16.7923 -20.9634,-19.9805 0.018,-0.024 0.036,-0.049 0.055,-0.07 -0.036,0.012 -0.073,0.03 -0.1094,0.049 -0.1204,-0.049 -0.2419,-0.1106 -0.3622,-0.1598 z"
         style="fill:#d4aa00;fill-rule:evenodd;stroke:none;stroke-width:1px;stroke-linecap:butt;stroke-linejoin:miter;stroke-opacity:1" />
      <rect
         ry="46.809715"
         y="2809.5381"
         x="3358.5098"
         height="856.04279"
         width="723.51727"
         id="rect5566"
         style="opacity:1;fill:none;fill-opacity:1;stroke:#d4aa00;stroke-width:12.1538372;stroke-linecap:round;stroke-linejoin:round;stroke-miterlimit:4;stroke-dasharray:none;stroke-opacity:1" />
      <rect
         style="opacity:1;fill:none;fill-opacity:1;stroke:#d4aa00;stroke-width:12.1538372;stroke-linecap:round;stroke-linejoin:round;stroke-miterlimit:4;stroke-dasharray:none;stroke-opacity:1"
         id="rect5568"
         width="723.51727"
         height="856.04279"
         x="4142.5337"
         y="2809.5381"
         ry="46.809715" />
      <text
         sodipodi:linespacing="125%"
         id="text6587"
         y="3140.8542"
         x="4190.6909"
         style="font-style:normal;font-variant:normal;font-weight:300;font-stretch:normal;font-size:30.38500023px;line-height:125%;font-family:Avenir;-inkscape-font-specification:'Avenir, Light';text-align:start;letter-spacing:0px;word-spacing:0px;writing-mode:lr-tb;text-anchor:start;fill:#000000;fill-opacity:1;stroke:none;stroke-width:1px;stroke-linecap:butt;stroke-linejoin:miter;stroke-opacity:1"
         xml:space="preserve"><tspan
           y="3140.8542"
           x="4190.6909"
           id="tspan6772"
           sodipodi:role="line"><tspan
   id="tspan6784"
   style="font-style:normal;font-variant:normal;font-weight:800;font-stretch:normal;font-size:30.38500023px;line-height:125%;font-family:Avenir;-inkscape-font-specification:'Avenir, Ultra-Bold';text-align:start;writing-mode:lr-tb;text-anchor:start">Directions:</tspan> Take a small amount of powder. </tspan><tspan
           y="3178.8354"
           x="4190.6909"
           id="tspan6774"
           sodipodi:role="line">Add few drops of water to form a paste. </tspan><tspan
           y="3216.8167"
           x="4190.6909"
           id="tspan6776"
           sodipodi:role="line">Massage into face gently. Rinse clean. </tspan><tspan
           y="3254.7981"
           x="4190.6909"
           id="tspan6778"
           sodipodi:role="line">To use as mask: Add honey, milk and/or </tspan><tspan
           y="3292.7793"
           x="4190.6909"
           id="tspan6780"
           sodipodi:role="line">Yogic Beauty oil (if dry skin). Leave as </tspan><tspan
           y="3330.7605"
           x="4190.6909"
           id="tspan6782"
           sodipodi:role="line">treatment for 15 minutes. Rinse clean. </tspan></text>
      <text
         sodipodi:linespacing="125%"
         id="text6601"
         y="3416.8284"
         x="4503.1572"
         style="font-style:normal;font-variant:normal;font-weight:normal;font-stretch:normal;font-size:23.12750053px;line-height:125%;font-family:sans-serif;-inkscape-font-specification:'sans-serif, Normal';text-align:center;letter-spacing:0px;word-spacing:0px;writing-mode:lr-tb;text-anchor:middle;fill:#000000;fill-opacity:1;stroke:none;stroke-width:1px;stroke-linecap:butt;stroke-linejoin:miter;stroke-opacity:1"
         xml:space="preserve"><tspan
           id="tspan6603"
           sodipodi:role="line"
           x="4506.8389"
           y="3416.8284">Manufactured for Kimberly Beauty LLC </tspan><tspan
           id="tspan6605"
           sodipodi:role="line"
           x="4503.1572"
           y="3445.7378">San Francisco, CA</tspan><tspan
           id="tspan6607"
           sodipodi:role="line"
           x="4503.1572"
           y="3474.6472">www.yogiquesf.com</tspan></text>
      <text
         xml:space="preserve"
         style="font-style:normal;font-variant:normal;font-weight:normal;font-stretch:normal;font-size:23.12777328px;line-height:125%;font-family:sans-serif;-inkscape-font-specification:'sans-serif, Normal';text-align:center;letter-spacing:0px;word-spacing:0px;writing-mode:lr-tb;text-anchor:middle;fill:#000000;fill-opacity:1;stroke:none;stroke-width:1px;stroke-linecap:butt;stroke-linejoin:miter;stroke-opacity:1"
         x="4504.9585"
         y="3542.0459"
         id="text6609"
         sodipodi:linespacing="125%"><tspan
           id="tspan6611"
           sodipodi:role="line"
           x="4504.9585"
           y="3542.0459"
           style="font-style:normal;font-variant:normal;font-weight:normal;font-stretch:normal;font-size:23.12777328px;line-height:125%;font-family:sans-serif;-inkscape-font-specification:'sans-serif, Normal';text-align:center;writing-mode:lr-tb;text-anchor:middle;fill:#000000;fill-opacity:1">Warning: Safety of this product not determined</tspan></text>
      <path
         style="opacity:1;fill:#000000;fill-opacity:1;stroke:none;stroke-width:35;stroke-miterlimit:4;stroke-dasharray:none;stroke-opacity:1"
         d="m 3547.3036,3331.6256 c -6.9576,0 -12.5576,4.2368 -12.5576,9.5003 l 0,106.9151 c 0,5.2634 5.6,9.4999 12.5576,9.4999 l 364.7035,0 c 6.9576,0 12.5576,-4.2365 12.5576,-9.4999 l 0,-106.9151 c 0,-5.2635 -5.6,-9.5003 -12.5576,-9.5003 l -364.7035,0 z m 1.0597,1.3377 362.5842,0 c 6.8096,0 12.2914,4.1471 12.2914,9.2988 l 0,104.6426 c 0,5.1517 -5.4818,9.2989 -12.2914,9.2989 l -362.5842,0 c -6.8097,0 -12.2915,-4.1472 -12.2915,-9.2989 l 0,-104.6426 c 0,-5.1517 5.4818,-9.2988 12.2915,-9.2988 z"
         id="path7079"
         inkscape:connector-curvature="0" />
    </g>
  </g>
</svg>
