<?xml version="1.0" encoding="UTF-8" standalone="no"?>
<!-- Created with Inkscape (http://www.inkscape.org/) -->

<svg
   xmlns:dc="http://purl.org/dc/elements/1.1/"
   xmlns:cc="http://creativecommons.org/ns#"
   xmlns:rdf="http://www.w3.org/1999/02/22-rdf-syntax-ns#"
   xmlns:svg="http://www.w3.org/2000/svg"
   xmlns="http://www.w3.org/2000/svg"
   xmlns:sodipodi="http://sodipodi.sourceforge.net/DTD/sodipodi-0.dtd"
   xmlns:inkscape="http://www.inkscape.org/namespaces/inkscape"
   width="210mm"
   height="297mm"
   viewBox="0 0 744.09448819 1052.3622047"
   id="svg9794"
   version="1.1"
   inkscape:version="0.91 r13725"
   sodipodi:docname="vata-face-oil.svg">
  <defs
     id="defs9796" />
  <sodipodi:namedview
     id="base"
     pagecolor="#ffffff"
     bordercolor="#666666"
     borderopacity="1.0"
     inkscape:pageopacity="0.0"
     inkscape:pageshadow="2"
     inkscape:zoom="0.35"
     inkscape:cx="573.57143"
     inkscape:cy="291.42857"
     inkscape:document-units="px"
     inkscape:current-layer="layer1"
     showgrid="false"
     inkscape:window-width="1280"
     inkscape:window-height="755"
     inkscape:window-x="350"
     inkscape:window-y="54"
     inkscape:window-maximized="0" />
  <metadata
     id="metadata9799">
    <rdf:RDF>
      <cc:Work
         rdf:about="">
        <dc:format>image/svg+xml</dc:format>
        <dc:type
           rdf:resource="http://purl.org/dc/dcmitype/StillImage" />
        <dc:title></dc:title>
      </cc:Work>
    </rdf:RDF>
  </metadata>
  <g
     inkscape:label="Layer 1"
     inkscape:groupmode="layer"
     id="layer1">
    <g
       transform="matrix(0.44054806,0,0,0.44054806,-649.29697,-483.92629)"
       id="g7279">
      <text
         sodipodi:linespacing="125%"
         id="text4228"
         y="1879.1898"
         x="2421.1147"
         style="font-style:normal;font-variant:normal;font-weight:normal;font-stretch:normal;font-size:30.38459206px;line-height:125%;font-family:Avenir;-inkscape-font-specification:'Avenir, Normal';text-align:start;letter-spacing:0px;word-spacing:0px;writing-mode:lr-tb;text-anchor:start;fill:#000000;fill-opacity:1;stroke:none;stroke-width:1.39999998;stroke-linecap:butt;stroke-linejoin:miter;stroke-miterlimit:4;stroke-dasharray:none;stroke-opacity:1"
         xml:space="preserve"><tspan
           sodipodi:role="line"
           id="tspan4801"
           x="2421.1147"
           y="1879.1898"><tspan
   style="font-style:normal;font-variant:normal;font-weight:800;font-stretch:normal;font-size:30.38459206px;line-height:125%;font-family:Avenir;-inkscape-font-specification:'Avenir, Ultra-Bold';text-align:start;writing-mode:lr-tb;text-anchor:start"
   id="tspan4901">Ingredients:</tspan> Grapeseed Oil, Almond Oil, </tspan><tspan
           sodipodi:role="line"
           id="tspan4803"
           x="2421.1147"
           y="1917.1705">Sesame Oil, Rosehip Oil, Anantamool (Indian </tspan><tspan
           sodipodi:role="line"
           id="tspan4805"
           x="2421.1147"
           y="1955.1512">Sarsaparilla), Licorice, Shatavari (Asparagus </tspan><tspan
           sodipodi:role="line"
           id="tspan4807"
           x="2421.1147"
           y="1993.1321">Racemosus), Gotu Kola (Centella Asiatica), </tspan><tspan
           sodipodi:role="line"
           id="tspan4809"
           x="2421.1147"
           y="2031.1128">Saffron. Essential Oils of: Palmarosa, Rose, </tspan><tspan
           sodipodi:role="line"
           id="tspan4811"
           x="2421.1147"
           y="2069.0935">Sweet Orange, Helichrysum, Usheera</tspan><tspan
           sodipodi:role="line"
           id="tspan4813"
           x="2421.1147"
           y="2107.0742">(Vetiveria Zizaniodes) </tspan><tspan
           sodipodi:role="line"
           id="tspan4815"
           x="2421.1147"
           y="2145.0549" /></text>
      <text
         x="1953.8947"
         y="2242.0347"
         xml:space="preserve"
         style="font-style:normal;font-variant:normal;font-weight:normal;font-stretch:normal;font-size:65.51712799px;line-height:125%;font-family:Allura;-inkscape-font-specification:'Allura, Normal';text-align:center;letter-spacing:0px;word-spacing:0px;writing-mode:lr-tb;text-anchor:middle;fill:#d4aa00;fill-opacity:1;stroke:none;stroke-width:1px;stroke-linecap:butt;stroke-linejoin:miter;stroke-opacity:1"
         id="text4387"
         sodipodi:linespacing="125%"><tspan
           id="tspan4404"
           sodipodi:role="line"
           x="1953.8947"
           y="2242.0347"
           style="font-style:normal;font-variant:normal;font-weight:normal;font-stretch:normal;font-size:65.51873016px;line-height:125%;font-family:Avenir;-inkscape-font-specification:'Avenir, Normal';text-align:center;writing-mode:lr-tb;text-anchor:middle;fill:#d4aa00;fill-opacity:1">Vata Face Oil</tspan></text>
      <text
         sodipodi:linespacing="125%"
         id="text4467"
         y="2518.3533"
         x="1950.6541"
         style="font-style:normal;font-weight:normal;font-size:29.7531395px;line-height:125%;font-family:sans-serif;letter-spacing:0px;word-spacing:0px;fill:#000000;fill-opacity:1;stroke:none;stroke-width:1px;stroke-linecap:butt;stroke-linejoin:miter;stroke-opacity:1"
         xml:space="preserve"><tspan
           style="font-style:normal;font-variant:normal;font-weight:normal;font-stretch:normal;font-size:29.75346947px;line-height:125%;font-family:Avenir;-inkscape-font-specification:'Avenir, Normal';text-align:center;writing-mode:lr-tb;text-anchor:middle;fill:#000000;fill-opacity:1"
           y="2518.3533"
           x="1950.6541"
           sodipodi:role="line"
           id="tspan4471">1 fl.oz./30ml</tspan></text>
      <text
         x="1961.7867"
         y="2353.554"
         xml:space="preserve"
         style="font-style:normal;font-variant:normal;font-weight:normal;font-stretch:normal;font-size:36.47436523px;line-height:125%;font-family:Allura;-inkscape-font-specification:'Allura, Normal';text-align:center;letter-spacing:0px;word-spacing:0px;writing-mode:lr-tb;text-anchor:middle;fill:#000000;fill-opacity:1;stroke:none;stroke-width:1px;stroke-linecap:butt;stroke-linejoin:miter;stroke-opacity:1"
         id="text4391"
         sodipodi:linespacing="125%"><tspan
           id="tspan5202"
           sodipodi:role="line"
           x="1961.7867"
           y="2353.554"
           style="font-style:normal;font-variant:normal;font-weight:normal;font-stretch:normal;font-size:36.47525787px;line-height:125%;font-family:Avenir;-inkscape-font-specification:'Avenir, Normal';text-align:center;writing-mode:lr-tb;text-anchor:middle;fill:#000000;fill-opacity:1">All-Natural Ayurveda</tspan><tspan
           id="tspan5206"
           sodipodi:role="line"
           x="1961.7867"
           y="2399.1479"
           style="font-style:normal;font-variant:normal;font-weight:normal;font-stretch:normal;font-size:36.47525787px;line-height:125%;font-family:Avenir;-inkscape-font-specification:'Avenir, Normal';text-align:center;writing-mode:lr-tb;text-anchor:middle;fill:#000000;fill-opacity:1">Dry Skin/Anti-Aging</tspan></text>
      <text
         sodipodi:linespacing="125%"
         id="text4772"
         y="1943.7893"
         x="1700.9667"
         style="font-style:normal;font-variant:normal;font-weight:200;font-stretch:normal;font-size:69.85847473px;line-height:125%;font-family:'.HeitiUI J';-inkscape-font-specification:'.HeitiUI J, Ultra-Light';text-align:start;letter-spacing:0px;word-spacing:0px;writing-mode:lr-tb;text-anchor:start;fill:#000000;fill-opacity:1;stroke:none;stroke-width:1px;stroke-linecap:butt;stroke-linejoin:miter;stroke-opacity:1"
         xml:space="preserve"><tspan
           y="1943.7893"
           x="1700.9667"
           id="tspan4774"
           sodipodi:role="line">YOGIC BEAUTY</tspan></text>
      <path
         inkscape:connector-curvature="0"
         id="path5136"
         d="m 1950.7157,2029.9524 c 0.061,0.076 0.1246,0.1604 0.1841,0.2364 -7.4181,3.0663 -15.8305,9.7303 -21.1754,19.9267 -0.1051,0.2012 -0.2078,0.4023 -0.3099,0.6047 -4.909,9.787 -5.3735,19.9876 -3.2244,27.6633 -1.6461,-1.5893 -3.4895,-3.1073 -5.593,-4.4959 -3.2225,-2.1221 -6.9685,-3.8465 -11.0262,-5.0713 -4.8674,-1.4576 -9.9492,-2.1552 -14.738,-2.3621 -0.8696,-0.036 -1.7304,-0.061 -2.5838,-0.07 -5.9738,-0.066 -11.5203,0.5202 -16.1953,1.2781 l -2.3817,0.3506 c -8e-4,5.8591 0.8512,13.4041 4.3215,21.0417 1.6973,3.7562 4.1254,7.5829 7.5638,11.142 -1.3734,-0.3203 -2.7918,-0.5506 -4.2498,-0.6635 -8.2263,-0.1221 -16.6014,3.3088 -24.4144,8.4783 6.4309,7.336 14.0235,14.3295 22.8055,19.6186 0.037,0.018 0.074,0.037 0.1106,0.055 7.7548,3.8416 16.1714,6.1273 24.6427,6.4994 8.8184,0.37 17.2359,-1.3617 24.5971,-4.3524 8.9758,-3.6526 16.2933,-9.0051 21.9154,-14.2882 5.5503,5.2313 12.8067,10.5662 21.7378,14.2197 7.3311,2.9943 15.7387,4.7453 24.5694,4.3867 8.4955,-0.361 16.9547,-2.6515 24.7567,-6.5222 0.3744,-0.2243 0.7464,-0.4521 1.1166,-0.683 8.3092,-5.1864 15.5365,-11.8918 21.7101,-18.9373 -7.791,-5.171 -16.172,-8.6381 -24.4373,-8.5516 -1.4101,0.1063 -2.784,0.3239 -4.1177,0.6244 3.3795,-3.5264 5.774,-7.3108 7.453,-11.0263 3.4703,-7.6377 4.3223,-15.1826 4.3215,-21.0417 l -2.3816,-0.3506 c -4.6751,-0.7581 -10.2216,-1.3444 -16.1954,-1.2781 -0.8534,0.012 -1.7142,0.03 -2.5838,0.07 -4.7888,0.2066 -9.8706,0.9045 -14.7379,2.362 -4.0577,1.2249 -7.8037,2.9492 -11.0262,5.0714 -2.1363,1.4102 -4.003,2.9546 -5.668,4.5709 2.2553,-7.7334 1.8217,-18.2012 -3.3239,-28.2209 -0.018,-0.043 -0.043,-0.081 -0.064,-0.1221 -5.248,-10.0922 -13.5278,-16.7924 -20.9635,-19.9805 0.018,-0.024 0.036,-0.049 0.055,-0.07 -0.036,0.012 -0.073,0.03 -0.1094,0.049 -0.1203,-0.049 -0.2418,-0.1106 -0.3622,-0.1598 z"
         style="fill:#d4aa00;fill-rule:evenodd;stroke:none;stroke-width:1px;stroke-linecap:butt;stroke-linejoin:miter;stroke-opacity:1" />
      <path
         style="opacity:1;fill:#000000;fill-opacity:1;stroke:none;stroke-width:35;stroke-miterlimit:4;stroke-dasharray:none;stroke-opacity:1"
         d="m 1777.9098,2303.9829 c -6.9576,0 -12.5577,4.2368 -12.5577,9.5003 l 0,106.9151 c 0,5.2634 5.6001,9.4999 12.5577,9.4999 l 364.7035,0 c 6.9575,0 12.5576,-4.2365 12.5576,-9.4999 l 0,-106.9151 c 0,-5.2635 -5.6001,-9.5003 -12.5576,-9.5003 l -364.7035,0 z m 1.0596,1.3377 362.5842,0 c 6.8097,0 12.2915,4.1471 12.2915,9.2988 l 0,104.6426 c 0,5.1517 -5.4818,9.2988 -12.2915,9.2988 l -362.5842,0 c -6.8097,0 -12.2914,-4.1471 -12.2914,-9.2988 l 0,-104.6426 c 0,-5.1517 5.4817,-9.2988 12.2914,-9.2988 z"
         id="path5176"
         inkscape:connector-curvature="0" />
      <rect
         ry="46.809715"
         y="1781.5704"
         x="1589.116"
         height="856.04279"
         width="723.51727"
         id="rect5189"
         style="opacity:1;fill:none;fill-opacity:1;stroke:#d4aa00;stroke-width:12.1538372;stroke-linecap:round;stroke-linejoin:round;stroke-miterlimit:4;stroke-dasharray:none;stroke-opacity:1" />
      <rect
         style="opacity:1;fill:none;fill-opacity:1;stroke:#d4aa00;stroke-width:12.1538372;stroke-linecap:round;stroke-linejoin:round;stroke-miterlimit:4;stroke-dasharray:none;stroke-opacity:1"
         id="rect5223"
         width="723.51727"
         height="856.04279"
         x="2373.1396"
         y="1781.5704"
         ry="46.809715" />
      <text
         sodipodi:linespacing="125%"
         id="text4246"
         y="2151.4448"
         x="2420.9629"
         style="font-style:normal;font-variant:normal;font-weight:300;font-stretch:normal;font-size:30.38500023px;line-height:125%;font-family:Avenir;-inkscape-font-specification:'Avenir, Light';text-align:start;letter-spacing:0px;word-spacing:0px;writing-mode:lr-tb;text-anchor:start;fill:#000000;fill-opacity:1;stroke:none;stroke-width:1px;stroke-linecap:butt;stroke-linejoin:miter;stroke-opacity:1"
         xml:space="preserve"><tspan
           y="2151.4448"
           x="2420.9629"
           sodipodi:role="line"
           id="tspan6137"><tspan
   style="font-style:normal;font-variant:normal;font-weight:800;font-stretch:normal;font-size:30.38500023px;line-height:125%;font-family:Avenir;-inkscape-font-specification:'Avenir, Ultra-Bold';text-align:start;writing-mode:lr-tb;text-anchor:start"
   id="tspan6147">Directions:</tspan> Wash face with Tridoshic Herbal </tspan><tspan
           y="2189.426"
           x="2420.9629"
           sodipodi:role="line"
           id="tspan6139">Pack or Oil Cleanser. Pat dry. Massage few </tspan><tspan
           y="2227.4072"
           x="2420.9629"
           sodipodi:role="line"
           id="tspan6141">drops of Vata Face Oil onto the face. </tspan><tspan
           y="2265.3887"
           x="2420.9629"
           sodipodi:role="line"
           id="tspan6143">Allow at least 10 minutes to absorb fully. </tspan><tspan
           y="2303.3699"
           x="2420.9629"
           sodipodi:role="line"
           id="tspan6145">Either leave oil or blot excess from face.</tspan></text>
      <text
         sodipodi:linespacing="125%"
         id="text4352"
         y="2388.8606"
         x="2733.7634"
         style="font-style:normal;font-variant:normal;font-weight:normal;font-stretch:normal;font-size:23.12750053px;line-height:125%;font-family:sans-serif;-inkscape-font-specification:'sans-serif, Normal';text-align:center;letter-spacing:0px;word-spacing:0px;writing-mode:lr-tb;text-anchor:middle;fill:#000000;fill-opacity:1;stroke:none;stroke-width:1px;stroke-linecap:butt;stroke-linejoin:miter;stroke-opacity:1"
         xml:space="preserve"><tspan
           id="tspan6367"
           sodipodi:role="line"
           x="2737.4448"
           y="2388.8606">Manufactured for Kimberly Beauty LLC </tspan><tspan
           id="tspan6369"
           sodipodi:role="line"
           x="2733.7634"
           y="2417.77">San Francisco, CA</tspan><tspan
           id="tspan6371"
           sodipodi:role="line"
           x="2733.7634"
           y="2446.6794">www.yogiquesf.com</tspan></text>
      <text
         xml:space="preserve"
         style="font-style:normal;font-variant:normal;font-weight:normal;font-stretch:normal;font-size:23.12777328px;line-height:125%;font-family:sans-serif;-inkscape-font-specification:'sans-serif, Normal';text-align:center;letter-spacing:0px;word-spacing:0px;writing-mode:lr-tb;text-anchor:middle;fill:#000000;fill-opacity:1;stroke:none;stroke-width:1px;stroke-linecap:butt;stroke-linejoin:miter;stroke-opacity:1"
         x="2735.5645"
         y="2514.0781"
         id="text6108"
         sodipodi:linespacing="125%"><tspan
           id="tspan6121"
           sodipodi:role="line"
           x="2735.5645"
           y="2514.0781"
           style="font-style:normal;font-variant:normal;font-weight:normal;font-stretch:normal;font-size:23.12777328px;line-height:125%;font-family:sans-serif;-inkscape-font-specification:'sans-serif, Normal';text-align:center;writing-mode:lr-tb;text-anchor:middle;fill:#000000;fill-opacity:1">Warning: Safety of this product not determined</tspan></text>
    </g>
  </g>
</svg>
