<?xml version="1.0" encoding="utf-8"?>
<!-- Generator: Adobe Illustrator 16.0.0, SVG Export Plug-In . SVG Version: 6.00 Build 0)  -->
<!DOCTYPE svg PUBLIC "-//W3C//DTD SVG 1.1//EN" "http://www.w3.org/Graphics/SVG/1.1/DTD/svg11.dtd" [
	<!ENTITY ns_flows "http://ns.adobe.com/Flows/1.0/">
	<!ENTITY ns_extend "http://ns.adobe.com/Extensibility/1.0/">
	<!ENTITY ns_ai "http://ns.adobe.com/AdobeIllustrator/10.0/">
	<!ENTITY ns_graphs "http://ns.adobe.com/Graphs/1.0/">
]>
<svg version="1.1" id="Layer_1" xmlns:x="&ns_extend;" xmlns:i="&ns_ai;" xmlns:graph="&ns_graphs;"
	 xmlns="http://www.w3.org/2000/svg" xmlns:xlink="http://www.w3.org/1999/xlink" xmlns:a="http://ns.adobe.com/AdobeSVGViewerExtensions/3.0/"
	 x="0px" y="0px" width="864px" height="864px" viewBox="0 0 864 864" enable-background="new 0 0 864 864" xml:space="preserve">
<g>
	<g>
		<path fill="#4055A5" d="M730.044,327.897c-20.777,0-39.69-10.771-50.547-26.802c-10.771,16.369-29.771,26.802-50.806,26.802
			c-20.778,0-39.522-10.94-50.378-26.971c-0.272,0.418-0.572,0.812-0.854,1.223l0.019-0.132c-0.545,0.846-1.126,1.666-1.714,2.481
			c-11.072,14.447-28.802,23.398-48.508,23.398c-19.594,0-37.065-9.414-48.091-24.003l0.445,3.188
			c-1.165-1.418-2.287-2.871-3.313-4.387c-10.772,16.368-29.772,26.801-50.805,26.801c-20.779,0-39.523-10.94-50.379-26.97
			c-0.457,0.702-0.95,1.377-1.438,2.057l0.603-4.166c-10.686,16.539-29.431,27.479-50.634,27.479
			c-20.779,0-39.692-10.771-50.549-26.802c-10.771,16.369-29.771,26.802-50.804,26.802c-20.779,0-39.523-10.94-50.379-26.971
			c-10.772,16.538-29.77,26.971-51.058,26.971c-19.593,0-37.064-9.414-48.09-24.003l8.057,57.675
			c10.603,9.414,24.682,12.891,40.033,12.891c21.288,0,40.285-8.141,51.058-24.682c10.855,16.031,29.6,24.682,50.379,24.682
			c21.033,0,40.032-8.141,50.804-24.511c2.988,4.411,6.604,8.229,10.684,11.478l0.243,1.742
			c10.603,9.414,24.681,12.891,40.032,12.891c21.289,0,40.286-8.141,51.059-24.681c10.855,16.031,29.6,24.681,50.379,24.681
			c21.032,0,40.032-8.141,50.805-24.511c10.855,16.03,29.769,24.511,50.547,24.511c16.368,0,31.128-4.156,42.068-14.756l0.135-0.932
			c3.517-3.037,6.639-6.562,9.266-10.594c10.855,16.031,29.6,24.682,50.378,24.682c21.034,0,40.034-8.141,50.806-24.511
			c10.856,16.029,29.77,24.511,50.547,24.511c16.369,0,31.129-4.156,42.069-14.756l8.565-59.286
			C769.994,316.957,751.251,327.897,730.044,327.897z"/>
		<path fill="#1F87C9" d="M734.845,425.497c-20.778,0-39.691-10.771-50.547-26.801c-10.772,16.368-29.772,26.801-50.807,26.801
			c-20.778,0-39.521-10.94-50.378-26.97c-0.272,0.417-0.572,0.812-0.854,1.222l0.019-0.131c-0.545,0.845-1.126,1.665-1.714,2.48
			c-11.071,14.447-28.802,23.398-48.508,23.398c-19.594,0-37.065-9.414-48.091-24.003l0.445,3.188
			c-1.165-1.418-2.287-2.87-3.313-4.387c-10.772,16.369-29.772,26.802-50.805,26.802c-20.779,0-39.523-10.94-50.379-26.971
			c-0.457,0.702-0.95,1.378-1.437,2.058l0.602-4.167c-10.686,16.539-29.43,27.479-50.633,27.479
			c-20.78,0-39.693-10.771-50.55-26.801c-10.771,16.368-29.771,26.801-50.804,26.801c-20.779,0-39.523-10.94-50.379-26.97
			c-10.771,16.537-29.77,26.97-51.058,26.97c-19.593,0-37.064-9.414-48.09-24.003l8.057,57.674
			c10.603,9.414,24.682,12.891,40.033,12.891c21.288,0,40.286-8.141,51.058-24.68c10.855,16.031,29.6,24.68,50.379,24.68
			c21.033,0,40.033-8.141,50.804-24.51c2.988,4.412,6.604,8.229,10.684,11.479l0.243,1.742
			c10.603,9.414,24.682,12.891,40.033,12.891c21.288,0,40.285-8.141,51.058-24.682c10.855,16.031,29.6,24.682,50.379,24.682
			c21.032,0,40.032-8.141,50.805-24.512c10.856,16.029,29.769,24.512,50.547,24.512c16.368,0,31.128-4.156,42.068-14.758l0.135-0.93
			c3.517-3.039,6.639-6.562,9.266-10.594c10.856,16.031,29.6,24.68,50.378,24.68c21.034,0,40.034-8.141,50.807-24.51
			c10.855,16.029,29.769,24.51,50.547,24.51c16.368,0,31.128-4.156,42.068-14.756l8.565-59.286
			C774.794,414.556,756.051,425.497,734.845,425.497z"/>
		<path fill="#0FBBD1" d="M738.044,518.297c-20.777,0-39.69-10.771-50.547-26.801c-10.771,16.367-29.771,26.801-50.806,26.801
			c-20.778,0-39.522-10.941-50.378-26.971c-0.971,1.49-2.03,2.912-3.13,4.299l0.695-4.809
			c-10.521,16.285-28.859,27.119-49.664,27.449c-19.169-0.328-36.221-9.645-47.049-23.973l0.492,3.521
			c-1.792-2-3.461-4.104-4.961-6.318c-10.771,16.367-29.771,26.801-50.805,26.801c-20.427,0-38.869-10.584-49.802-26.172
			l0.188-1.309c-0.177,0.273-0.373,0.531-0.554,0.803c-0.068-0.1-0.145-0.193-0.212-0.293
			c-10.668,16.379-29.407,26.754-50.446,26.951c-20.551-0.197-39.216-10.902-49.971-26.781
			c-10.771,16.367-29.771,26.801-50.804,26.801c-20.779,0-39.523-10.941-50.379-26.971c-10.772,16.537-29.77,26.971-51.058,26.971
			c-19.593,0-37.064-9.414-48.09-24.004l8.057,57.676c10.603,9.414,24.682,12.891,40.033,12.891
			c21.288,0,40.285-8.141,51.058-24.682c10.855,16.031,29.6,24.682,50.379,24.682c21.033,0,40.032-8.141,50.804-24.512
			c2.604,3.846,5.683,7.244,9.129,10.209l0.197,1.412c10.603,9.414,24.682,12.891,40.033,12.891c0.205,0,0.408-0.012,0.612-0.014
			c0.194,0,0.384,0.014,0.577,0.014c16.369,0,31.128-4.156,42.068-14.756l0.111-0.773c2.873-2.701,5.465-5.738,7.688-9.152
			c10.855,16.031,29.601,24.682,50.379,24.682c21.033,0,40.033-8.141,50.805-24.512c10.856,16.031,29.769,24.512,50.547,24.512
			c0.319,0,0.633-0.012,0.95-0.016c0.354,0.004,0.706,0.016,1.062,0.016c21.287,0,40.284-8.141,51.057-24.682
			c10.855,16.031,29.6,24.682,50.378,24.682c21.034,0,40.034-8.141,50.806-24.512c10.856,16.031,29.77,24.512,50.547,24.512
			c16.369,0,31.129-4.156,42.069-14.756l8.565-59.287C777.994,507.355,759.251,518.297,738.044,518.297z"/>
	</g>
</g>
</svg>
