<?xml version="1.0" encoding="UTF-8" standalone="no"?>
<!-- Created with Inkscape (http://www.inkscape.org/) -->

<svg
   xmlns:dc="http://purl.org/dc/elements/1.1/"
   xmlns:cc="http://creativecommons.org/ns#"
   xmlns:rdf="http://www.w3.org/1999/02/22-rdf-syntax-ns#"
   xmlns:svg="http://www.w3.org/2000/svg"
   xmlns="http://www.w3.org/2000/svg"
   xmlns:sodipodi="http://sodipodi.sourceforge.net/DTD/sodipodi-0.dtd"
   xmlns:inkscape="http://www.inkscape.org/namespaces/inkscape"
   width="210mm"
   height="297mm"
   viewBox="0 0 744.09448819 1052.3622047"
   id="svg4143"
   version="1.1"
   inkscape:version="0.91 r13725"
   sodipodi:docname="donut.svg">
  <defs
     id="defs4145" />
  <sodipodi:namedview
     id="base"
     pagecolor="#ffffff"
     bordercolor="#666666"
     borderopacity="1.0"
     inkscape:pageopacity="0.0"
     inkscape:pageshadow="2"
     inkscape:zoom="0.49497475"
     inkscape:cx="-1387.0668"
     inkscape:cy="1117.8903"
     inkscape:document-units="px"
     inkscape:current-layer="layer1"
     showgrid="false"
     showborder="false"
     inkscape:window-width="1280"
     inkscape:window-height="692"
     inkscape:window-x="0"
     inkscape:window-y="1"
     inkscape:window-maximized="1" />
  <metadata
     id="metadata4148">
    <rdf:RDF>
      <cc:Work
         rdf:about="">
        <dc:format>image/svg+xml</dc:format>
        <dc:type
           rdf:resource="http://purl.org/dc/dcmitype/StillImage" />
        <dc:title></dc:title>
      </cc:Work>
    </rdf:RDF>
  </metadata>
  <g
     inkscape:label="Layer 1"
     inkscape:groupmode="layer"
     id="layer1">
    <path
       style="opacity:1;fill:#d38d5f;fill-opacity:1;stroke:#050505;stroke-width:0;stroke-miterlimit:4;stroke-dasharray:none;stroke-opacity:1"
       d="M -1115.7148 -110.49414 A 250 250 0 0 0 -1365.7148 139.50586 A 250 250 0 0 0 -1115.7148 389.50586 A 250 250 0 0 0 -865.71484 139.50586 A 250 250 0 0 0 -896.77734 18.902344 A 33.88865 33.88865 0 0 1 -919.40039 11.976562 A 33.88865 33.88865 0 0 1 -932.21484 -9.6972656 A 62.936068 62.936068 0 0 1 -1001.6094 -14.494141 A 62.936068 62.936068 0 0 1 -1024.291 -79.609375 A 33.88865 33.88865 0 0 1 -1047.6797 -86.462891 A 33.88865 33.88865 0 0 1 -1059.5176 -103.7793 A 250 250 0 0 0 -1115.7148 -110.49414 z M -1115.7148 52.005859 A 87.5 87.5 0 0 1 -1028.2148 139.50586 A 87.5 87.5 0 0 1 -1115.7148 227.00586 A 87.5 87.5 0 0 1 -1203.2148 139.50586 A 87.5 87.5 0 0 1 -1115.7148 52.005859 z "
       id="path4841" />
    <path
       style="color:#000000;font-style:normal;font-variant:normal;font-weight:normal;font-stretch:normal;font-size:medium;line-height:normal;font-family:sans-serif;text-indent:0;text-align:start;text-decoration:none;text-decoration-line:none;text-decoration-style:solid;text-decoration-color:#000000;letter-spacing:normal;word-spacing:normal;text-transform:none;direction:ltr;block-progression:tb;writing-mode:lr-tb;baseline-shift:baseline;text-anchor:start;white-space:normal;clip-rule:nonzero;display:inline;overflow:visible;visibility:visible;opacity:1;isolation:auto;mix-blend-mode:normal;color-interpolation:sRGB;color-interpolation-filters:linearRGB;solid-color:#000000;solid-opacity:1;fill:#3a2d2d;fill-opacity:1;fill-rule:nonzero;stroke:none;stroke-width:25;stroke-linecap:round;stroke-linejoin:round;stroke-miterlimit:4;stroke-dasharray:none;stroke-dashoffset:0;stroke-opacity:1;color-rendering:auto;image-rendering:auto;shape-rendering:auto;text-rendering:auto;enable-background:accumulate"
       d="M -1118.832 -132.91797 C -1212.684 -132.27126 -1303.8426 -79.994128 -1350.6133 1.7148438 C -1375.3616 43.751241 -1388.1308 92.346023 -1388.0508 140.93359 L -1388.0508 140.94531 L -1388.0508 140.95508 C -1388.0508 157.23646 -1386.1782 173.89674 -1380.75 187.99414 C -1378.0347 195.04593 -1374.3998 201.58897 -1368.8672 206.8418 C -1363.3346 212.09463 -1355.4354 215.72852 -1347.0508 215.72852 C -1333.4937 215.72852 -1322.0366 208.52888 -1316.3945 199.54492 C -1310.7524 190.56097 -1309.0805 181.03332 -1307.3516 172.70898 C -1305.6226 164.38465 -1303.8218 157.21102 -1301.8008 153.77148 C -1299.7798 150.33195 -1299.7436 149.60742 -1293.6348 149.60742 C -1285.8035 149.60742 -1285.0243 150.81638 -1283.2051 153.1582 C -1281.3858 155.50003 -1279.4421 161.01257 -1276.6797 168.3418 C -1273.9173 175.67102 -1269.7425 185.03382 -1260.7188 192.17578 C -1251.6949 199.31775 -1238.8514 203.25781 -1221.6465 203.25781 C -1213.3126 203.25781 -1205.5565 199.98787 -1199.957 195.1875 C -1194.3575 190.38713 -1190.6138 184.37256 -1187.8711 178.1582 C -1182.3857 165.72948 -1180.6465 152.11014 -1180.6465 140.93359 A 12.50125 12.50125 0 0 0 -1180.6465 140.83203 C -1180.8452 116.23511 -1166.4271 90.879401 -1144.0527 81.089844 A 12.50125 12.50125 0 0 0 -1143.7051 80.931641 C -1134.3666 76.501687 -1124.1691 74.361529 -1113.7793 74.482422 A 12.50125 12.50125 0 0 0 -1113.6699 74.482422 C -1080.4081 74.576252 -1049.208 107.36829 -1050.4746 140.45508 A 12.50125 12.50125 0 0 0 -1050.4844 140.93359 C -1050.4844 152.48552 -1048.8882 166.68495 -1043.5391 179.60742 C -1040.8645 186.06866 -1037.1997 192.32398 -1031.5898 197.36133 C -1025.98 202.39868 -1018.0588 205.87891 -1009.5352 205.87891 C -1001.2556 205.87891 -993.2549 202.32866 -987.92383 197.00977 C -982.59275 191.69087 -979.47673 185.2308 -977.15234 178.46875 C -972.50358 164.94466 -970.88759 149.33998 -968.92578 134.27539 C -966.96398 119.2108 -964.62192 104.73939 -960.85352 95.75 C -958.96932 91.255306 -956.85345 88.322437 -954.97461 86.751953 C -953.09577 85.181469 -951.53442 84.443359 -947.95508 84.443359 C -944.4903 84.443359 -942.92319 85.178645 -940.80078 87.0625 C -938.67837 88.946355 -936.2575 92.488518 -934.13867 97.662109 C -929.90101 108.00929 -927.17817 124.14041 -924.90039 140.7793 C -922.62261 157.41818 -920.74006 174.51453 -916.20898 188.98047 C -913.94345 196.21344 -911.05783 202.96593 -906.01172 208.70703 C -900.96561 214.44814 -892.86453 218.72461 -884.35352 218.72461 C -875.78077 218.72461 -867.7308 214.8601 -862.20703 209.37305 C -856.68326 203.88599 -853.12874 197.10896 -850.47461 189.79492 C -845.16839 175.17246 -843.40565 157.847 -843.4043 140.95312 C -843.23407 95.413471 -854.54926 49.948766 -876.10547 9.8691406 A 33.88865 35.547615 37.502121 0 1 -922.28711 14.726562 A 33.88865 35.547615 37.502121 0 1 -934.82031 -7.3125 A 62.936068 66.017003 37.502121 0 1 -1005.3594 -10.615234 A 62.936068 66.017003 37.502121 0 1 -1026.916 -77.201172 A 33.88865 35.547615 37.502121 0 1 -1050.5664 -83.712891 A 33.88865 35.547615 37.502121 0 1 -1059.2969 -127.02344 C -1075.0839 -130.39289 -1091.1927 -132.34484 -1107.4121 -132.75977 C -1111.2235 -132.89094 -1115.0274 -132.94223 -1118.8223 -132.91797 A 12.50125 12.50125 0 0 0 -1118.8281 -132.91797 L -1118.832 -132.91797 z "
       id="path4900" />
    <path
       style="opacity:1;fill:#6c5353;fill-opacity:1;stroke:#050505;stroke-width:0;stroke-miterlimit:4;stroke-dasharray:none;stroke-opacity:1"
       d="M -1118.7422 -120.41797 C -1207.9926 -119.80434 -1295.4005 -69.640077 -1339.8027 7.984375 C -1363.3948 48.026527 -1375.6309 94.521504 -1375.5508 140.93359 C -1375.5508 171.39115 -1367.8074 203.22852 -1347.0508 203.22852 C -1306.3654 203.22852 -1332.3151 137.10742 -1293.6348 137.10742 C -1251.6587 137.10742 -1283.2031 190.75781 -1221.6465 190.75781 C -1200.0744 190.75781 -1193.1465 160.30629 -1193.1465 140.93359 C -1193.3841 111.52935 -1176.6607 81.713812 -1149.0625 69.638672 C -1137.9459 64.365227 -1125.8437 61.840362 -1113.6348 61.982422 C -1072.6539 62.098034 -1036.4236 100.16095 -1037.9844 140.93359 C -1037.9844 161.38844 -1031.483 193.37891 -1009.5352 193.37891 C -967.20611 193.37891 -997.15737 71.943359 -947.95508 71.943359 C -897.88697 71.943359 -924.72073 206.22461 -884.35352 206.22461 C -863.27365 206.22461 -855.9043 172.80671 -855.9043 140.93359 C -855.7414 98.578049 -866.04198 56.204545 -885.60156 18.673828 A 33.88865 37.02225 37.502121 0 1 -924.85156 18.070312 A 33.88865 37.02225 37.502121 0 1 -937.13672 -4.2929688 A 62.936068 68.755611 37.502121 0 1 -1008.6953 -6.2695312 A 62.936068 68.755611 37.502121 0 1 -1029.2461 -74.162109 A 33.88865 37.02225 37.502121 0 1 -1053.1309 -80.369141 A 33.88865 37.02225 37.502121 0 1 -1064.6094 -115.33203 C -1078.8128 -118.21111 -1093.2631 -119.89941 -1107.7891 -120.26758 C -1111.4386 -120.39394 -1115.0906 -120.44132 -1118.7422 -120.41797 z "
       id="path4892" />
    <path
       style="opacity:0.5;fill:#ffffff;fill-opacity:1;stroke:#050505;stroke-width:0;stroke-miterlimit:4;stroke-dasharray:none;stroke-opacity:1"
       d="M -947.95508 84.443359 C -951.53442 84.443359 -953.09577 85.181469 -954.97461 86.751953 C -956.85345 88.322437 -958.96932 91.255306 -960.85352 95.75 C -964.62192 104.73939 -966.96398 119.2108 -968.92578 134.27539 C -970.88759 149.33998 -972.50358 164.94466 -977.15234 178.46875 C -977.4525 179.34195 -977.76804 180.20899 -978.09766 181.07031 C -995.62372 235.8379 -1047.0629 279.97532 -1105.3535 283.10352 C -1163.5641 287.76332 -1221.9153 251.95044 -1246.6035 199.6582 C -1252.0729 197.82018 -1256.763 195.30657 -1260.7188 192.17578 C -1269.7425 185.03382 -1273.9173 175.67102 -1276.6797 168.3418 C -1279.4421 161.01257 -1281.3858 155.50003 -1283.2051 153.1582 C -1285.0243 150.81638 -1285.8035 149.60742 -1293.6348 149.60742 C -1299.7436 149.60742 -1299.7798 150.33195 -1301.8008 153.77148 C -1303.6553 156.9277 -1305.3216 163.28775 -1306.9199 170.73633 C -1297.6199 224.84783 -1266.0529 275.44544 -1218.8535 304.04688 C -1158.1765 342.10303 -1074.7898 343.50657 -1014.127 305.05273 C -963.39817 273.88841 -928.8364 218.13953 -922.38281 159.24609 C -923.26967 153.13116 -924.05907 146.92501 -924.90039 140.7793 C -927.17817 124.14041 -929.90101 108.00929 -934.13867 97.662109 C -936.2575 92.488518 -938.67837 88.946355 -940.80078 87.0625 C -942.92319 85.178645 -944.4903 84.443359 -947.95508 84.443359 z "
       id="path4903" />
    <path
       style="opacity:0.5;fill:#ffffff;fill-opacity:1;stroke:#050505;stroke-width:0;stroke-miterlimit:4;stroke-dasharray:none;stroke-opacity:1"
       d="M -1117.1582 -54.486328 C -1203.4342 -54.987854 -1285.843 9.9357497 -1304.6738 94.375 C -1307.7909 107.17115 -1309.4379 120.26119 -1309.7266 133.39258 C -1309.2547 133.0984 -1308.7727 132.81325 -1308.2734 132.54297 C -1291.1091 123.31969 -1266.4677 132.20954 -1261.0781 151.48438 C -1260.1891 153.76802 -1259.3234 156.23258 -1258.4043 158.71484 C -1266.7414 95.827285 -1229.1595 28.580538 -1169.1035 6.1347656 C -1151.4306 -0.8406778 -1132.3993 -4.26069 -1113.4141 -4.2109375 C -1055.0732 -4.549644 -1001.2824 36.688913 -980.64062 90.279297 C -979.0739 86.268746 -977.20651 82.350544 -974.91992 78.560547 C -966.90243 66.069607 -949.96283 60.215442 -936.24219 66.142578 C -944.76022 45.681127 -956.71693 26.633644 -971.40039 10.070312 A 62.936068 71.902402 37.502121 0 1 -1012.5254 -1.2773438 A 62.936068 71.902402 37.502121 0 1 -1033.8184 -36.455078 C -1036.7612 -37.789649 -1039.7455 -39.044175 -1042.7676 -40.214844 C -1066.2655 -49.709181 -1091.7585 -54.812839 -1117.1582 -54.486328 z "
       id="path5024" />
    <rect
       ry="8.4136429"
       y="1053.1385"
       x="-821.31061"
       height="17.770306"
       width="56.446827"
       id="rect5129"
       style="opacity:1;fill:#00ff00;fill-opacity:1;stroke:none;stroke-width:25;stroke-linecap:round;stroke-linejoin:round;stroke-miterlimit:4;stroke-dasharray:none;stroke-opacity:1"
       transform="matrix(0.65650141,0.7543248,-0.7543248,0.65650141,0,0)" />
    <rect
       style="opacity:1;fill:#ff00cc;fill-opacity:1;stroke:none;stroke-width:25;stroke-linecap:round;stroke-linejoin:round;stroke-miterlimit:4;stroke-dasharray:none;stroke-opacity:1"
       id="rect5131"
       width="56.446827"
       height="17.770306"
       x="-1116.6523"
       y="-677.39307"
       ry="8.4136429"
       transform="matrix(0.85045886,-0.52604157,0.52604157,0.85045886,0,0)" />
    <rect
       ry="8.4136429"
       y="-835.52332"
       x="-816.19763"
       height="17.770306"
       width="56.446827"
       id="rect5133"
       style="opacity:1;fill:#ff6600;fill-opacity:1;stroke:none;stroke-width:25;stroke-linecap:round;stroke-linejoin:round;stroke-miterlimit:4;stroke-dasharray:none;stroke-opacity:1"
       transform="matrix(0.68226756,-0.73110258,0.73110258,0.68226756,0,0)" />
    <rect
       style="opacity:1;fill:#2afff6;fill-opacity:1;stroke:none;stroke-width:25;stroke-linecap:round;stroke-linejoin:round;stroke-miterlimit:4;stroke-dasharray:none;stroke-opacity:1"
       id="rect5135"
       width="56.446827"
       height="17.770306"
       x="-987.49249"
       y="609.9494"
       ry="8.4136429"
       transform="matrix(0.81033872,0.58596174,-0.58596174,0.81033872,0,0)" />
    <rect
       ry="8.4136429"
       y="-1008.4091"
       x="-118.01951"
       height="17.770306"
       width="56.446827"
       id="rect5137"
       style="opacity:1;fill:#ffcc00;fill-opacity:1;stroke:none;stroke-width:25;stroke-linecap:round;stroke-linejoin:round;stroke-miterlimit:4;stroke-dasharray:none;stroke-opacity:1"
       transform="matrix(0.04529899,-0.99897347,0.99897347,0.04529899,0,0)" />
    <rect
       style="opacity:1;fill:#800080;fill-opacity:1;stroke:none;stroke-width:25;stroke-linecap:round;stroke-linejoin:round;stroke-miterlimit:4;stroke-dasharray:none;stroke-opacity:1"
       id="rect5139"
       width="56.446827"
       height="17.770306"
       x="-731.41803"
       y="542.13983"
       ry="8.4136429"
       transform="matrix(0.82586831,0.56386304,-0.56386304,0.82586831,0,0)" />
    <rect
       transform="matrix(-0.84207058,-0.53936734,0.53936734,-0.84207058,0,0)"
       style="opacity:1;fill:#ff0000;fill-opacity:1;stroke:none;stroke-width:25;stroke-linecap:round;stroke-linejoin:round;stroke-miterlimit:4;stroke-dasharray:none;stroke-opacity:1"
       id="rect5141"
       width="56.446827"
       height="17.770306"
       x="966.10541"
       y="-727.32684"
       ry="8.4136429" />
  </g>
</svg>
