<?xml version="1.0" encoding="utf-8"?>
<!-- Generator: Adobe Illustrator 12.0.1, SVG Export Plug-In . SVG Version: 6.00 Build 51448)  -->
<!DOCTYPE svg PUBLIC "-//W3C//DTD SVG 1.1//EN" "http://www.w3.org/Graphics/SVG/1.1/DTD/svg11.dtd" [
	<!ENTITY ns_svg "http://www.w3.org/2000/svg">
	<!ENTITY ns_xlink "http://www.w3.org/1999/xlink">
]>
<svg  version="1.1" id="Layer_1" xmlns="&ns_svg;" xmlns:xlink="&ns_xlink;" width="1207.067" height="1036.305"
	 viewBox="0 0 1207.067 1036.305" overflow="visible" enable-background="new 0 0 1207.067 1036.305" xml:space="preserve">
<g>
	<path fill="#CCCCCC" d="M852.352,1.913H747.78c0,0,0,28.056,0.424,40.809c0.426,12.753,3.826,32.307,4.676,45.06
		c0.852,12.753,0,26.356,0,42.084c0,15.728-1.699,43.785-2.125,59.088c-0.424,15.303-0.85,36.983-2.975,59.513
		c-2.127,22.53-3.826,34.433-5.102,56.963c-1.275,22.53-0.85,49.736-0.426,65.89c0.426,16.153,1.275,39.534,1.275,46.76
		c0,7.226,0.85,15.303,0.85,15.303s-8.502,19.98-13.602,33.158c-5.102,13.178-14.029,28.481-18.705,37.833
		s-11.902,19.128-17.004,27.63s-10.627,14.029-12.752,21.256s-7.229,26.781-10.629,36.982c-3.4,10.203-5.102,12.328-9.775,21.68
		c-4.676,9.354-8.928,16.154-10.627,25.082c-1.701,8.926-2.125,17.428-4.252,22.529c-2.125,5.102-8.076,22.531-9.352,32.307
		c-1.275,9.777,0,34.008,0.426,36.984c0.424,2.975-2.553,9.352-3.826,14.877c-1.275,5.527-5.527,25.082-4.678,37.408
		c0.852,12.328,2.977,28.908,7.652,39.109c6.107,13.324,7.652,17.004,9.777,25.506s3.826,20.404,7.652,25.932
		s16.154,25.08,20.404,29.332c4.25,4.25,6.375,6.375,11.479,9.777c5.102,3.398,11.477,5.525,14.027,8.5
		c2.549,2.975,7.227,11.902,13.178,16.154c5.951,4.25,17.43,14.453,27.205,21.254c9.777,6.803,27.207,17.855,37.41,25.932
		c10.201,8.078,17.43,14.879,26.781,20.404s28.48,19.979,41.234,23.807c12.752,3.826,33.582,8.5,48.459,7.65
		c14.879-0.85,23.807-2.977,34.434-4.676c10.627-1.701,31.881-8.078,40.383-10.627c8.502-2.551,25.506-8.078,34.857-14.453
		c9.354-6.377,33.158-22.955,44.635-32.732c11.479-9.777,36.133-31.031,48.461-45.061c12.328-14.027,33.158-39.109,40.385-55.262
		c7.227-16.154,10.201-20.404,15.729-36.133s8.078-29.332,11.902-40.385c3.826-11.051,8.078-23.379,10.203-39.107
		c2.125-15.73,1.699-34.008,1.275-49.312c-0.426-15.303-1.275-28.057-2.977-34.432c-1.701-6.377-10.203-24.656-17.004-34.008
		c-6.803-9.352-15.305-21.254-15.305-21.254s6.803-45.486,9.777-60.789c2.977-15.305,6.803-56.539,9.777-79.068
		c2.977-22.53,4.676-45.485,4.676-45.485s13.604-3.825,19.979-10.627c6.377-6.802,16.145-22.298,17.855-29.332
		c3.826-15.729-4.252-19.979-4.252-19.979l-31.457-25.931c0,0-0.85-19.129-1.699-26.781c-0.85-7.652-4.252-24.656-4.252-24.656
		s17.854-9.352,20.83-11.052c2.977-1.7,6.803-4.251,7.227-8.927c0.426-4.676,0.426-12.753-2.551-16.579
		c-2.975-3.826-6.801-8.077-8.5-8.502c-1.701-0.425-5.527-0.85-5.527-0.85h-4.676l-17.002,8.502c0,0-5.527-16.154-9.352-24.656
		c-3.826-8.502-17.855-33.157-23.381-39.959s-21.256-20.405-28.48-25.506c-7.227-5.101-27.207-15.303-30.182-18.279
		c-2.977-2.976-6.377-7.652-7.229-15.729c-0.85-8.077-0.424-25.506,1.701-30.182c2.125-4.676,4.676-6.802,4.676-6.802
		s31.881-14.453,36.557-17.004c4.678-2.551,6.133-5.934,8.928-9.777c3.4-4.676,0.85-18.704-0.85-23.805s-7.227-13.178-10.203-18.279
		c-6.166-10.572-12.326-10.627-16.152-10.202s0-14.028,0-14.028H973.504l-14.453,56.963c0,0-47.186,10.202-57.812,14.028
		s-35.283,13.178-35.283,13.178s-1.275,0.85-2.977-5.526c-1.701-6.376-7.227-32.732-8.076-46.76
		C854.051,20.617,852.352,1.913,852.352,1.913z"/>
</g>
<path fill="#95B5DF" d="M747.78,1.913h67.25c0,0-1.25,19-1.25,27.5s0,26.75,0,33s1,20.25,2.25,24.75s6.5,22.5,6.5,22.5
	s9.25-6.25,16.5-10.25s23-11.25,33-15s38-12,50-15s40.75-10.25,53.75-14.5s38-13.5,50.5-19s29.5-14.25,37.5-16.5
	s14.75-4.75,18.5-3.5s7.75,4.25,10.25,7.75s7.5,9.75,9.5,15.5s5.25,13.5,5.25,18.75s-0.5,12.5-2.75,15.25s-13.5,9.25-20.25,12.5
	s-33.75,14.75-44,18.75s-32.75,11.25-45.75,14.75s-43.5,9-54.75,11.75s-33.25,9.25-43,14.75s-23.5,13.25-35,23s-28.5,25.5-35.5,34.5
	s-5.75,7-14.5,18.25s-14.25,17.75-24.25,36.25c-9.305,17.212-16.25,35.75-19.5,48.5s-8,34.5-8.75,47.75s1.25,35.25,2.5,44.25
	s3.25,19.75,3,26.5s-0.25,8.25-2.75,9.5s-7,1-9.5,3s-6.5,7-6.5,7s-1-1-1.5-6s-1.25-25.5-1.5-34.5s-0.75-23.5-0.75-33
	s-0.5-28.75-0.25-35.25s0.5-33,1.75-48.5s3.5-35.5,4.5-48.5s1.5-23.75,1.75-32.25s0.75-18.25,1-26.75s0.75-24.75,1.25-35
	s1-24,1.25-32.25s-0.5-19.5-0.75-26s-2-15-3-23s-2-21.25-1.5-28.75S747.78,1.913,747.78,1.913z"/>
<path fill="#F7ABAD" d="M878.18,618.274c-9.846-1.354-19.326,0.604-26.924-0.318c-13.729-1.668-23.479-10.543-23.479-10.543
	c19,16.5,61,71,75,103s47,68,54,96c6.137,24.543,12,44,10,78c-1.797,30.543-6.471,57.229,13,64c23,8,55-30,86-68
	c22.053-27.031,33-41,45-74c14.025-38.57,15.75-76.008,17-106c1-24,1-73-14-95c-16.012-23.486-39-43-58-52s-52-13.5-67-19.5
	s-30.5-34.5-30.5-34.5s-30.357-36.03-28.656-29.177c1.656,6.677-11.344,47.177-14.914,54.598
	c-3.223,6.699-4.457,34.439-9.006,42.879c-5.752,10.67-12.828,26.906-18.455,32.92c-4.469,4.779-4.219,14.279-16.469,15.279
	C859.672,616.821,884.655,619.163,878.18,618.274z"/>
<path fill="#95B5DF" d="M784.78,506.413c-6-10-8-24-16-38s-14-6-26,2s-18,30-28,48c-10,18-20.988,40.162-26,58
	c-5.014,17.84-12,36-22,56s-16,52-16,62s8,30,0,42s-8,32-8,54s16,48,28,74s40,46,60,68s64,40,90,52s54,12,72-2s16-54,16-82
	s-16-72-18-104c0,0-6.73-49.553-6-76c0.729-26.445,16-104,22-130s12-62,22-88c10-26,38.658-57.406,52-68s13.5-18.5,19-24.5
	s16-19.5,24.5-23.5s16-8,24.5-8.5s29,0.5,36.5,4s24.5,12,32,17s22.5,16,27.5,20s12.561,10.04,16.928,11.405
	c4.365,1.365,10.072,0.095,15.072-2.905s12.5-8,16-12.5s8.5-13.5,10.5-19.5s3.006-15.778-0.748-20.389
	c-3.752-4.611-11.752-11.611-22.252-20.111s-38.5-26.5-44.5-30.5s-14-5-14-9.5s2-3.5,6-6.5s22.5-9,31.5-13
	s18.793-9.025,23.797-12.087c5.002-3.062,7.703-3.913,8.703-7.913s1-9-1-14s-6-10-9-12.5s-6-3.5-11-1.5s-19.5,9.5-31,13.5
	s-37,11-48,13s-28,5-44,4.5s-28-2.5-39.5-4s-31.5-6-43.5-5.5s-31.5,4.5-39,10s-24,16.5-29,27s-10.5,23-12,34.5s1,23.5-2.5,34.5
	s-10.5,30-19.5,41.5s-22.5,26.5-31,35.5s-21.736,18.044-28,22.5c-6.266,4.456-15,5-17.5,6.5s-3.5,3.5-3.5,9.5
	S784.78,506.413,784.78,506.413z"/>
<g>
	<path fill="#CCCCCC" d="M224.352,1.913H119.779c0,0,0,28.056,0.425,40.809c0.425,12.753,3.826,32.307,4.676,45.06
		c0.85,12.753,0,26.356,0,42.084c0,15.728-1.7,43.785-2.125,59.088c-0.425,15.303-0.85,36.983-2.976,59.513
		c-2.126,22.53-3.826,34.433-5.101,56.963c-1.275,22.53-0.85,49.736-0.425,65.89c0.425,16.153,1.275,39.534,1.275,46.76
		c0,7.226,0.85,15.303,0.85,15.303s-8.502,19.98-13.603,33.158s-14.028,28.481-18.704,37.833
		c-4.676,9.353-11.903,19.128-17.004,27.63S56.44,546.034,54.314,553.26s-7.227,26.781-10.627,36.982
		c-3.401,10.203-5.101,12.328-9.777,21.68c-4.676,9.354-8.927,16.154-10.627,25.082c-1.7,8.926-2.125,17.428-4.251,22.529
		c-2.125,5.102-8.077,22.531-9.352,32.307c-1.275,9.777,0,34.008,0.425,36.984c0.425,2.975-2.551,9.352-3.826,14.877
		c-1.275,5.527-5.526,25.082-4.676,37.408c0.85,12.328,2.976,28.908,7.652,39.109c6.107,13.324,7.652,17.004,9.777,25.506
		s3.826,20.404,7.652,25.932c3.826,5.525,16.154,25.08,20.405,29.332c4.251,4.25,6.376,6.375,11.478,9.777
		c5.101,3.398,11.478,5.525,14.028,8.5c2.551,2.977,7.227,11.902,13.178,16.154c5.951,4.25,17.429,14.453,27.206,21.254
		c9.777,6.803,27.206,17.855,37.408,25.932c10.202,8.078,17.429,14.879,26.781,20.404s28.481,19.979,41.234,23.807
		c12.753,3.826,33.582,8.5,48.461,7.65c14.878-0.85,23.805-2.977,34.433-4.676c10.627-1.701,31.882-8.078,40.384-10.627
		c8.502-2.551,25.506-8.078,34.858-14.453c9.352-6.377,33.157-22.955,44.635-32.732c11.479-9.777,36.133-31.031,48.461-45.061
		c12.328-14.027,33.157-39.109,40.384-55.262c7.228-16.154,10.202-20.404,15.729-36.133s8.077-29.332,11.903-40.385
		c3.825-11.051,8.076-23.379,10.201-39.107c2.125-15.73,1.7-34.008,1.275-49.312c-0.425-15.303-1.275-28.057-2.976-34.432
		c-1.701-6.377-10.203-24.656-17.004-34.008c-6.803-9.352-15.305-21.254-15.305-21.254s6.802-45.486,9.777-60.789
		c2.976-15.305,6.802-56.539,9.776-79.068c2.977-22.53,4.677-45.485,4.677-45.485s13.603-3.825,19.979-10.627
		s16.144-22.298,17.854-29.332c3.826-15.729-4.251-19.979-4.251-19.979l-31.457-25.931c0,0-0.851-19.129-1.7-26.781
		c-0.85-7.652-4.251-24.656-4.251-24.656s17.854-9.352,20.83-11.052c2.976-1.7,6.802-4.251,7.227-8.927
		c0.425-4.676,0.425-12.753-2.551-16.579c-2.976-3.826-6.801-8.077-8.501-8.502c-1.701-0.425-5.526-0.85-5.526-0.85h-4.676
		l-17.003,8.502c0,0-5.525-16.154-9.352-24.656s-17.854-33.157-23.38-39.959c-5.526-6.802-21.256-20.405-28.481-25.506
		s-27.206-15.303-30.182-18.279c-2.977-2.976-6.376-7.652-7.228-15.729c-0.85-8.077-0.425-25.506,1.7-30.182
		c2.125-4.676,4.676-6.802,4.676-6.802s31.882-14.453,36.559-17.004c4.676-2.551,6.131-5.934,8.927-9.777
		c3.401-4.676,0.85-18.704-0.851-23.805c-1.699-5.101-7.227-13.178-10.201-18.279c-6.167-10.572-12.328-10.627-16.154-10.202
		s0-14.028,0-14.028H345.504l-14.453,56.963c0,0-47.186,10.202-57.813,14.028c-10.627,3.826-35.283,13.178-35.283,13.178
		s-1.275,0.85-2.976-5.526c-1.7-6.376-7.227-32.732-8.077-46.76S224.352,1.913,224.352,1.913z"/>
</g>
<g>
	<path fill="#E1A6AA" d="M38.479,744.022c0,0,4.782,8.184,8.608,15.836c3.826,7.65,13.178,27.205,15.729,37.406
		c2.551,10.203,9.352,24.23,14.878,31.883c5.526,7.652,14.453,18.705,22.955,23.381s22.53,10.627,30.607,11.477
		c8.077,0.852,39.534-0.85,53.987-6.375c14.453-5.525,18.704-5.951,23.805-7.227s12.328-3.402,17.429-2.551
		c5.101,0.85,9.777,1.275,14.878,6.377s8.927,9.352,10.202,15.729c1.275,6.375,2.551,13.178,2.976,17.428
		c0.425,4.252,0,9.777,0.85,14.879c0.85,5.102,3.826,12.328,4.251,15.729c0.425,3.4,2.976,5.102,2.976,11.479s0,10.201-2.125,16.578
		s-5.101,14.453-5.951,17.43c-0.85,2.977-1.7,4.676-1.7,7.652s0.425,2.977,0.425,7.227c0,4.252-1.275,5.525-1.7,8.502
		c-0.425,2.977,3.401-5.525,3.826-9.777c0.425-4.25,0-5.1,2.125-10.627c2.125-5.525,5.526-13.178,6.802-19.129
		c1.275-5.951,4.251-10.201,3.826-17.428c-0.425-7.229-0.85-11.479-2.55-17.004c-1.7-5.527-2.551-8.504-3.401-14.029
		s-0.425-11.053-1.275-17.004s-1.275-14.453-3.826-20.83c-2.551-6.375-5.951-9.352-8.927-12.328s-6.376-4.25-6.802-6.375
		c-0.426-2.125,0-5.951,2.551-8.928c2.551-2.977,6.376-9.777,11.903-11.902c5.526-2.125,12.328-5.953,16.579-5.953
		s9.777,0,17.004,2.551c7.227,2.553,13.603,5.102,19.129,5.527c5.525,0.424,9.352-1.275,13.603-2.125s7.227-3.402,11.478-5.527
		c4.252-2.125,5.951-5.1,9.353-5.525c3.401-0.424,3.826-0.424,7.652,0.426c3.825,0.85,6.376,1.275,10.201,1.275
		c3.826,0,6.376-1.275,8.077-2.977c1.7-1.701,2.977-2.551,5.102-3.826s2.976-2.125,5.525-2.125c2.552,0,4.677-0.426,6.802-0.426
		c2.126,0-2.552-2.125-6.376-1.701c-3.826,0.426-6.377,0.852-8.928,2.553c-2.551,1.699-3.4,4.25-7.651,4.25
		s-7.652-1.275-10.627-1.701c-2.977-0.424-7.228-0.85-10.202,0c-2.977,0.852-6.376,2.977-8.502,4.676
		c-2.125,1.701-7.652,3.826-11.903,4.676c-4.251,0.852-11.903,0.852-16.154,0c-4.251-0.85-8.927-2.549-11.478-3.398
		c-2.551-0.852-5.101-0.852-5.101-2.977s0.425-5.102,1.7-8.078c1.275-2.975,2.551-7.227,2.126-11.9
		c-0.425-4.678-1.7-12.115-1.913-15.092c-0.213-2.977-0.425-7.439,0.425-9.352c0.85-1.914,2.763-6.377,2.763-6.377
		s-2.763,3.4-3.826,5.74c-1.063,2.338-1.913,5.1-1.913,8.5s0.85,7.014,0.85,9.354c0,2.338,0.85,4.889,0.425,7.863
		c-0.425,2.977-0.638,6.801-1.7,9.139c-1.063,2.338-1.488,4.039-2.976,5.74s-1.488,3.613-3.826,3.826
		c-2.338,0.211-8.927,0.424-10.415,0.85c-1.488,0.424-8.077,0-12.115,2.125s-9.777,5.312-14.028,10.201
		c-4.251,4.891-7.439,9.354-10.627,11.266s-10.84,5.525-16.366,6.59c-5.526,1.062-23.593,5.1-29.332,7.014
		c-5.739,1.912-12.54,4.889-22.105,5.738s-19.129,1.062-26.143,0.213c-7.014-0.852-17.004-2.125-22.955-5.951
		c-5.951-3.826-15.303-9.777-19.554-14.242c-4.251-4.463-9.99-10.414-14.241-18.279c-4.251-7.863-8.502-21.041-10.202-26.992
		c-1.7-5.953-6.802-20.83-8.502-25.082c-1.7-4.25-5.526-12.328-7.652-17.854s-6.376-14.879-6.376-14.879L38.479,744.022z"/>
</g>
<path fill="#E1A6AA" d="M508.74,648.055c0,0-1.275,11.904-3.826,18.279c-2.551,6.377-13.178,22.955-19.979,30.182
	c-6.801,7.229-26.78,21.256-32.731,28.057c-5.951,6.803-19.554,17.004-26.356,28.48c-6.801,11.479-15.955,31.572-19.979,38.473
	c-2.977,5.1-8.502,13.391-11.903,16.791c-5.951,5.951-15.303,11.053-20.405,16.152c-5.101,5.102-11.478,8.078-16.153,15.305
	c-4.676,7.225-11.052,14.027-11.479,20.83c-0.425,6.801-0.425,13.178-2.976,17.854s-7.228,10.201-9.353,13.178
	s-3.825,4.676-4.251,7.227c-0.425,2.551,0.851,4.676,0.426,7.227c-0.426,2.551-1.7,5.527-2.977,7.652
	c-1.274,2.125-2.976,7.65-2.976,10.203c0,2.549-0.851,6.375,0,8.076c0.85,1.701,0.85-3.4,2.125-7.652
	c1.274-4.25,2.551-7.65,4.251-10.627s1.274-8.502,2.125-10.627c0.85-2.125,2.551-6.801,7.227-11.902s6.802-11.479,8.502-17.004
	c1.7-5.527,5.951-16.154,8.927-21.68c2.977-5.527,7.652-11.479,14.028-16.154s13.178-10.627,15.729-11.902
	c2.551-1.275,7.227-5.102,6.376-1.275c-0.852,3.826-1.701,9.777-1.275,15.729c0.425,5.951,1.275,15.73,2.551,19.98
	s3.826,10.627,3.826,14.027s-0.85,10.627-2.125,14.877c-1.274,4.252-5.951,12.754-7.227,16.58s-2.977,7.227-2.977,11.053
	s0,6.801,1.275,11.053c1.274,4.25,2.125,5.525,1.274,10.203c-0.85,4.676-1.699,9.775-4.251,14.877
	c-2.55,5.102-4.251,7.65-4.251,9.777c0,2.125,0.851,5.102,0.426,7.652c-0.426,2.549-1.7,5.525-4.251,8.502
	c-2.552,2.975,2.976-0.426,4.676-4.252s1.274-7.652,2.551-11.477c1.275-3.826,2.551-8.078,4.676-11.479
	c2.125-3.402,5.102-7.227,5.951-11.904c0.85-4.676,0-14.027-0.425-17.854s-0.425-9.352,0.851-12.752
	c1.275-3.402,6.802-13.604,8.077-16.58c1.276-2.975,3.401-12.328,3.401-17.854S401.19,851.25,400.764,847
	c-0.425-4.252-0.425-18.705,2.552-25.932c2.976-7.227,7.796-21.555,11.902-29.119c4.038-7.439,10.627-22.316,16.153-29.969
	c5.525-7.652,18.279-22.957,26.781-29.332c8.501-6.377,18.278-14.453,23.805-19.129s24.229-27.207,27.206-31.883
	c2.976-4.676,5.951-11.477,5.951-11.477L508.74,648.055z"/>
<path fill="#FAC0BF" d="M423.296,377.697c0,0,12.328-0.425,20.83,1.275c8.502,1.7,19.129,2.976,27.206,8.077
	c8.077,5.101,22.53,13.178,28.056,17.854c5.526,4.676,28.907,22.104,28.907,22.104l9.777,4.676c0,0-3.826,38.685-5.526,55.263
	c-1.701,16.579-5.102,51.861-7.652,62.914s-11.053,67.166-11.053,67.166s-11.478-14.879-12.752-20.404
	c-1.274-5.527-6.376-16.58-3.826-19.129c2.552-2.551,12.328-10.203,14.453-14.453c2.125-4.252,3.401-5.527,3.826-11.904
	c0.425-6.375-1.063-9.562-4.357-15.41c-3.294-5.846-6.801-13.283-10.732-14.133c-3.933-0.85-5.739-2.764-9.565-1.914
	c-3.826,0.852-9.776,5.102-13.603,6.377s-14.453,2.977-14.453,2.977s-5.526-11.903-8.502-17.43
	c-2.977-5.526-14.028-11.902-15.303-14.878c-1.275-2.975-0.426-8.077,3.4-13.178s14.878-19.555,16.153-23.38
	c1.274-3.825,1.701-9.353,0.425-12.753c-1.275-3.4-5.526-12.328-8.502-15.303c-2.976-2.976-8.502-6.803-13.178-7.228
	c-4.677-0.425-8.928,1.275-10.627,2.977c-1.701,1.699-10.946,6.907-10.946,6.907l4.145-27.312L423.296,377.697z"/>
<path fill="#E1A6AA" d="M302.995,462.29c0,0,29.355,5.389,41.233,8.927c19.979,5.951,38.26,19.979,46.761,25.505
	c8.501,5.526,26.78,22.105,30.182,28.056c3.401,5.953,15.303,24.23,15.303,24.23s-15.303-9.777-18.278-11.479
	c-2.977-1.699-11.479-7.227-13.179-7.652c-1.699-0.424-6.376-0.424-6.376-0.424s-4.676-5.527-9.352-10.627
	c-4.676-5.102-16.579-15.73-25.506-19.98s-22.53-10.627-27.631-11.902c-5.102-1.275-13.604-0.851-13.604-0.851l-4.676,1.275
	l-20.405-26.356L302.995,462.29z"/>
<path fill="#FAC0BF" d="M186.944,1.913h37.408c0,0,1.7,26.781,2.976,35.708c1.275,8.927,7.227,42.084,8.077,45.91
	c0.85,3.826,0.85,3.826,1.7,3.401c0.85-0.425-20.405,8.502-25.931,12.753c-5.526,4.251-15.729,10.202-15.729,10.202
	s-3.826-10.202-5.951-17.004c-2.125-6.802-2.976-19.554-3.826-29.757c-0.85-10.202,0.425-33.157,0.425-39.959
	S186.944,1.913,186.944,1.913z"/>
<path fill="#FAC0BF" d="M331.051,59.726l14.878-56.963h104.573l-1.7,14.028c0,0-13.603,2.976-26.355,8.502
	s-32.732,14.453-44.636,19.129C365.908,49.098,331.051,59.726,331.051,59.726z"/>
<path fill="#FAC0BF" d="M495.562,313.082c-0.426-2.976,11.902-7.652,19.129-10.627c7.227-2.976,19.554-8.077,19.554-8.077
	s2.55,14.453,4.251,22.955c1.7,8.502,1.7,28.481,1.7,28.481s-11.052-8.502-15.729-11.478c-4.676-2.976-21.255-11.903-24.654-14.453
	C496.413,317.333,495.743,314.344,495.562,313.082z"/>
<g>
	<path fill="#FAC0BF" d="M152.724,472.068c-4.293-9.199-12.965-40.81-13.815-46.335c-0.85-5.526-6.376-37.833-7.227-51.861
		c-0.85-14.028,0.85-31.457,2.763-42.935c1.913-11.478,6.802-29.969,9.352-36.983c2.55-7.014,12.115-31.457,21.042-45.273
		c8.927-13.815,26.568-38.046,35.07-46.973s22.53-23.805,32.732-31.669c10.202-7.864,23.805-18.917,37.621-25.081
		c13.816-6.164,22.53-9.352,32.52-11.69c9.989-2.338,41.659-8.077,56.325-11.903c14.666-3.826,29.757-8.289,37.833-11.265
		s18.703-7.439,23.38-8.927c4.676-1.488,7.863-3.401,7.863-3.401s-2.763,11.478-2.976,18.492
		c-0.213,7.014-0.425,16.579,1.275,21.042c1.7,4.464,3.4,10.627,8.502,13.178c5.101,2.551,16.365,8.502,23.38,13.39
		c7.014,4.889,22.316,15.729,30.818,26.144s16.792,24.868,20.617,31.882c3.826,7.014,14.241,34.433,14.241,34.433
		s-6.376,3.188-14.666,5.951c-8.289,2.763-24.229,8.289-34.433,9.777c-10.202,1.488-32.096,4.888-46.548,5.739
		c-14.453,0.85-22.743,0-29.119-0.638c-6.376-0.638-28.057-4.038-34.221-4.038s-9.352-4.463-19.979-4.676
		c-10.627-0.212-24.443,0.85-33.582,3.614c-9.14,2.763-26.356,14.453-33.37,21.892s-18.492,24.868-20.83,42.084
		s-1.7,22.317-2.125,29.544c-0.425,7.227-3.613,21.892-6.802,29.119c-3.188,7.227-9.564,19.554-15.303,26.355
		c-5.739,6.802-18.917,22.317-27.418,30.183s-17.216,16.152-23.593,20.191s-19.554,8.502-22.317,8.077
		C156.975,479.082,154.211,475.256,152.724,472.068z"/>
</g>
<path fill="#EEC8C4" d="M156.762,478.444c0,0,5.101,9.989,6.164,13.814c1.062,3.826,2.976,6.589,5.739,10.84
	c2.299,3.538,4.888,13.815,5.739,22.955c0.85,9.141,1.275,11.266,1.488,17.43c0.197,5.721,1.913,18.492,1.913,18.492
	s2.976,9.352,4.251,13.816c1.275,4.463,6.376,18.279,9.565,22.529c3.189,4.252,8.714,11.479,12.965,13.814
	c4.251,2.338,19.342,6.59,28.694,6.164c9.352-0.424,14.666,0,20.192,1.275c5.526,1.275,13.815,3.188,18.917,2.764
	c5.101-0.426,21.892-6.164,27.844-11.266c5.952-5.102,14.453-11.689,17.854-18.916c3.401-7.229,7.228-21.256,9.99-26.145
	s11.052-15.729,12.753-23.381c1.7-7.65,2.551-14.453,0.212-21.467c-2.339-7.013-6.376-16.366-10.202-21.042
	s-23.805-27.418-28.269-33.583c-4.464-6.164-17.216-23.593-22.105-32.945c-4.889-9.352-14.453-29.969-16.154-35.282
	c-1.7-5.314-8.289-27.207-8.289-27.207s-5.951,20.404-11.052,29.756c-5.101,9.352-13.816,22.104-19.554,28.269
	c-5.739,6.164-18.704,19.555-24.018,24.655s-20.83,18.492-25.506,20.83c-4.676,2.338-13.603,4.676-16.366,4.251
	C156.762,478.444,156.762,478.444,156.762,478.444z"/>
<path fill="#737373" d="M271.325,530.944c-1.913,2.551-2.551,4.25-3.188,7.014c-0.637,2.762-0.85,4.25-0.425,5.951
	c0.425,1.699,1.913-4.676,2.338-6.801C270.475,534.981,271.325,530.944,271.325,530.944z"/>
<path fill="none" stroke="#333333" stroke-width="3.8258" stroke-linecap="round" d="M118.078,443.161c0,0-1.7-3.4-2.551-17.004
	c-0.85-13.604,0-36.558-0.85-58.663c-0.85-22.105,0-39.959,0-58.663s4.251-50.161,5.951-72.266c1.7-22.105,1.7-47.611,2.551-66.315
	c0.85-18.704,2.551-52.712,2.551-64.614c0-11.903-5.101-48.461-5.101-58.663c0-10.202-0.85-45.06-0.85-45.06h104.573
	c0,0,1.7,22.955,2.551,34.008c0.85,11.052,3.401,24.656,5.101,31.457c1.7,6.802,4.251,17.854,4.251,17.854"/>
<path fill="#333333" stroke="#333333" stroke-width="2.5506" stroke-linecap="round" stroke-linejoin="round" d="M186.944,80.98
	c0,0,2.551,16.154,4.251,22.955c1.7,6.802-1.488,9.99-1.488,9.99l7.864-6.376c0,0-6.376-9.565-8.927-16.366
	c-2.551-6.802-3.401-26.356-3.401-41.659c0-15.303,1.7-47.611,1.7-47.611"/>
<polyline fill="none" stroke="#333333" stroke-width="3.8258" stroke-linecap="round" points="331.901,58.025 345.929,2.763 
	450.502,2.763 448.802,15.516 "/>
<line fill="none" stroke="#333333" stroke-width="2.9757" stroke-linecap="round" x1="400.766" y1="2.763" x2="393.54" y2="35.92"/>
<path fill="#333333" d="M163.776,139.856c4.762-4.241,6.544-10.636,11.607-14.719c8.743-7.05,15.625-14.343,25.082-20.798
	c10.051-6.861,19.774-11.798,30.549-16.165c14.445-5.854,27.847-12.726,43.284-16.77c13.707-3.59,26.974-5.989,40.387-9.341
	c2.317-0.579,7.763-1.263,9.705-1.915c11.683-3.92,19.803-6.504,31.664-9.949c19.416-5.638,37.303-12.861,55.265-21.872
	c5.504-2.761,8.821-3.926,14.583-6.102c3.134-1.184,7.737-3.248,9.181-3.647c14.146-3.914,19.699-6.277,27.961,1.825
	c-1.542-1.512-5.947-3.238-9.398-3.655c-9.376-1.133-18.292,4.703-27.073,7.728c-2.392,0.824-4.54,2.6-6.964,3.317
	c-3.29,0.974-6.157,2.631-9.109,4.015c-5.067,2.375-10.035,4.889-15.177,6.97c-16.944,6.859-33.292,13.893-50.901,19.385
	c-13.07,4.076-24.066,6.573-37.454,10.009c-4.231,1.086-9.286,2.084-13.535,2.816c-6.338,1.093-13.302,3.507-19.937,5.234
	c-11.733,3.055-23.125,7.587-34.806,11.62c-12.489,4.312-23.632,10.235-35.086,17.801c-1.322,0.873-2.732,1.555-3.998,2.49
	c-6.707,4.952-13.13,8.934-19.068,14.485c-5.439,5.086-10.475,10.198-15.484,15.535"/>
<path fill="#333333" d="M470.65,45.087c-3.357-7.466-5.907-16.393-13.23-21.534c-1.295-0.909-2.829-0.215-3.595,1.177
	c-1.124,2.04-1.113,4.489-0.732,6.683c0.912,5.256,0.61,10.417,2.472,15.281c2.051,5.363,5.117,9.884,8.521,14.812
	c1.838,2.662,4.67,5.12,7.854,4.613c1.03-0.165,2.439-0.664,2.458-1.932c0.109-7.414-0.398-15.651-5.054-22.048
	c-0.207-0.285-0.704,0.07-0.708,0.372c-0.062,3.99,2.294,7.221,3.141,11.094c0.583,2.667,0.658,5.407-0.038,7.971
	c-0.082,0.303-1.345,0.236-1.835-0.406c-2.556-3.343-5.411-6.101-7.146-9.798c-2.968-6.328-5.671-12.979-5.452-19.907
	c0.004-0.143-0.002-1.707,2.03-0.757c6.002,2.805,10.508,19.667,11.358,15.204C470.694,45.626,470.753,45.315,470.65,45.087z"/>
<path fill="none" stroke="#333333" stroke-width="2.5506" stroke-linecap="round" d="M474.308,38.471
	c3.975,8.217,9.353,29.332,2.552,33.583c-6.803,4.251-14.878,0-22.955-19.129c-8.077-19.129-9.353-33.583-5.102-36.133
	C453.053,14.24,461.768,12.54,474.308,38.471z"/>
<path fill="#333333" d="M464.743,70.353c-1.794-1.139,3.188,2.657,3.4,4.145c0.213,1.488,0,2.763-2.02,3.932
	c-2.019,1.169-17.11,8.927-24.124,11.69c-7.014,2.763-39.109,16.366-49.311,19.767c-10.202,3.401-41.234,12.541-59.514,15.303
	c-18.278,2.763-36.345,6.376-46.123,10.202c-9.777,3.826-31.032,14.878-39.109,20.192c-8.077,5.314-28.694,22.53-38.046,32.52
	s-25.081,28.481-31.245,36.346c-6.164,7.864-18.491,28.056-23.38,38.471c-4.888,10.415-13.816,29.757-18.917,52.287
	s-8.077,33.157-7.227,58.238c0.85,25.082,5.314,31.882,5.739,39.535c0.425,7.651,0.85,10.84,0.213,13.815
	c-0.638,2.977-0.638,5.738-2.551,6.588c-1.913,0.852-5.314,0.852-7.652,2.338c-2.338,1.488-4.676,3.188-6.164,5.313
	c-1.488,2.125-3.401,4.889-4.888,8.927c-1.488,4.038-1.7,7.651-2.126,10.84c-0.425,3.188,1.913-5.738,4.464-10.84
	c2.551-5.101,4.251-8.077,7.014-9.99c2.763-1.913,4.251-2.338,7.439-2.763s4.251-1.7,6.802-0.425c2.551,1.274,3.613,0.85,4.464,4.25
	c0.85,3.401,1.913,8.502,2.976,12.965c1.063,4.464,1.913,8.077,3.826,13.391c1.913,5.314,1.913,6.376,5.101,12.328
	s5.739,8.928,7.014,12.541c1.275,3.613,1.488,6.802,3.401,9.564s4.038,4.464,6.589,6.589s3.613-2.55,3.613-2.55
	s-1.7-1.913-4.038-5.102c-2.338-3.188-4.889-9.14-6.589-11.478c-1.7-2.338-3.188-5.102-3.826-6.376
	c-0.638-1.275-1.275-2.338,1.275-2.125c2.55,0.213,6.164-0.425,8.289-1.913s-0.85-2.55-0.85-2.55s-2.551,2.338-4.889,1.7
	c-2.338-0.639-3.826-0.426-6.164-3.826c-2.338-3.401-6.589-11.266-9.352-21.468c-2.763-10.202-5.101-21.68-7.014-30.818
	c-1.913-9.141-3.613-13.604-5.314-24.656c-1.7-11.052-3.188-24.443-2.976-35.92s3.401-45.698,13.39-71.841
	c9.99-26.144,22.743-47.611,41.022-69.928c18.279-22.317,24.23-29.332,35.283-38.896c11.052-9.565,23.805-20.405,35.496-26.781
	c11.69-6.376,21.892-11.477,32.945-15.516c11.052-4.039,22.53-6.802,34.434-8.502c11.902-1.7,21.467-3.401,36.558-7.227
	c15.091-3.826,29.331-8.29,40.596-12.115c11.266-3.826,25.081-10.415,35.708-15.091c10.627-4.676,25.932-12.54,29.757-14.453
	c3.826-1.913,6.14-4.382,8.289-6.483c4.57-4.464,3.401-8.608,3.401-8.608s-1.275,6.376-4.463,7.014
	C472.182,73.541,470.27,73.86,464.743,70.353z"/>
<path fill="#333333" d="M373.135,118.176c0,0-0.638,1.7,0.851,5.314c1.487,3.614,1.699,4.676,6.802,7.014
	c5.101,2.338,17.217,5.951,25.718,8.927c8.502,2.976,25.506,10.202,34.008,14.878c8.502,4.676,38.472,23.593,49.736,38.684
	c11.265,15.091,20.617,34.22,24.229,42.297c3.613,8.077,7.652,18.067,7.864,19.979c0.213,1.913,2.552-0.425,2.552-0.425
	s-5.102-18.917-14.453-35.495c-9.353-16.579-18.067-33.157-43.572-51.437c-25.506-18.279-27.844-16.366-32.732-19.979
	c-4.888-3.613-6.164-7.227-7.227-11.69c-1.063-4.463-1.063-4.463-1.063-4.463s-0.425-12.966,0.426-20.617
	c0.85-7.651,2.551-12.54,2.551-12.54l-2.338,1.275c0,0-1.7,8.502-2.125,14.028c-0.425,5.526-0.639,9.139-0.425,13.603
	c0.212,4.464,0.425,5.314,0.85,8.714c0.425,3.401,3.401,6.376,0.212,5.314c-3.188-1.063-17.216-4.676-23.593-7.014
	c-6.376-2.338-15.091-4.463-18.066-6.589c-2.975-2.126-5.525-5.526-6.164-7.439c-0.638-1.913-0.638-3.188-0.638-3.188
	L373.135,118.176z"/>
<g>
	
		<ellipse transform="matrix(-0.9191 0.3939 -0.3939 -0.9191 1164.451 287.3122)" fill="none" stroke="#333333" stroke-width="2.9757" stroke-linecap="round" cx="552.739" cy="263.163" rx="10.219" ry="18.635"/>
	<path fill="none" stroke="#333333" stroke-width="2.9757" stroke-linecap="round" d="M552.738,263.134"/>
</g>
<g>
	
		<ellipse transform="matrix(-0.9191 0.394 -0.394 -0.9191 1164.4548 287.2867)" fill="none" stroke="#333333" stroke-width="1.7004" stroke-linecap="round" cx="552.74" cy="263.163" rx="5.11" ry="12.022"/>
	<path fill="none" stroke="#333333" stroke-width="1.7004" stroke-linecap="round" d="M552.738,263.134"/>
</g>
<path fill="none" stroke="#333333" stroke-width="1.7004" stroke-linecap="round" d="M549.064,252.72
	c2.594-1.112,6.471,3.137,8.795,9.357c1.467,3.926,2.739,10.677,0.146,11.789c-2.594,1.112-6.286-1.979-8.901-8.082
	C546.488,259.681,546.47,253.832,549.064,252.72z"/>
<path fill="none" stroke="#333333" stroke-width="1.7004" stroke-linecap="round" d="M553.8,263.771"/>
<path fill="#333333" d="M554.119,280.243c-0.957,1.275-0.85,1.382-4.782,3.932c-3.932,2.551-14.347,7.227-18.704,9.246
	c-4.356,2.019-9.671,4.145-15.197,6.376c-5.525,2.231-12.753,5.526-16.791,6.695s-6.907,2.444-11.371,2.551
	c-4.464,0.106-7.971-0.319-10.415-1.275s-10.415-5.207-10.415-5.207s10.309,7.652,14.24,9.033c3.933,1.381,6.803,2.551,9.777,4.145
	c2.977,1.594,3.932,2.657,8.396,4.889c4.463,2.231,9.563,5.42,13.283,7.864c3.721,2.444,5.313,3.082,9.353,5.633
	s14.666,9.884,23.168,16.685c8.501,6.802,12.434,8.821,16.047,12.115c3.613,3.294,5.42,5.526,7.121,7.333
	c1.7,1.807,4.57,4.145,6.058,6.058c1.488,1.913,4.463,1.913,1.808-1.807c-2.657-3.719-13.709-13.922-20.617-19.129
	c-6.908-5.208-13.497-10.84-20.617-15.941s-25.081-15.729-29.225-18.067c-4.146-2.338-7.228-3.294-7.439-4.995
	c-0.213-1.7,1.339-3.965,3.188-5.633c5.42-4.889,14.347-7.333,22.104-10.202s19.023-8.289,23.593-10.415
	c4.57-2.125,13.497-7.652,15.197-9.777s2.338-4.57,2.55-6.27s-0.53,2.019-2.019,3.72c-1.488,1.701-2.551,2.657-4.146,2.551
	C556.67,280.243,554.119,280.243,554.119,280.243z"/>
<path fill="#333333" d="M535.734,295.122c1.062,6.164,3.4,18.385,4.039,25.187c0.637,6.801,0.478,23.646,0.478,23.646l-1.7-1.275
	c0,0,0.372-11.106-0.902-20.883c-1.275-9.777-1.913-15.729-2.977-18.917c-1.062-3.188-2.178-6.323-2.178-6.323L535.734,295.122z"/>
<path fill="none" stroke="#333333" stroke-width="2.5506" stroke-linecap="round" d="M574.532,375.024
	c6.91,4.893,2.105,23.14-7.582,36.824c-9.689,13.685-26.333,23.362-33.243,18.471c-6.91-4.893-6.475-18.188,7.583-36.612
	C555.584,374.971,567.622,370.132,574.532,375.024z"/>
<path fill="none" stroke="#333333" stroke-width="2.5506" stroke-linecap="round" d="M568.226,386.633
	c3.402,2.655-0.298,13.721-8.265,23.93c-7.967,10.207-17.184,16.329-20.587,13.674c-3.402-2.656,0.298-13.084,8.265-23.292
	C555.606,390.737,564.824,383.977,568.226,386.633z"/>
<path fill="none" stroke="#333333" stroke-width="2.5506" stroke-linecap="round" d="M569.076,384.294
	c3.402,2.656-0.724,15.209-8.69,25.417s-17.608,17.18-21.012,14.524c-3.402-2.656,1.147-16.061,9.115-26.268
	C556.456,387.761,565.674,381.639,569.076,384.294z"/>
<path fill="#333333" d="M376.323,407.453c0,0-0.851,0.637,3.4,4.463s6.589,7.014,8.289,10.415s3.188,7.652,5.739,11.052
	c2.55,3.401,3.188,5.103,6.801,7.439c0,0,9.353,7.651,12.965,11.478c3.613,3.826,8.29,12.54,10.415,17.643
	c2.125,5.101,8.077,10.415,10.415,13.814c2.338,3.401,7.228,12.965,7.228,12.965s2.551,2.338,4.039,2.977
	c1.487,0.638,7.014,5.525,9.352,9.776c2.338,4.252,8.502,17.854,11.266,24.655c2.763,6.803,7.014,15.092,11.478,20.617
	c4.463,5.527,13.604,17.643,17.429,24.018c3.826,6.377,7.228,14.029,9.141,18.705s2.125,6.164,4.463,9.352
	s15.94,18.066,21.68,27.631s8.289,14.029,12.115,21.467c3.826,7.439,7.227,13.604,7.864,28.906s1.274,31.033,1.487,38.684
	c0.212,7.652-0.638,28.482-3.188,40.385s-8.29,26.994-10.627,34.434c-2.338,7.438-4.251,14.027-7.228,26.566
	c-2.976,12.541-8.714,27.207-12.328,34.434c-3.613,7.227-20.829,40.809-38.259,59.088c-17.429,18.279-31.032,34.434-57.175,55.051
	c-26.144,20.617-41.872,34.434-60.789,41.021s-15.516,5.525-23.593,7.65s-24.23,6.59-31.032,8.291
	c-6.802,1.699-22.742,5.312-31.032,5.738c-8.289,0.426-24.868-0.213-33.157-0.85c-8.289-0.639-19.129-4.252-27.631-7.865
	s-26.993-13.178-32.732-16.791c-5.739-3.613-32.094-25.08-41.872-31.668c-9.777-6.59-24.443-16.793-34.433-24.23
	c-9.99-7.439-22.53-17.854-27.631-23.805c-5.101-5.953-7.439-10.627-11.265-12.754c-3.826-2.125-11.478-5.738-17.854-11.902
	s-17.429-19.555-21.892-27.631c-4.463-8.078-8.289-13.604-9.564-20.617s-0.638-9.564-2.763-15.092
	c-2.125-5.525-11.052-23.168-12.54-31.67c-1.488-8.5-4.251-25.717-2.976-38.684c1.275-12.965,2.338-25.08,6.376-33.795
	s0.213-9.777,0.213-15.516c0-5.74-2.338-14.027,1.275-32.307c3.613-18.279,7.652-25.293,9.565-33.158
	c1.913-7.865,1.7-14.879,3.401-20.193c1.7-5.312,4.676-13.178,8.289-19.979c3.613-6.801,8.077-13.178,10.415-22.529
	c2.338-9.352,7.652-26.145,9.565-32.096c1.913-5.951,6.589-18.492,10.627-25.08c4.038-6.59,11.69-14.666,14.241-19.768
	c2.551-5.101,8.077-16.791,12.54-25.08c4.464-8.289,11.265-18.492,14.666-27.418c3.401-8.928,4.889-14.241,7.227-20.405
	c0,0,4.463-10.202,5.314-11.69c0.85-1.487,2.763-4.039,2.763-4.039l0.425,7.439c0,0-0.85-0.638-2.763,2.338
	c-1.913,2.976-5.101,14.241-7.227,19.767c-2.125,5.526-6.802,17.854-9.777,24.23c-2.976,6.376-9.565,17.003-12.541,22.742
	c-2.976,5.738-7.652,13.39-9.352,17.216c-1.7,3.826-2.338,4.889-2.338,6.801c0,1.914-0.85,3.826,0,3.402
	c0.85-0.426,6.376-4.465,6.376-4.465s-4.251,2.977-4.889,5.102c-0.638,2.125-2.763,5.525-3.401,7.652
	c-0.638,2.125-1.913,5.738-2.976,7.438c-1.063,1.701-2.551,6.164-2.551,9.354c0,3.188,0.425-8.291,1.913-11.479
	c1.488-3.188,2.126-5.738,1.913-7.439c-0.213-1.699-1.488-2.125-3.826-0.426c-2.338,1.701-7.439,7.016-9.99,14.879
	c-2.551,7.863-7.227,25.719-8.502,31.457c-1.275,5.738-0.85,8.928-2.338,12.115c-1.488,3.188-7.439,11.053-11.903,19.768
	c-4.464,8.713-7.439,16.152-8.502,22.529s-1.063,9.141-2.763,15.516c-1.7,6.377-3.401,11.902-5.526,19.342
	s-5.101,13.604-5.739,24.443c-0.638,10.84-0.425,17.854,0.212,21.043c0.638,3.188,0.85,4.887,1.913,5.949s2.338,1.275,1.913,2.34
	c-0.425,1.062-2.125,3.824-3.613,7.438c-1.488,3.615-3.613,10.627-4.676,15.941c-1.063,5.312-3.188,16.367-2.763,29.756
	c0.425,13.391,2.551,27.42,5.101,33.795c2.55,6.377,6.589,7.652,8.502,9.99c1.913,2.338,2.976,7.439,4.038,11.689
	c1.062,4.252,1.275,10.416,2.338,16.791c1.063,6.377,3.613,16.154,8.289,20.193c4.676,4.039,8.077,11.902,12.115,18.066
	s10.415,13.178,13.391,15.729s4.888,4.676,7.014,4.676c2.126,0,1.275-2.125,0.638-3.826c-0.638-1.699-4.464-7.227-6.376-9.139
	c-1.912-1.914,1.7,0,4.889,2.975c3.189,2.977,17.004,13.816,19.342,15.518c2.338,1.699-6.164-3.826-7.864-4.039
	c-1.7-0.213-2.763,0-1.275,2.125c1.488,2.125,4.676,7.863,8.502,11.902c3.826,4.039,23.38,21.893,37.196,30.182
	c13.816,8.291,34.22,22.531,44.635,31.457c10.415,8.928,47.611,34.008,63.552,37.834s35.07,6.164,53.774,3.4
	s49.949-11.266,68.015-16.791c18.067-5.527,32.52-12.754,52.925-30.184c20.404-17.428,45.91-37.408,55.688-47.186
	c9.776-9.777,31.457-33.582,38.471-45.061c7.014-11.477,19.767-35.283,24.655-47.396c4.889-12.115,9.989-36.348,14.027-49.312
	s9.565-27.205,11.266-43.359c1.7-16.152,0.638-33.795,0.212-45.061c-0.425-11.264-1.062-25.719-1.913-32.73
	c-0.852-7.016-3.614-13.604-6.164-17.43c-2.551-3.826-8.077-10.84-11.053-16.365c-2.977-5.527-7.864-10.629-10.84-14.879
	c-2.977-4.252-3.826-6.377-6.802-10.84c-2.976-4.465-9.14-14.455-10.627-18.918c-1.486-4.463-5.739-12.965-12.541-23.166
	c-6.801-10.203-9.989-12.754-13.178-17.43s-7.227-11.902-10.84-20.617s-7.652-18.067-9.99-22.317s-5.526-8.289-7.438-9.353
	c-1.913-1.062-3.826-2.55-4.25-1.488c-0.426,1.063-0.639,5.103-0.639,7.015c0,1.913-0.425,6.164-0.425,6.164
	s-0.638-7.864-2.125-14.028c-1.488-6.164-3.188-11.265-6.164-14.666c-2.976-3.401-7.652-5.526-9.777-8.29s-3.4-8.29-5.313-13.178
	c-1.913-4.89-4.463-8.29-7.651-11.054c-3.188-2.763-9.352-3.825-11.902-6.376c-2.551-2.55-6.589-8.076-7.652-12.752
	s-2.763-9.352-4.889-12.328c-2.125-2.976-5.739-8.076-7.439-8.714s-3.401-1.913-3.401-1.913L376.323,407.453z"/>
<path fill="#333333" d="M397.578,438.591c0,0,1.913,0.744,4.676,0.744s7.74-2.147,9.99-3.188c7.12-3.296,10.84-6.803,14.453-9.565
	c3.612-2.763,7.863-4.039,11.052-3.188c3.188,0.851,10.415,2.444,16.473,11.479c6.05,9.021,7.12,14.028,7.333,16.579
	c0.213,2.55,0.426,4.889-1.699,9.352s-7.228,11.69-10.202,15.517c-2.977,3.825-6.722,9.241-7.652,12.54
	c-1.169,4.145-0.957,7.121-0.957,7.121l-4.676-8.077c0,0,5.525-8.82,9.352-13.709c3.613-4.618,10.011-11.944,11.583-15.091
	c2.338-4.677,1.063-9.141-0.637-13.816c-1.701-4.676-3.295-8.289-6.271-11.903c-3.057-3.712-7.758-7.014-11.37-7.864
	c-3.613-0.85-5.102-1.274-8.077,0.851c-2.977,2.125-6.589,4.889-10.84,7.864c-4.25,2.976-12.328,7.65-13.815,8.289
	c-1.487,0.638-1.381,0.743-1.381,2.02C404.911,445.818,397.578,438.591,397.578,438.591z"/>
<path fill="#333333" d="M461.661,524.78c0,0,1.381,1.486,3.72,1.912c2.338,0.426,4.463,0.426,6.376,0s10.202-4.039,12.328-5.312
	c2.125-1.275,4.676-3.188,7.439-2.976c2.763,0.213,6.802,1.488,8.927,3.187c2.125,1.701,8.927,7.334,11.052,11.479
	s5.208,10.416,5.633,13.922c0.425,3.508,0.318,8.928-0.425,11.904c-0.744,2.975-4.356,7.332-6.802,9.562
	c-2.444,2.232-7.651,6.059-8.82,7.865s-2.338,4.463-2.338,6.588c0,2.127,0.532,3.932,0.532,3.932l-6.271-10.732
	c0,0,0.957,0.424,1.808,0c0.85-0.426,5.525-4.889,8.077-7.121c2.55-2.23,7.863-7.227,9.563-10.732
	c1.7-3.508,2.763-8.396,2.338-11.479s-1.7-7.758-3.612-11.053c-1.913-3.295-4.57-7.332-6.802-9.352s-6.058-4.996-7.863-5.633
	c-1.807-0.637-5.314-0.424-7.439,0.213s-5.312,3.188-7.333,4.25c-2.02,1.062-8.183,4.145-10.415,4.676
	c-2.231,0.533-6.151,0.957-6.589,0.957C464.318,530.836,461.661,524.78,461.661,524.78z"/>
<polygon fill="#333333" points="421.383,379.397 415.751,434.765 418.514,432.852 425.209,379.397 "/>
<path fill="#333333" d="M536.584,432.8c0,0-7.439,72.852-9.14,89.855c-1.7,17.004-13.284,87.037-14.135,90.014
	c-0.85,2.975,1.753,2.23,1.753,2.23s9.118-50.627,12.382-71.842c4.676-30.394,11.956-108.665,12.168-110.364
	C539.824,430.993,536.584,432.8,536.584,432.8z"/>
<path fill="#737373" d="M175.679,556.555c0.744,3.826,7.405,29.551,10.84,35.814c3.613,6.588,11.69,20.191,24.018,24.018
	s29.119,3.188,32.307,2.764c3.188-0.426,10.415,3.188,16.366,4.25s23.805,1.699,33.157-4.463
	c9.352-6.164,18.492-14.24,22.955-19.555c4.464-5.312,5.738-10.203,7.438-15.09c1.7-4.889,4.676-11.053,6.589-15.09
	c1.913-4.039,8.716-15.305,10.627-19.129c1.913-3.826,4.146-16.686,4.251-19.129c0.148-3.4-0.743-6.695-1.912-10.947
	c-1.169-4.25-5.739-13.497-8.503-17.748c-2.763-4.251-9.989-11.903-12.966-15.091c-2.976-3.188-13.709-15.835-19.448-24.549
	c-5.739-8.715-16.791-23.594-21.999-34.114c-3.251-6.569-11.478-25.718-15.091-34.22c-3.613-8.502-6.483-26.143-6.483-26.143
	s-0.531,1.488-0.531,2.976s-1.488,8.289-1.488,8.289s4.038,12.115,7.864,22.105s10.627,23.168,15.516,32.732
	c4.889,9.563,18.067,27.949,21.361,32.731s9.99,13.604,14.028,17.96c4.038,4.357,11.689,11.796,14.241,14.878
	c2.551,3.082,7.227,10.946,8.607,14.561c1.381,3.613,4.357,10.839,4.463,14.027c0.106,3.189,0.213,3.721-1.7,11.055
	c-1.969,7.545-6.802,15.939-11.052,20.191c-4.25,4.25-11.052,8.928-16.791,10.414c-5.739,1.488-12.965,2.338-18.704,1.275
	c-5.739-1.062-14.241-2.762-15.941-3.613c-1.7-0.85-2.551-1.273-3.401-4.889c-0.85-3.613-4.464-11.266-6.164-13.604
	c-1.7-2.338-5.101-6.588-7.014-7.65c-1.913-1.064-7.439-2.338-9.565-2.125c-2.126,0.213,4.251,0.637,6.589,1.912
	s5.101,2.977,7.227,7.014c2.125,4.039,4.251,5.953,5.526,11.053c1.275,5.102,3.188,8.502,2.338,13.604s-3.401,11.689-5.739,17.217
	c-2.338,5.525-4.039,9.352-7.652,12.752c-3.613,3.4-6.802,5.951-9.352,7.865c-2.551,1.912-12.54,5.951-12.54,5.951l14.666,0.213
	c0,0,1.275-1.701,2.976-3.826c1.7-2.125,4.039-5.314,7.652-9.566c3.613-4.25,7.439-13.814,9.777-18.064
	c2.338-4.252,3.401-8.078,5.526-8.928s5.101-1.488,8.715-1.275c3.614,0.213,9.565,1.062,13.603,0.85
	c4.038-0.211,9.139-1.486,11.689-2.338c2.552-0.85,4.463-2.338,5.739-0.213c1.275,2.127,3.613,4.465,1.913,9.566
	c-1.7,5.1-5.526,13.391-9.99,17.854c-4.463,4.463-12.753,11.479-19.979,14.453c-7.226,2.975-11.69,4.463-17.429,4.676
	c-5.739,0.211-9.352-1.488-12.328-1.914c-2.976-0.424-7.652-1.912-11.265-2.125c-3.614-0.211-12.541,0.639-18.279,0.852
	c-5.739,0.213-14.843-1.375-18.279-2.551c-8.077-2.764-14.028-9.141-18.067-14.453c-4.038-5.314-7.014-11.053-8.927-16.367
	s-4.322-13.219-5.101-15.729c-0.957-3.082-2.498-13.709-2.498-13.709c-0.372-8.82-0.797-13.285-1.222-18.918
	c-0.425-5.633-0.85-10.414-1.807-14.771c-0.956-4.357-1.7-7.439-2.338-8.713c-0.638-1.275-1.7-3.508-1.169,0
	c0.531,3.507,1.488,8.926,1.7,11.69c0.213,2.762-0.319,2.869,0.425,8.289c0.744,5.42,0.957,6.908,1.063,12.434
	C174.829,549.754,174.935,552.729,175.679,556.555z"/>
<path fill="#D16563" d="M517.667,648.907c-1.428-9.281-2.976-20.404-9.777-27.631c-6.801-7.227-16.152-14.877-25.081-20.404
	c-8.927-5.525-21.68-16.154-28.48-24.656s-18.917-25.506-18.917-25.506s-10.415-8.5-18.492-13.178
	c-8.077-4.676-11.903-7.439-15.303-6.801c-3.401,0.637-2.125,1.275-2.551,2.977c-1.477,5.904,0.85,14.877-2.125,22.529
	c-2.977,7.652-7.228,17.854-16.154,24.23c-8.927,6.375-18.279,13.604-27.206,19.129s-15.303,11.053-21.68,18.279
	c-6.376,7.227-7.228,11.902-11.903,16.154c-4.676,4.25-15.728,10.201-22.53,14.453c-6.802,4.25-18.279,11.477-23.38,17.854
	c-5.101,6.375-10.627,12.752-15.303,16.578c-4.676,3.826-14.028,11.479-16.154,17.004c-2.126,5.527-6.802,14.453-8.927,28.906
	c-2.125,14.455-2.551,20.406-6.376,28.48c-3.826,8.078-12.328,17.43-14.028,23.381c-1.7,5.951-2.551,19.555-2.125,28.057
	c0.426,8.502-2.976,20.83-5.951,28.055c-2.975,7.227-8.502,17.004-9.352,26.357c-0.85,9.352-0.425,22.955,0.425,31.457
	s-0.85,18.703-0.85,25.504c0,6.803,0,19.555,1.7,27.631s2.976,19.129,2.976,27.207c0,8.076-1.275,19.979,0.85,27.631
	c2.125,7.65,11.903,21.68,17.429,24.23c5.526,2.549,13.603,0.85,13.603,0.85s-7.652-0.85-11.903-5.527
	c-4.251-4.676-7.227-11.051-10.202-18.277c-2.976-7.229-2.125-22.531-2.551-34.008c-0.425-11.479-1.275-16.58-2.551-24.23
	c-1.275-7.652-2.125-14.879-1.7-25.932c0.425-11.053,2.551-14.027,2.551-22.529s-3.401-17.43-1.275-28.057
	c2.125-10.627,8.927-23.381,11.478-29.332c2.551-5.951,6.802-18.703,6.802-27.631s-0.85-21.256,1.7-26.355
	c2.55-5.102,7.652-15.305,9.352-17.43c1.7-2.125,3.826-1.701,5.526,0c1.7,1.699,15.303,10.627,17.854,12.328
	c2.551,1.699,6.376,5.525,6.802,9.777c0.425,4.25,0,13.178-1.275,15.729c-1.275,2.551-1.7,10.627-1.275,13.178
	c0.425,2.551,6.802,10.627,9.777,13.604c2.976,2.977,4.251,7.652,3.826,11.479c-0.425,3.826-4.676,12.328-4.676,16.578
	c0,4.252,0,9.777,2.551,13.604c2.551,3.826,6.376,7.227,7.652,12.328c1.275,5.1,1.275,11.902,4.251,15.303
	c2.976,3.4,6.376,6.803,8.927,8.502c2.551,1.701-4.676-5.525-5.951-9.352c-1.275-3.826-0.85-9.354-1.7-13.604
	c-0.85-4.252-1.275-8.076-4.251-11.902s-5.101-8.502-4.676-13.178c0.425-4.676,5.101-10.627,5.526-14.879
	c0.425-4.25,0.425-11.902-1.7-15.303s-8.927-9.352-10.202-12.328s-2.551-8.078-1.275-12.328c1.276-4.252,1.275-4.252,1.275-4.252
	s1.275-5.1,1.275-10.627c0-5.525,0.85-12.752-7.652-20.404c-8.502-7.65-13.178-8.928-15.729-13.178
	c-2.551-4.252-5.526-8.502-5.526-14.027c0-5.527,0.85-17.855,2.551-21.256c1.7-3.4,2.551-14.879,5.951-18.703
	c3.401-3.826,8.927-11.055,11.478-12.754c2.551-1.699,7.227-6.375,8.077-4.676c0.85,1.701,2.125,3.826,2.551,7.227
	c0.425,3.4,0,10.627-0.85,14.879c-0.85,4.25-1.275,10.627-0.425,15.729s3.826,8.502,5.526,12.328s2.551,5.951,2.551,8.926
	c0,2.977,1.7-7.227,0-10.627c-1.7-3.4-3.826-5.525-4.251-9.775c-0.425-4.252-0.425-10.627,0.425-13.604s3.401-11.053,2.976-15.729
	c-0.425-4.676-2.551-11.053-1.275-14.453c1.276-3.402,3.826-8.078,9.777-13.178c5.951-5.102,22.53-14.453,29.332-18.279
	s15.729-12.328,19.129-17.004c3.401-4.676,6.802-10.627,8.502-11.902s2.976-1.275,2.976,4.25c0,5.527,0.851,22.105-1.699,35.709
	c-2.551,13.604-8.077,28.057-11.053,32.307c-2.975,4.252-9.352,15.729-8.502,19.979c0.851,4.252,5.102,11.479,5.951,15.303
	c0.851,3.826,0,9.777-1.7,11.904c-1.699,2.125-12.753,6.152-12.753,12.752c0,4.676,2.125,8.926,3.826,11.479
	c1.7,2.549,3.401,5.525,2.551,8.5c-0.85,2.977-4.251,8.928-5.101,12.328c-0.851,3.4,0.425,8.076,2.125,11.053
	c1.7,2.975,5.101,6.801,5.101,6.801s-4.251-5.525-4.251-11.053s2.551-11.053,4.676-14.453s3.401-6.801,2.977-9.777
	c-0.425-2.975-2.551-6.375-2.977-9.352c-0.425-2.977,0-6.375,2.977-8.502c2.976-2.125,8.927-6.375,9.777-9.777
	c0.85-3.4,2.125-8.926,0.85-12.328c-1.275-3.4-6.376-10.627-5.951-16.578s7.228-12.752,9.353-17.854s5.525-13.604,7.651-23.381
	c2.125-9.777,4.676-23.379,4.676-33.158c0-9.777-0.85-16.152,2.977-21.68c3.826-5.525,11.903-13.178,18.704-18.279
	s23.38-21.68,26.781-26.355c3.4-4.676,6.802-12.754,8.076-16.58c1.275-3.824,0.426-9.352,2.125-8.926
	c1.7,0.424,3.826,1.275,7.651,7.652c3.826,6.375,14.454,23.379,21.255,30.605c6.802,7.229,19.554,17.43,23.38,23.807
	c3.826,6.375,10.627,28.904,10.202,36.557s5.102,10.627,8.077,16.58c2.976,5.951,10.202,16.578,11.053,23.805
	s-1.701,14.877,0.851,22.105c2.55,7.227,8.927,15.303,9.776,22.104c0.851,6.803,0,19.129-1.7,25.932s-3.826,15.305-1.7,24.656
	s2.976,17.854,1.274,25.08c-1.7,7.229-6.376,16.58-8.927,24.23s-2.976,10.203-4.251,19.129c-1.275,8.928-5.101,18.279-8.927,23.807
	c-3.826,5.525-6.802,9.777-9.353,14.877c-2.551,5.104-6.376,10.203-10.203,13.604c-3.825,3.4-6.801,5.953-7.65,9.354
	c-0.852,3.4-2.125,3.4-5.102,9.352c-2.976,5.953-5.102,8.502-8.076,11.479c-2.977,2.977,10.202-9.777,11.902-13.604
	s4.251-8.076,7.228-11.479c2.976-3.398,11.478-11.477,15.303-17.002c3.826-5.525,10.203-11.479,13.603-18.705
	c3.401-7.227,6.376-13.178,7.228-20.404c0.851-7.227,2.551-14.877,5.952-23.381c3.4-8.5,7.65-18.277,8.077-25.93
	c0.425-7.65-1.275-19.555-1.7-25.506s2.125-11.902,3.826-19.979c1.699-8.076,2.551-18.279,0.425-26.355
	c-2.126-8.078-6.376-14.453-7.228-19.555c-0.851-5.102-1.274-15.305-2.126-22.105c-0.85-6.801-5.101-18.703-8.501-24.656
	c-3.4-5.949-7.651-10.201-8.502-15.729c-0.85-5.525-0.85-17.428-1.274-20.83c-0.426-3.4-1.7-8.926-1.7-8.926
	s3.826,2.549,5.951,3.398c2.125,0.852,11.901,13.18,13.178,16.58c1.274,3.4,1.601,9.756,2.551,14.027
	c1.7,7.652,5.526,19.555,9.353,25.932c3.825,6.375,9.352,17.43,11.478,26.355c2.125,8.928,3.826,22.531,2.551,29.332
	c-1.274,6.803-2.976,11.479-2.976,18.279s1.701,13.604,0.425,19.129c-1.275,5.525-5.526,13.604-6.802,18.279
	s-2.55,8.076-2.55,14.877c0,6.803,0.216,11.447-0.426,16.58c-1.062,8.502-2.976,10.201-4.676,12.328
	c-1.701,2.125-2.551,2.977-2.976,7.652s-0.071,6.447-0.852,9.352c-2.338,8.713,2.338-9.564,3.614-12.115
	c1.275-2.551,7.014-7.014,7.864-11.266c0.851-4.25,1.727-15.234,2.551-22.104c1.275-10.629,4.676-17.43,6.802-22.105
	c2.125-4.676,4.25-13.178,4.25-19.129c0-1.992-0.325-10.805,0.324-15.256c1.291-8.842,3.925-19.334,3.077-26.402
	c-1.275-10.627-3.826-23.807-7.227-32.307c-3.401-8.502-7.228-14.029-9.353-22.531S518.518,654.432,517.667,648.907z"/>
<path fill="#E1A6AA" d="M232.004,1027.667c5.951-0.85,13.603-2.977,18.066-6.59c4.463-3.613,9.139-8.713,11.69-13.604
	c2.551-4.889,2.763-12.965,2.763-16.578s0.425-9.352,2.763-11.479c2.338-2.125,10.202-6.588,12.965-10.414
	s4.464-10.416,4.889-13.391c0.425-2.977,0.85-7.016,2.125-8.502c1.275-1.488,3.613-5.527,5.526-7.865s1.7-3.613-1.275-0.85
	s-5.526,4.463-6.589,7.439c-1.062,2.977-2.551,8.076-3.614,11.264c-1.063,3.189-2.338,6.59-5.313,9.354
	c-2.976,2.762-7.227,4.463-9.777,7.014c-2.551,2.551-5.951,5.102-6.164,8.926c-0.213,3.826,0.638,11.479-0.638,15.305
	c-1.275,3.826-2.551,8.715-6.164,12.541c-3.613,3.826-8.077,6.801-11.69,8.502c-3.613,1.701-9.777,3.611-13.603,2.551
	c-3.826-1.062-7.652-2.551-9.352-3.826c-1.7-1.275-3.188-2.551-3.188-2.551s2.125,4.039,3.613,5.951
	c1.488,1.914,6.164,4.889,7.864,5.525C228.603,1027.03,232.004,1027.667,232.004,1027.667z"/>
<path fill="#E1A6AA" d="M172.703,523.504c0,0-12.115,17.002-17.216,24.654c-5.101,7.652-13.603,19.129-15.729,25.506
	c-2.125,6.377-11.052,24.656-11.052,24.656s16.579-6.801,19.979-8.928c3.401-2.125,5.951-3.826,5.951-3.826
	s1.275-6.375,5.526-14.877s14.453-23.381,14.453-23.381L172.703,523.504z"/>
<path fill="#D16563" d="M129.981,604.698c0,0-5.951,17.004-11.478,24.229c-5.526,7.229-12.328,16.154-18.704,22.105
	s-11.903,10.203-17.429,14.879s-8.927,9.775-13.178,14.453c-4.251,4.676-7.227,12.752-10.627,16.152
	c-3.401,3.4-9.777,9.777-12.328,13.178c-2.55,3.4-6.376,13.178-8.927,18.279c-2.551,5.102-12.753,17.43-14.878,23.379
	c-2.125,5.951-3.826,14.029-3.826,23.381c0,9.354,2.125,22.957,5.526,31.031c3.401,8.078,8.077,17.004,12.328,25.082
	c4.251,8.076,6.376,17.43,6.801,24.23c0.425,6.801,2.976,16.578,7.227,21.68s14.878,14.453,23.38,19.553
	c8.502,5.102,12.753,8.928,17.854,14.455c5.101,5.525,11.478,17.002,14.453,21.254c2.975,4.25,5.101,10.201,9.777,13.178
	c4.676,2.977,8.927,5.525,13.178,7.227s6.376,2.125,9.777,5.527c3.401,3.4,7.227,6.801,10.202,8.502
	c2.976,1.701,4.251,2.975,6.802,2.975c2.551,0,1.275-1.273-2.976-3.398s-5.101-3.826-8.502-7.229c-3.401-3.4-5.101-4.25-9.777-7.227
	c-4.676-2.977-7.652-2.551-13.178-8.928c-5.526-6.375-7.227-7.65-10.202-14.877c-2.976-7.227-7.227-15.729-13.603-22.105
	c-6.376-6.375-24.656-18.279-30.182-23.805c-5.526-5.525-11.478-11.479-13.178-18.279s-3.826-26.355-5.951-31.881
	c-2.125-5.527-11.052-20.83-13.603-26.781c-2.551-5.953-5.951-19.555-6.376-28.057c-0.425-8.502,1.7-20.404,3.826-23.807
	c2.126-3.4,9.777-13.602,12.753-16.578s8.927-10.201,12.753-15.729c3.826-5.527,11.478-16.58,15.303-20.83
	c3.826-4.252,5.101-11.053,11.052-17.004c5.951-5.951,12.753-12.328,17.429-16.154s9.352-10.203,11.903-11.477
	c2.551-1.275,3.826-2.977,6.376,0c2.551,2.975,5.526,5.525,5.951,9.352s0.85,11.479,0.85,17.854c0,6.377,0.85,13.178,2.976,17.43
	c2.126,4.25,7.652,10.201,10.202,13.178c2.55,2.977,4.676,7.227,5.101,10.627c0.425,3.4,0.425,6.801,1.7,10.627
	s2.976,8.076,4.251,9.777c1.275,1.699,3.826,3.826,3.826,3.826s-3.401-4.678-3.826-8.078c-0.425-3.4-1.7-8.076-1.7-11.479
	c0-3.4-0.425-10.203-2.551-12.752c-2.125-2.551-7.652-10.627-9.352-14.027s-4.251-8.502-4.251-13.18
	c0-4.676,0.425-9.352,0.85-14.027c0.425-4.676-0.425-8.928-1.7-13.604s-5.101-7.227-5.526-10.627c-0.425-3.4,0-8.926,1.7-12.328
	c1.7-3.398,10.202-17.004,13.178-20.83s6.802-14.877,8.077-17.854c1.275-2.977,3.826-11.479,3.826-11.479
	s-11.052,6.803-14.878,8.078s-8.077,4.676-8.077,4.676L129.981,604.698z"/>
<path fill="#333333" d="M175.254,506.394c0,0,5.526,4.677,7.333,7.333c1.807,2.657,5.526,7.014,5.845,16.686
	c0.319,9.67-1.807,13.283-2.551,15.621c-0.744,2.338-1.807,7.334-3.295,10.096c-1.509,2.803-5.274,10.582-8.502,14.348
	c-3.781,4.412-11.159,10.414-14.135,13.496c-2.976,3.082-10.627,8.609-14.984,10.627c-4.357,2.021-12.753,6.59-14.985,8.078
	s-2.338,1.912-3.295,4.037c-0.956,2.125-2.657,7.229-5.632,10.521c-2.976,3.295-11.371,10.096-14.453,12.859
	s-5.526,4.994-7.758,8.502c-2.232,3.508-4.039,6.695-7.652,9.883c-3.613,3.188-7.227,6.27-10.84,8.502
	c-3.613,2.232-5.101,1.701-7.014,3.932c-1.913,2.232-5.101,8.184-7.652,11.16c-2.551,2.975-7.545,6.057-10.309,9.457
	c-2.763,3.402-6.483,7.545-7.864,10.096c-1.381,2.551-3.082,5.314-3.294,6.271c-0.213,0.957-3.188,6.164-5.739,9.033
	s-7.758,7.758-10.627,10.201c-2.869,2.445-8.183,7.334-9.99,8.928c-1.807,1.594-5.101,5.102-5.101,5.102l-2.763-4.57
	c0,0,7.227-5.738,12.434-11.053c5.208-5.312,11.903-9.459,14.028-12.859s5.42-12.328,6.483-14.561
	c1.062-2.23,3.082-6.801,6.907-9.562c3.826-2.764,8.183-5.314,10.415-8.078s3.188-4.781,3.613-5.951
	c0.425-1.168-0.106-2.656-2.444-1.699c-2.338,0.955-6.058,3.188-8.183,3.4s-5.739,0.424-5.739,0.424s4.357-1.381,6.483-2.762
	c2.125-1.383,5.208-4.039,7.545-6.803c2.338-2.762,5.101-6.27,6.589-6.801c1.488-0.531,2.869-0.744,2.125,0.957
	s-2.125,3.293-2.019,4.357c0.106,1.061,0,1.381,1.913,0.318s5.526-1.701,10.202-5.314c4.676-3.613,10.096-7.758,12.434-10.521
	c2.338-2.762,3.294-6.057,4.888-7.758c1.594-1.701,6.27-5.951,10.521-8.82c4.251-2.871,6.908-6.059,9.564-9.885
	c2.657-3.826,3.613-5.1,4.145-6.27c0.531-1.17,0.531-1.912-0.85-2.02c-1.382-0.105-3.188,0-4.357-0.318s-1.807-0.531-3.082-0.105
	c-1.275,0.424-2.869,1.168-3.719,1.488c-0.85,0.318-4.145,3.188-4.145,3.188s4.145-4.57,5.633-5.633
	c1.488-1.062,5.101-4.783,7.014-6.59s2.232-3.188,3.719-4.145c1.488-0.957,1.382-0.85,3.507-1.807s1.594-0.213-0.213,1.912
	c-1.807,2.125-2.869,4.039-3.188,4.676c-0.319,0.639,0.319,1.275,2.019,0.531c1.7-0.744,4.039-1.488,7.227-2.762
	c3.188-1.275,10.946-5.104,13.709-6.695c2.763-1.594,5.314-2.977,9.99-6.59s13.072-10.627,16.154-14.877
	c3.082-4.252,6.376-8.822,8.502-13.709c2.126-4.889,4.57-10.311,5.101-14.879c0.531-4.568,0.638-9.033,0-12.115
	c-0.638-3.082-3.401-9.564-4.995-11.159c-1.594-1.594-8.289-6.695-9.139-7.333c-0.85-0.637,2.551-3.719,2.551-3.719L175.254,506.394
	z"/>
<path fill="#333333" d="M542.536,246.236c-3.556,1.524-11.159,5.207-16.474,7.652c-5.313,2.445-24.867,10.627-38.151,13.816
	c-13.284,3.188-27.631,6.801-40.384,7.333c-12.753,0.532-25.081,1.7-33.478,1.594c-8.396-0.106-21.892-1.7-30.606-2.869
	c-8.715-1.169-16.579-1.7-21.893-2.976c-5.312-1.275-11.689-4.995-19.767-5.951s-15.091-0.744-19.448,0.213
	s-14.453,4.357-19.979,7.439c-5.526,3.082-12.221,6.589-17.216,10.734c-4.995,4.145-11.584,11.584-15.41,17.216
	s-10.202,17.11-12.54,28.8s-3.826,21.999-3.932,30.819c-0.106,8.821,0.638,9.246-0.425,15.835
	c-1.063,6.589-2.551,8.714-4.995,14.347c-2.444,5.633-4.357,9.565-8.608,16.473s-8.821,12.965-12.009,16.579
	s-5.207,6.695-9.777,11.159c-4.57,4.464-7.333,7.014-12.009,12.115c-4.676,5.101-10.202,11.052-17.004,16.365
	c-6.802,5.313-9.246,6.908-13.816,9.883c-4.57,2.976-6.376,4.146-7.545,4.782c-1.169,0.638-1.275,2.657,1.169,1.913
	c2.444-0.744,7.227-2.231,12.328-5.739c5.101-3.507,7.758-5.738,10.84-7.97s7.758-5.845,12.434-10.521
	c4.676-4.677,19.448-19.448,25.718-27.632c6.27-8.183,17.323-24.125,21.68-34.22c4.357-10.096,6.908-16.26,6.695-26.143
	c-0.213-9.883-1.488-19.342,1.594-32.307c3.082-12.965,8.927-26.25,15.729-34.433c6.801-8.183,17.216-16.047,23.486-19.767
	c6.27-3.72,9.564-6.164,15.516-6.27s7.439,0.531,11.052,1.275c3.613,0.744,5.846,1.382,13.072,0.638
	c7.228-0.744,11.266-1.169,15.41-1.382c4.146-0.213,17.748-0.638,27.1,0.425c9.353,1.063,13.072,2.551,21.681,4.039
	c8.607,1.488,20.511,4.782,27.95,6.801c7.438,2.019,9.989,4.145,15.409,6.27s7.652,3.188,7.652,3.188s-7.121-3.082-10.734-5.208
	c-3.612-2.126-6.907-4.463-11.052-5.526c-4.144-1.063-11.159-2.763-12.753-3.613c-1.594-0.85-1.062-1.594,1.7-1.7
	c2.763-0.106,29.757-2.444,38.896-3.401c9.141-0.957,30.183-6.164,39.002-8.715c8.821-2.551,23.062-8.821,28.801-11.478
	c5.738-2.657,10.096-5.42,11.796-5.951c1.701-0.531,0.957-0.744,0.957,0.744c0,1.488-0.212,4.038,0.212,5.633
	c0.425,1.594,0.744,3.613,0.744,3.613s-0.851-7.971,0.638-9.99s2.019-4.039,4.039-4.251c2.019-0.213,3.613,0,3.613,0
	s-1.383-0.744-2.764-0.744C545.298,245.173,544.023,245.598,542.536,246.236z"/>
<path fill="#333333" d="M533.821,432.746c-4.272-1.424-15.729-10.627-22.53-15.516c-6.802-4.89-25.293-18.917-32.945-22.956
	c-7.651-4.038-16.792-10.627-28.269-12.115c-11.478-1.488-23.38-2.976-28.906-1.913s-18.066,4.039-23.593,7.864
	c-5.526,3.826-15.517,13.816-18.492,17.642s-8.502,11.903-12.965,18.066c-4.463,6.164-9.777,12.753-15.303,15.94
	c-5.526,3.188-12.966,5.951-20.617,9.777c-7.652,3.826-14.666,7.014-17.43,12.541c-2.763,5.527-6.802,14.028-6.375,18.279
	c0.426,4.251,2.551,8.29,4.676,11.689c2.125,3.4,3.188,5.102,4.464,5.526c1.274,0.425,2.125,1.062,2.125,1.062s0-1.274,0.85-3.188
	c0.851-1.913,2.977-4.888,2.977-4.888s-1.275,3.399-1.488,6.589c-0.212,3.188,0.213,5.738,1.062,8.076
	c0.851,2.339,2.764,6.164,2.764,6.164s-4.038-4.039-4.89-6.164c-0.85-2.125-1.062-4.251-2.125-4.463
	c-1.062-0.213-1.699-0.85-2.125,1.062c-0.425,1.913,0.213,4.039,1.488,7.651c1.275,3.613,3.401,8.29,6.376,10.627
	c2.977,2.338,6.376,4.252,10.415,4.463c4.039,0.213,15.091-1.488,20.83-2.338s13.604-2.551,19.767-2.338
	c6.164,0.213,10.841,0,16.366,2.125c5.526,2.125,7.864,4.25,10.202,4.676s4.038,0,5.101-0.85s1.488-1.488,0.213-2.977
	c-1.276-1.488-4.677-4.25-4.677-4.25s2.125,1.913,5.952,3.188c3.826,1.275,13.815,4.25,13.815,4.25s-4.463-0.85-8.077-0.85
	s-5.314-0.211-5.526,1.062c-0.212,1.275-0.85,2.125,1.7,3.4c2.551,1.275,9.354,6.164,15.516,10.203
	c6.164,4.039,7.228,6.588,12.115,7.652c4.89,1.062,7.652,1.273,9.777,0.211s2.23-1.807,1.275-4.037
	c-0.956-2.232-2.339-5.527-2.231-7.016c0.106-1.486,1.169,2.125,1.913,3.826s2.125,2.553,3.826,3.721
	c1.699,1.17,12.221,4.57,12.221,4.57s-2.976-0.639-6.058-1.062c-3.082-0.426-5.526-1.17-6.695,0
	c-1.169,1.168-3.082,0.85-2.338,2.762c0.744,1.914,1.807,1.807,4.782,4.57s8.607,5.846,14.135,10.096
	c5.526,4.252,10.415,11.266,12.965,15.092s5.739,6.588,9.14,11.051c3.4,4.465,5.739,6.59,7.864,7.016
	c2.125,0.424,3.188-0.639,5.739,1.062c2.55,1.699,7.014,8.502,2.55,7.014c-4.463-1.488-8.289-2.338-11.902-5.102
	c-3.612-2.762-9.776-9.775-15.94-17.641c-6.164-7.863-11.902-13.391-17.642-17.854c-5.738-4.465-10.84-9.564-14.453-11.689
	s-5.102-0.426-9.777-3.402c-4.676-2.975-9.353-6.375-17.429-11.264c-8.077-4.891-12.328-7.652-14.878-8.078
	c-2.552-0.424-4.89,0-4.89,0s-2.125-2.338-7.864-4.676c-5.738-2.338-9.776-3.613-17.854-3.4s-13.815,1.488-19.554,2.338
	c-5.739,0.85-9.353,2.762-17.43,1.699s-11.052-1.062-15.091-4.676c-4.038-3.613-7.864-13.178-8.927-17.641
	c-1.063-4.464-0.638-7.014-1.7-8.927s-3.826-7.439-5.101-12.328s-2.338-8.927-1.275-11.902s4.464-13.815,10.202-17.217
	c5.739-3.399,19.554-9.989,26.355-12.965c6.803-2.975,11.053-6.164,15.729-11.689c4.677-5.526,15.516-24.23,20.83-29.545
	c5.313-5.313,9.99-11.902,15.728-14.877c5.739-2.976,20.192-11.053,32.309-10.84c12.114,0.212,27.206,2.55,34.22,4.889
	c7.014,2.338,19.767,8.077,29.756,15.303c9.989,7.226,21.255,15.516,25.718,19.342s11.266,8.077,12.328,8.714
	c1.063,0.639,2.551,0,2.551-1.062c0-1.063,0.213-4.039,0.213-4.039s-0.639,5.312,0.638,7.438s2.551,4.89,5.312,5.739
	c2.764,0.851,5.952,0.213,8.077-0.212s-1.487,1.913-4.251,2.125C536.373,433.171,535.734,433.384,533.821,432.746z"/>
<path fill="#FAC0BF" d="M1051.295,377.697c0,0,12.328-0.425,20.83,1.275c8.502,1.7,19.129,2.976,27.207,8.077
	c8.076,5.101,22.529,13.178,28.055,17.854c5.527,4.676,28.906,22.104,28.906,22.104l9.777,4.676c0,0-3.826,38.685-5.525,55.263
	c-1.701,16.579-5.102,51.861-7.652,62.914s-11.053,67.166-11.053,67.166s-11.479-14.879-12.752-20.404
	c-1.275-5.527-6.377-16.58-3.826-19.129c2.551-2.551,12.328-10.203,14.453-14.453c2.125-4.252,3.4-5.527,3.826-11.904
	c0.424-6.375-1.062-9.562-4.357-15.41c-3.295-5.846-6.801-13.283-10.732-14.133s-5.74-2.764-9.566-1.914
	c-3.824,0.852-9.775,5.102-13.602,6.377s-14.453,2.977-14.453,2.977s-5.527-11.903-8.502-17.43
	c-2.977-5.526-14.029-11.902-15.303-14.878c-1.275-2.975-0.426-8.077,3.4-13.178s14.879-19.555,16.152-23.38
	c1.275-3.825,1.701-9.353,0.426-12.753s-5.525-12.328-8.502-15.303c-2.977-2.976-8.502-6.803-13.178-7.228
	s-8.928,1.275-10.627,2.977c-1.701,1.699-10.947,6.907-10.947,6.907l4.146-27.312L1051.295,377.697z"/>
<path fill="#FAC0BF" d="M814.944,1.913h37.408c0,0,1.699,26.781,2.977,35.708c1.275,8.927,7.227,42.084,8.076,45.91
	c0.852,3.826,0.852,3.826,1.701,3.401c0.85-0.425-20.404,8.502-25.932,12.753c-5.525,4.251-15.729,10.202-15.729,10.202
	s-3.826-10.202-5.951-17.004c-2.125-6.802-2.977-19.554-3.826-29.757c-0.85-10.202,0.424-33.157,0.424-39.959
	S814.944,1.913,814.944,1.913z"/>
<path fill="#FAC0BF" d="M959.051,59.726l14.877-56.963h104.574l-1.701,14.028c0,0-13.604,2.976-26.355,8.502
	s-32.732,14.453-44.635,19.129C993.909,49.098,959.051,59.726,959.051,59.726z"/>
<path fill="#FAC0BF" d="M1123.563,313.082c-0.426-2.976,11.902-7.652,19.129-10.627c7.227-2.976,19.553-8.077,19.553-8.077
	s2.551,14.453,4.252,22.955c1.699,8.502,1.699,28.481,1.699,28.481s-11.053-8.502-15.729-11.478s-21.254-11.903-24.656-14.453
	C1124.411,317.333,1123.743,314.344,1123.563,313.082z"/>
<path fill="#FAC0BF" d="M780.723,472.068c-4.293-9.199-12.965-40.81-13.814-46.335c-0.85-5.526-6.375-37.833-7.227-51.861
	c-0.85-14.028,0.852-31.457,2.764-42.935c1.914-11.478,6.801-29.969,9.352-36.983c2.551-7.014,12.115-31.457,21.043-45.273
	c8.926-13.815,26.568-38.046,35.07-46.973s22.529-23.805,32.73-31.669c10.203-7.864,23.807-18.917,37.621-25.081
	c13.816-6.164,22.531-9.352,32.521-11.69s41.66-8.077,56.324-11.903c14.666-3.826,29.758-8.289,37.834-11.265
	s18.703-7.439,23.379-8.927c4.676-1.488,7.863-3.401,7.863-3.401s-2.762,11.478-2.975,18.492
	c-0.213,7.014-0.426,16.579,1.275,21.042c1.699,4.464,3.398,10.627,8.5,13.178c5.102,2.551,16.365,8.502,23.381,13.39
	c7.014,4.889,22.316,15.729,30.818,26.144s16.791,24.868,20.617,31.882s14.24,34.433,14.24,34.433s-6.375,3.188-14.666,5.951
	c-8.289,2.763-24.23,8.289-34.432,9.777c-10.203,1.488-32.096,4.888-46.549,5.739c-14.453,0.85-22.742,0-29.119-0.638
	c-6.375-0.638-28.057-4.038-34.221-4.038s-9.352-4.463-19.979-4.676c-10.627-0.212-24.443,0.85-33.582,3.614
	c-9.141,2.763-26.357,14.453-33.371,21.892s-18.492,24.868-20.83,42.084s-1.699,22.317-2.125,29.544
	c-0.424,7.227-3.613,21.892-6.801,29.119c-3.189,7.227-9.564,19.554-15.305,26.355c-5.738,6.802-18.916,22.317-27.418,30.183
	c-8.5,7.865-17.215,16.152-23.592,20.191s-19.555,8.502-22.316,8.077C784.975,479.082,782.211,475.256,780.723,472.068z"/>
<path fill="#737373" d="M899.325,530.944c-1.912,2.551-2.551,4.25-3.188,7.014c-0.637,2.762-0.85,4.25-0.426,5.951
	c0.426,1.699,1.914-4.676,2.338-6.801C898.475,534.981,899.325,530.944,899.325,530.944z"/>
<path fill="none" stroke="#333333" stroke-width="3.8258" stroke-linecap="round" d="M746.079,443.161c0,0-1.701-3.4-2.551-17.004
	s0-36.558-0.85-58.663s0-39.959,0-58.663s4.25-50.161,5.951-72.266s1.701-47.611,2.551-66.315s2.551-52.712,2.551-64.614
	c0-11.903-5.102-48.461-5.102-58.663c0-10.202-0.85-45.06-0.85-45.06h104.572c0,0,1.699,22.955,2.551,34.008
	c0.85,11.052,3.4,24.656,5.102,31.457c1.699,6.802,4.25,17.854,4.25,17.854"/>
<path fill="#333333" stroke="#333333" stroke-width="2.5506" stroke-linecap="round" stroke-linejoin="round" d="M814.944,80.98
	c0,0,2.551,16.154,4.252,22.955c1.699,6.802-1.488,9.99-1.488,9.99l7.863-6.376c0,0-6.375-9.565-8.928-16.366
	c-2.549-6.802-3.398-26.356-3.398-41.659c0-15.303,1.699-47.611,1.699-47.611"/>
<polyline fill="none" stroke="#333333" stroke-width="3.8258" stroke-linecap="round" points="959.901,58.025 973.928,2.763 
	1078.502,2.763 1076.801,15.516 "/>
<line fill="none" stroke="#333333" stroke-width="2.9757" stroke-linecap="round" x1="1028.766" y1="2.763" x2="1021.54" y2="35.92"/>
<path fill="#333333" d="M791.776,139.856c4.762-4.241,6.545-10.636,11.607-14.719c8.742-7.05,15.625-14.343,25.082-20.798
	c10.051-6.861,19.773-11.798,30.549-16.165c14.443-5.854,27.848-12.726,43.283-16.77c13.707-3.59,26.975-5.989,40.387-9.341
	c2.318-0.579,7.764-1.263,9.705-1.915c11.684-3.92,19.803-6.504,31.664-9.949c19.418-5.638,37.303-12.861,55.266-21.872
	c5.504-2.761,8.82-3.926,14.582-6.102c3.135-1.184,7.738-3.248,9.182-3.647c14.146-3.914,19.699-6.277,27.961,1.825
	c-1.543-1.512-5.947-3.238-9.398-3.655c-9.375-1.133-18.291,4.703-27.074,7.728c-2.391,0.824-4.539,2.6-6.963,3.317
	c-3.291,0.974-6.158,2.631-9.109,4.015c-5.066,2.375-10.035,4.889-15.178,6.97c-16.943,6.859-33.291,13.893-50.9,19.385
	c-13.07,4.076-24.066,6.573-37.455,10.009c-4.23,1.086-9.285,2.084-13.533,2.816c-6.338,1.093-13.303,3.507-19.938,5.234
	c-11.732,3.055-23.125,7.587-34.805,11.62c-12.49,4.312-23.633,10.235-35.088,17.801c-1.322,0.873-2.732,1.555-3.998,2.49
	c-6.707,4.952-13.129,8.934-19.068,14.485c-5.438,5.086-10.475,10.198-15.482,15.535"/>
<path fill="#333333" d="M1098.651,45.087c-3.357-7.466-5.908-16.393-13.23-21.534c-1.295-0.909-2.83-0.215-3.596,1.177
	c-1.123,2.04-1.113,4.489-0.732,6.683c0.912,5.256,0.611,10.417,2.471,15.281c2.051,5.363,5.117,9.884,8.521,14.812
	c1.838,2.662,4.67,5.12,7.854,4.613c1.031-0.165,2.439-0.664,2.459-1.932c0.107-7.414-0.398-15.651-5.055-22.048
	c-0.207-0.285-0.703,0.07-0.707,0.372c-0.062,3.99,2.293,7.221,3.141,11.094c0.582,2.667,0.658,5.407-0.039,7.971
	c-0.082,0.303-1.344,0.236-1.834-0.406c-2.557-3.343-5.412-6.101-7.146-9.798c-2.967-6.328-5.67-12.979-5.451-19.907
	c0.006-0.143-0.002-1.707,2.031-0.757c6.002,2.805,10.508,19.667,11.357,15.204C1098.694,45.626,1098.752,45.315,1098.651,45.087z"
	/>
<path fill="none" stroke="#333333" stroke-width="2.5506" stroke-linecap="round" d="M1102.307,38.471
	c3.975,8.217,9.354,29.332,2.553,33.583c-6.803,4.251-14.879,0-22.955-19.129c-8.078-19.129-9.354-33.583-5.102-36.133
	C1081.053,14.24,1089.768,12.54,1102.307,38.471z"/>
<path fill="#333333" d="M1092.743,70.353c-1.793-1.139,3.188,2.657,3.402,4.145c0.211,1.488,0,2.763-2.021,3.932
	c-2.018,1.169-17.109,8.927-24.123,11.69c-7.014,2.763-39.109,16.366-49.311,19.767c-10.203,3.401-41.234,12.541-59.514,15.303
	c-18.279,2.763-36.346,6.376-46.123,10.202c-9.777,3.826-31.031,14.878-39.107,20.192s-28.695,22.53-38.047,32.52
	s-25.08,28.481-31.244,36.346c-6.164,7.864-18.492,28.056-23.381,38.471s-13.816,29.757-18.916,52.287
	c-5.102,22.53-8.078,33.157-7.229,58.238c0.852,25.082,5.314,31.882,5.74,39.535c0.424,7.651,0.85,10.84,0.211,13.815
	c-0.637,2.977-0.637,5.738-2.549,6.588c-1.914,0.852-5.314,0.852-7.652,2.338c-2.338,1.487-4.676,3.188-6.164,5.313
	s-3.4,4.889-4.889,8.927s-1.701,7.651-2.125,10.84c-0.426,3.188,1.912-5.738,4.463-10.84c2.549-5.101,4.25-8.077,7.014-9.99
	s4.25-2.338,7.439-2.763c3.188-0.425,4.25-1.7,6.801-0.425c2.551,1.274,3.613,0.85,4.463,4.25c0.852,3.401,1.914,8.502,2.977,12.965
	c1.062,4.464,1.914,8.077,3.826,13.391c1.914,5.314,1.914,6.376,5.102,12.328c3.189,5.952,5.738,8.928,7.014,12.541
	c1.277,3.614,1.488,6.802,3.402,9.564c1.912,2.763,4.039,4.464,6.588,6.589c2.551,2.125,3.613-2.55,3.613-2.55
	s-1.699-1.913-4.037-5.102c-2.338-3.188-4.889-9.14-6.59-11.478c-1.699-2.338-3.188-5.102-3.826-6.376
	c-0.637-1.275-1.275-2.338,1.275-2.125c2.551,0.212,6.164-0.425,8.289-1.913s-0.85-2.55-0.85-2.55s-2.551,2.338-4.889,1.7
	c-2.338-0.639-3.826-0.426-6.164-3.826c-2.338-3.401-6.59-11.266-9.354-21.468c-2.762-10.202-5.1-21.68-7.014-30.818
	c-1.912-9.141-3.613-13.604-5.312-24.656c-1.701-11.052-3.188-24.443-2.977-35.92c0.213-11.478,3.402-45.698,13.391-71.841
	c9.99-26.144,22.744-47.611,41.021-69.928c18.279-22.317,24.23-29.332,35.283-38.896c11.053-9.565,23.805-20.405,35.496-26.781
	c11.689-6.376,21.893-11.477,32.943-15.516c11.055-4.039,22.531-6.802,34.434-8.502c11.902-1.7,21.467-3.401,36.559-7.227
	c15.09-3.826,29.332-8.29,40.596-12.115c11.266-3.826,25.082-10.415,35.709-15.091c10.627-4.676,25.932-12.54,29.758-14.453
	c3.824-1.913,6.139-4.382,8.287-6.483c4.57-4.464,3.402-8.608,3.402-8.608s-1.275,6.376-4.463,7.014
	C1100.182,73.541,1098.27,73.86,1092.743,70.353z"/>
<path fill="#333333" d="M1001.135,118.176c0,0-0.639,1.7,0.85,5.314c1.488,3.614,1.699,4.676,6.801,7.014s17.217,5.951,25.719,8.927
	s25.506,10.202,34.008,14.878c8.502,4.676,38.471,23.593,49.736,38.684c11.264,15.091,20.617,34.22,24.23,42.297
	c3.611,8.077,7.65,18.067,7.863,19.979c0.213,1.913,2.551-0.425,2.551-0.425s-5.102-18.917-14.453-35.495
	c-9.352-16.579-18.066-33.157-43.572-51.437c-25.506-18.279-27.844-16.366-32.732-19.979c-4.887-3.613-6.164-7.227-7.227-11.69
	s-1.062-4.463-1.062-4.463s-0.426-12.966,0.426-20.617c0.85-7.651,2.551-12.54,2.551-12.54l-2.338,1.275
	c0,0-1.701,8.502-2.127,14.028c-0.426,5.526-0.639,9.139-0.426,13.603c0.213,4.464,0.426,5.314,0.852,8.714
	c0.424,3.401,3.4,6.376,0.211,5.314c-3.188-1.063-17.215-4.676-23.592-7.014s-15.092-4.463-18.066-6.589s-5.527-5.526-6.164-7.439
	c-0.639-1.913-0.639-3.188-0.639-3.188L1001.135,118.176z"/>
<ellipse transform="matrix(-0.9191 0.3939 -0.3939 -0.9191 2369.6809 39.9638)" fill="none" stroke="#333333" stroke-width="2.9757" stroke-linecap="round" cx="1180.739" cy="263.193" rx="10.219" ry="18.635"/>
<path fill="none" stroke="#333333" stroke-width="2.9757" stroke-linecap="round" d="M1180.739,263.134"/>
<ellipse transform="matrix(-0.9191 0.394 -0.394 -0.9191 2369.7065 39.9256)" fill="none" stroke="#333333" stroke-width="1.7004" stroke-linecap="round" cx="1180.755" cy="263.19" rx="5.11" ry="12.022"/>
<path fill="none" stroke="#333333" stroke-width="1.7004" stroke-linecap="round" d="M1180.739,263.134"/>
<path fill="none" stroke="#333333" stroke-width="1.7004" stroke-linecap="round" d="M1177.065,252.72
	c2.594-1.112,6.471,3.137,8.795,9.357c1.467,3.926,2.738,10.677,0.145,11.789c-2.594,1.112-6.285-1.979-8.9-8.082
	C1174.489,259.681,1174.469,253.832,1177.065,252.72z"/>
<path fill="none" stroke="#333333" stroke-width="1.7004" stroke-linecap="round" d="M1181.799,263.771"/>
<path fill="#333333" d="M1182.12,280.243c-0.957,1.275-0.85,1.382-4.783,3.932c-3.932,2.551-14.346,7.227-18.703,9.246
	s-9.672,4.145-15.197,6.376s-12.752,5.526-16.791,6.695s-6.908,2.444-11.371,2.551c-4.463,0.106-7.971-0.319-10.416-1.275
	c-2.443-0.956-10.414-5.207-10.414-5.207s10.309,7.652,14.24,9.033c3.932,1.381,6.803,2.551,9.777,4.145
	c2.975,1.594,3.932,2.657,8.396,4.889c4.463,2.231,9.562,5.42,13.283,7.864c3.721,2.444,5.312,3.082,9.352,5.633
	s14.666,9.884,23.168,16.685c8.502,6.802,12.434,8.821,16.047,12.115c3.613,3.294,5.42,5.526,7.121,7.333
	c1.699,1.807,4.57,4.145,6.057,6.058c1.488,1.913,4.463,1.913,1.809-1.807c-2.658-3.719-13.709-13.922-20.617-19.129
	c-6.908-5.208-13.498-10.84-20.617-15.941c-7.121-5.101-25.082-15.729-29.225-18.067c-4.146-2.338-7.229-3.294-7.439-4.995
	c-0.213-1.7,1.338-3.965,3.188-5.633c5.42-4.889,14.348-7.333,22.105-10.202s19.023-8.289,23.594-10.415
	c4.568-2.125,13.496-7.652,15.195-9.777c1.701-2.125,2.338-4.57,2.551-6.27s-0.531,2.019-2.02,3.72
	c-1.488,1.701-2.551,2.657-4.145,2.551C1184.67,280.243,1182.12,280.243,1182.12,280.243z"/>
<path fill="#333333" d="M1163.735,295.122c1.061,6.164,3.4,18.385,4.039,25.187c0.637,6.801,0.477,23.646,0.477,23.646l-1.699-1.275
	c0,0,0.371-11.106-0.902-20.883c-1.275-9.777-1.914-15.729-2.977-18.917s-2.178-6.323-2.178-6.323L1163.735,295.122z"/>
<path fill="none" stroke="#333333" stroke-width="2.5506" stroke-linecap="round" d="M1202.532,375.024
	c6.91,4.893,2.105,23.14-7.582,36.824c-9.689,13.685-26.332,23.362-33.242,18.471c-6.91-4.893-6.475-18.188,7.582-36.612
	C1183.584,374.971,1195.622,370.132,1202.532,375.024z"/>
<path fill="none" stroke="#333333" stroke-width="2.5506" stroke-linecap="round" d="M1196.225,386.633
	c3.402,2.655-0.297,13.721-8.264,23.93c-7.967,10.207-17.184,16.329-20.588,13.674c-3.402-2.656,0.299-13.084,8.266-23.292
	C1183.606,390.737,1192.825,383.977,1196.225,386.633z"/>
<path fill="none" stroke="#333333" stroke-width="2.5506" stroke-linecap="round" d="M1197.077,384.294
	c3.402,2.656-0.723,15.209-8.691,25.417c-7.967,10.208-17.607,17.18-21.012,14.524c-3.4-2.656,1.148-16.061,9.115-26.268
	S1193.674,381.639,1197.077,384.294z"/>
<polygon fill="#333333" points="1049.383,379.397 1043.75,434.765 1046.514,432.852 1053.209,379.397 "/>
<path fill="#333333" d="M1164.584,432.8c0,0-7.439,72.852-9.141,89.855c-1.699,17.004-13.283,87.037-14.135,90.014
	c-0.85,2.975,1.754,2.23,1.754,2.23s9.117-50.627,12.381-71.842c4.676-30.394,11.957-108.665,12.168-110.364
	C1167.825,430.993,1164.584,432.8,1164.584,432.8z"/>
<path fill="none" stroke="#737373" stroke-width="1.7004" stroke-linecap="round" d="M786.038,620.85
	c-22.639,14.148-41.66,29.758-57.812,52.711c-16.154,22.955-28.057,45.91-34.857,73.117c-6.803,27.205-7.652,62.064,0,81.617
	c7.65,19.555,21.254,39.109,36.557,42.51s41.66-1.699,59.514-6.801s68.865-27.207,83.318-59.514s10.203-51.861,5.951-76.518
	c-4.25-24.654-9.352-66.314-12.752-80.768c-3.402-14.453-11.053-34.006-21.256-39.107c-10.201-5.102-22.955-2.551-35.707,2.551
	C796.241,615.749,792.838,616.6,786.038,620.85z"/>
<path fill="none" stroke="#737373" stroke-width="1.7004" stroke-linecap="round" d="M774.135,618.299
	c-22.639,14.15-41.66,29.756-57.812,52.713c-16.154,22.955-28.057,45.91-34.859,73.115c-6.801,27.207-7.65,62.064,0,81.619
	c7.652,19.553,21.256,39.107,36.559,42.508c15.305,3.402,41.658-1.699,59.514-6.801c17.854-5.102,68.865-27.207,83.318-59.514
	s10.201-51.861,5.951-76.518c-4.252-24.654-9.352-66.314-12.754-80.768c-3.398-14.453-11.051-34.008-21.254-39.109
	c-10.203-5.1-22.955-2.549-35.707,2.551C784.336,613.198,780.936,614.049,774.135,618.299z"/>
<path fill="none" stroke="#737373" stroke-width="1.7004" stroke-linecap="round" d="M917.817,625.952
	c-11.869,10.172-19.555,22.104-21.256,29.756c-1.699,7.652-5.1,23.805,0,35.709c5.102,11.902,28.057,45.91,41.66,56.111
	c13.604,10.203,38.258,22.105,62.914,15.305c24.654-6.803,64.613-33.158,78.217-55.262c13.604-22.105,32.307-46.762,26.355-71.416
	c-5.951-24.656-23.805-45.91-38.258-57.814c-14.453-11.902-35.709-26.355-50.162-28.906s-22.104-6.801-34.006-0.85
	c-10.203,5.102-16.154,16.154-21.256,24.656s-10.201,23.805-17.004,31.457C938.221,612.348,923.768,620.85,917.817,625.952z"/>
<path fill="none" stroke="#737373" stroke-width="1.7004" stroke-linecap="round" d="M906.764,628.502
	c-11.867,10.172-19.555,22.105-21.256,29.756c-1.699,7.652-5.1,23.807,0,35.709c5.104,11.902,28.059,45.91,41.66,56.111
	c13.604,10.203,38.258,22.105,62.914,15.303c24.656-6.801,64.615-33.156,78.217-55.262c13.604-22.105,32.309-46.76,26.355-71.416
	c-5.951-24.654-23.805-45.91-38.258-57.812s-35.709-26.355-50.16-28.906c-14.453-2.551-22.105-6.801-34.01-0.85
	c-10.201,5.102-16.152,16.154-21.254,24.656c-5.1,8.5-10.203,23.805-17.004,31.457C927.168,614.899,912.715,623.401,906.764,628.502
	z"/>
<path fill="#737373" d="M740.024,744.883c14.875,5.648,41.125,9.447,47.219,5.289c10.639-7.262,10.91-1.156,27.148-29.062
	c6.119-10.518,15.436-19.955,21.596-30.117c4.25-7.014,9.801-16.139,12.615-24.906c3.537-11.016,0.773-15.053-0.713-19.941
	c1.211,2.373,2.678,4.766,3.066,7.277c1.723,11.127,0.334,22.109,4.16,32.682c-1.418-2.674-2.59-5.719-5.58-6.625
	c-2.523-0.766-3.691,2.023-4.822,3.793c-3.283,5.135-5.795,9.562-9.342,14.602c-11.859,16.855-22.34,28.826-30.23,49.074
	c-0.701,1.799-1.262,5.309-1.881,7.1c-0.875,2.537,0.389,4.195,0.631,6.873c0.215,2.338,0.885,5.943,1.211,7.623
	c2.408,12.359,8.553,22.285,11.887,34.119c2.273,8.072,2.775,16.279,7.338,23.572c0.412,0.658,1.414,1.473,2.344,1.713
	c2.363,0.611,4.781,1.123,7.191,0.139c-8.617,1.348-10.842,8.289-19.688,14.203c-0.428,0.287-3.494,3.084-4.332,2.588
	c2.227-0.98,6.361-4.732,7.121-6.711c2.188-5.697,3.078-11.896,1.48-18.127c-3.996-15.598-9.23-29.832-14.518-44.752
	c-0.811-2.289-1.457-4.678-2.137-7.086c-1.139-4.037-3.383-7.516-6.777-10.033c-3.561-2.641-7.717-3.73-12.158-4.104
	c-6.705-0.562-13.203-0.246-19.961-1.355c-4.549-0.748-8.973-1.107-13.199-2.84c-4.148-1.699-9.756-1.301-14.598-3.854
	c-21.324-11.236-24.166-6.107-31.312,3.854c-0.053-4.941,6.234-8.098,7.803-13.436c1.549-5.27-2.551-8.182-2.703-12.07
	C708.883,724.645,712.284,734.35,740.024,744.883z"/>
<path fill="#737373" d="M1036.206,576.428c1.008,13.291,0.17,26.633,0.48,39.967c0.258,11.143-1.029,22.541-5.15,32.984
	c-5.459,13.838-14.467,25.541-24.785,36.607c-5.008,5.371-10.764,9.066-17.025,13.066c-2.201,1.406-4.312,2.729-7.031,3.402
	c-1.074,0.264-2.092,1.203-3.123,1.738c-10.352,5.379-21.836,6.684-33.061,8.689c0.145,0,0.283,0,0.424,0
	c-9.154,0-18.732-1.297-27.631-4.676c4.82,4.314,11.773,4.988,16.123,9.377c3.057,3.082-1.891,7.654-3.371,11.453
	c3.354-4.035,6.912-8.094,11.619-10.334c6.434-3.062,13.85-1.234,20.645-3.41c7.111-2.277,13.393-5.664,19.996-9.264
	c4.686-2.557,8.799-5.312,13.096-8.594c2.828-2.158,5.691-3.803,8.088-6.326c1.332-1.406,2.484-2.857,4.002-4.061
	c11.699-9.277,19.871-21.352,24.578-34.955c1.23-3.559,2.635-7.119,3.219-11.078c1.977-13.393,2.75-26.121,4.533-39.494
	c0.91-6.818,5.641-11.49,10.953-15.316c-4.322,1.896-7.23,5.178-11.393,7.785c-1.162,0.729-1.508-0.152-1.658-0.602
	C1037.909,588.008,1036.641,582.184,1036.206,576.428z"/>
<path fill="#737373" d="M803.678,556.555c0.744,3.826,7.404,29.551,10.842,35.814c3.611,6.588,11.689,20.191,24.018,24.018
	s29.119,3.188,32.307,2.764c3.188-0.426,10.414,3.188,16.365,4.25s23.805,1.699,33.158-4.463
	c9.352-6.164,18.492-14.24,22.955-19.555c4.463-5.312,5.738-10.203,7.438-15.09c1.701-4.889,4.678-11.053,6.59-15.09
	c1.912-4.039,8.715-15.305,10.627-19.129c1.914-3.826,4.145-16.686,4.25-19.129c0.148-3.4-0.744-6.695-1.912-10.947
	c-1.17-4.25-5.74-13.497-8.502-17.748c-2.764-4.251-9.99-11.903-12.967-15.091c-2.975-3.188-13.709-15.835-19.447-24.549
	c-5.738-8.715-16.791-23.594-21.998-34.114c-3.252-6.569-11.479-25.718-15.092-34.22c-3.613-8.502-6.482-26.143-6.482-26.143
	s-0.531,1.488-0.531,2.976s-1.488,8.289-1.488,8.289s4.039,12.115,7.863,22.105c3.826,9.99,10.627,23.168,15.518,32.732
	c4.887,9.563,18.064,27.949,21.359,32.731s9.99,13.604,14.029,17.96c4.037,4.357,11.689,11.796,14.24,14.878
	s7.227,10.946,8.607,14.561c1.381,3.613,4.357,10.839,4.463,14.027c0.105,3.189,0.211,3.721-1.699,11.055
	c-1.969,7.545-6.803,15.939-11.055,20.191c-4.25,4.25-11.051,8.928-16.791,10.414c-5.738,1.488-12.965,2.338-18.703,1.275
	s-14.24-2.762-15.941-3.613c-1.701-0.85-2.551-1.273-3.4-4.889c-0.85-3.613-4.463-11.266-6.164-13.604
	c-1.699-2.338-5.102-6.588-7.014-7.65c-1.914-1.064-7.439-2.338-9.566-2.125c-2.125,0.213,4.252,0.637,6.59,1.912
	s5.102,2.977,7.227,7.014c2.125,4.039,4.252,5.953,5.527,11.053c1.273,5.102,3.188,8.502,2.338,13.604
	c-0.852,5.102-3.4,11.689-5.74,17.217c-2.338,5.525-4.037,9.352-7.65,12.752s-6.803,5.951-9.352,7.865
	c-2.551,1.912-12.541,5.951-12.541,5.951l14.666,0.213c0,0,1.275-1.701,2.975-3.826c1.701-2.125,4.039-5.314,7.652-9.566
	c3.613-4.25,7.439-13.814,9.777-18.064c2.338-4.252,3.4-8.078,5.525-8.928s5.102-1.488,8.713-1.275
	c3.613,0.213,9.564,1.062,13.604,0.85c4.039-0.211,9.141-1.486,11.689-2.338c2.553-0.85,4.465-2.338,5.74-0.213
	c1.275,2.127,3.613,4.465,1.912,9.566c-1.701,5.1-5.525,13.391-9.99,17.854c-4.463,4.463-12.752,11.479-19.979,14.453
	s-11.689,4.463-17.428,4.676c-5.74,0.211-9.354-1.488-12.328-1.914c-2.977-0.424-7.652-1.912-11.266-2.125
	c-3.613-0.211-12.541,0.639-18.279,0.852c-5.947,0.219-15.027-1.439-18.279-2.551c-8.076-2.764-14.027-9.141-18.066-14.453
	c-4.039-5.314-7.014-11.053-8.928-16.367c-1.912-5.314-4.322-13.219-5.1-15.729c-0.957-3.082-2.498-13.709-2.498-13.709
	c-0.373-8.82-0.797-13.285-1.223-18.918s-0.85-10.414-1.807-14.771c-0.957-4.357-1.701-7.439-2.338-8.713
	c-0.639-1.275-1.701-3.508-1.17,0c0.531,3.507,1.488,8.926,1.701,11.69c0.211,2.762-0.32,2.869,0.424,8.289
	s0.957,6.908,1.062,12.434C802.829,549.754,802.934,552.729,803.678,556.555z"/>
<path fill="#333333" d="M803.252,506.394c0,0,5.527,4.677,7.334,7.333c1.807,2.657,5.525,7.014,5.844,16.686
	c0.32,9.67-1.807,13.283-2.551,15.621s-1.807,7.334-3.293,10.096c-1.51,2.803-5.275,10.582-8.502,14.348
	c-3.781,4.412-11.16,10.414-14.135,13.496c-2.977,3.082-10.627,8.609-14.984,10.627c-4.355,2.021-12.752,6.59-14.984,8.078
	c-2.23,1.488-2.338,1.912-3.295,4.037c-0.955,2.125-2.656,7.229-5.631,10.521c-2.977,3.295-11.373,10.096-14.453,12.859
	c-3.082,2.764-5.525,4.994-7.758,8.502s-4.039,6.695-7.65,9.883c-3.613,3.188-7.229,6.27-10.842,8.502
	c-3.611,2.232-5.1,1.701-7.014,3.932c-1.912,2.232-5.102,8.184-7.652,11.16c-2.551,2.975-7.545,6.057-10.309,9.457
	s-6.482,7.545-7.863,10.096s-3.082,5.314-3.295,6.271c-0.211,0.957-3.188,6.164-5.738,9.033s-7.758,7.758-10.627,10.201
	c-2.869,2.445-8.184,7.334-9.99,8.928s-5.102,5.102-5.102,5.102l-2.762-4.57c0,0,7.227-5.738,12.434-11.053
	c5.207-5.312,11.902-9.459,14.027-12.859s5.42-12.328,6.482-14.561c1.062-2.23,3.082-6.801,6.908-9.562
	c3.826-2.764,8.184-5.314,10.414-8.078c2.232-2.764,3.189-4.781,3.613-5.951c0.426-1.168-0.105-2.656-2.443-1.699
	c-2.338,0.955-6.059,3.188-8.184,3.4s-5.738,0.424-5.738,0.424s4.357-1.381,6.482-2.762c2.125-1.383,5.207-4.039,7.545-6.803
	c2.338-2.762,5.102-6.27,6.59-6.801s2.869-0.744,2.125,0.957c-0.744,1.699-2.125,3.293-2.02,4.357c0.105,1.061,0,1.381,1.912,0.318
	s5.525-1.701,10.201-5.314c4.678-3.613,10.098-7.758,12.436-10.521c2.338-2.762,3.293-6.057,4.889-7.758
	c1.594-1.701,6.27-5.951,10.521-8.82c4.25-2.871,6.906-6.059,9.564-9.885c2.656-3.826,3.613-5.1,4.145-6.27s0.531-1.912-0.85-2.02
	c-1.383-0.105-3.188,0-4.357-0.318c-1.168-0.318-1.807-0.531-3.082-0.105c-1.275,0.424-2.869,1.168-3.719,1.488
	c-0.85,0.318-4.145,3.188-4.145,3.188s4.145-4.57,5.633-5.633s5.102-4.783,7.014-6.59s2.232-3.188,3.721-4.145
	c1.486-0.957,1.381-0.85,3.506-1.807s1.594-0.213-0.213,1.912s-2.869,4.039-3.188,4.676c-0.318,0.639,0.318,1.275,2.02,0.531
	s4.039-1.488,7.227-2.762c3.188-1.275,10.945-5.104,13.709-6.695c2.764-1.594,5.312-2.977,9.99-6.59
	c4.676-3.613,13.072-10.627,16.152-14.877c3.082-4.252,6.377-8.822,8.502-13.709c2.127-4.889,4.57-10.311,5.102-14.879
	c0.531-4.57,0.637-9.033,0-12.115s-3.4-9.564-4.996-11.159c-1.594-1.595-8.289-6.695-9.139-7.333
	c-0.85-0.637,2.551-3.719,2.551-3.719L803.252,506.394z"/>
<path fill="#333333" d="M1170.536,246.236c-3.555,1.524-11.158,5.207-16.473,7.652c-5.314,2.445-24.867,10.627-38.152,13.816
	c-13.283,3.188-27.631,6.801-40.383,7.333c-12.754,0.532-25.082,1.7-33.479,1.594c-8.395-0.106-21.891-1.7-30.605-2.869
	c-8.715-1.169-16.578-1.7-21.893-2.976c-5.312-1.275-11.689-4.995-19.768-5.951c-8.076-0.956-15.09-0.744-19.447,0.213
	s-14.453,4.357-19.98,7.439c-5.525,3.082-12.221,6.589-17.215,10.734c-4.996,4.145-11.584,11.584-15.41,17.216
	s-10.201,17.11-12.541,28.8c-2.338,11.69-3.826,21.999-3.932,30.819c-0.105,8.821,0.637,9.246-0.426,15.835
	c-1.062,6.589-2.551,8.714-4.994,14.347c-2.445,5.633-4.357,9.565-8.609,16.473c-4.25,6.908-8.82,12.965-12.008,16.579
	c-3.188,3.613-5.209,6.695-9.777,11.159s-7.332,7.014-12.01,12.115c-4.676,5.101-10.201,11.052-17.004,16.365
	c-6.801,5.313-9.246,6.908-13.814,9.883c-4.568,2.976-6.375,4.146-7.545,4.782c-1.168,0.638-1.275,2.657,1.17,1.913
	c2.443-0.744,7.227-2.231,12.328-5.739c5.1-3.507,7.758-5.738,10.84-7.97s7.758-5.845,12.434-10.521
	c4.676-4.677,19.447-19.448,25.719-27.632c6.27-8.183,17.322-24.125,21.68-34.22c4.355-10.096,6.908-16.26,6.695-26.143
	c-0.215-9.883-1.488-19.342,1.594-32.307c3.082-12.965,8.926-26.25,15.729-34.433c6.801-8.183,17.215-16.047,23.486-19.767
	c6.27-3.72,9.564-6.164,15.516-6.27s7.439,0.531,11.053,1.275c3.611,0.744,5.844,1.382,13.07,0.638
	c7.229-0.744,11.266-1.169,15.41-1.382c4.146-0.213,17.748-0.638,27.102,0.425c9.352,1.063,13.07,2.551,21.68,4.039
	c8.607,1.488,20.51,4.782,27.949,6.801c7.439,2.019,9.99,4.145,15.41,6.27s7.652,3.188,7.652,3.188s-7.121-3.082-10.734-5.208
	s-6.908-4.463-11.053-5.526c-4.143-1.063-11.158-2.763-12.752-3.613c-1.594-0.85-1.062-1.594,1.699-1.7
	c2.764-0.106,29.758-2.444,38.896-3.401c9.141-0.957,30.182-6.164,39.002-8.715c8.82-2.551,23.062-8.821,28.801-11.478
	c5.738-2.657,10.096-5.42,11.795-5.951c1.701-0.531,0.957-0.744,0.957,0.744c0,1.488-0.211,4.038,0.213,5.633
	c0.424,1.594,0.744,3.613,0.744,3.613s-0.852-7.971,0.637-9.99s2.02-4.039,4.039-4.251c2.02-0.213,3.613,0,3.613,0
	s-1.381-0.744-2.764-0.744C1173.297,245.173,1172.024,245.598,1170.536,246.236z"/>
<path fill="#F7ABAD" d="M1001.28,409.913c0,0-9.5,14-15,20s-17.5,13.5-24,16s-18.5,6-21.5,11s-6,11-6.5,15.5s-0.5,13.5,2,18
	s3.5,10,4.5,15s2,11,7,14.5c5,3.5,11,6,18.5,6s15.5-2,23.5-3s15.5-3,23-0.5s9,6.5,14,7s7,1,12.5,4.5s13.5,8.5,19.5,12s11.5,3,15,6
	s6,3.5,13,10s6,8,14,15.5s9.5,13,15,17s14,8.5,14,8.5l3.5,1c0,0-10.984-16.578-9.5-21.5c1.482-4.922,8.5-11,8.5-11s8.5-9,9.5-12
	s4-9,2-14.5s-2-8-4.5-11s-7.5-8.5-10-10.75s-4.5-4.25-9-3.75s-6.75,2.25-10.25,4s-19.199,5.617-19.199,5.617
	s-5.801-12.617-8.051-16.617s-9.75-10.25-12.25-13.25s-4.5-7-2.5-11s14.25-21.25,16.25-25.25s4.75-8,3.5-12.25
	s-4.225-13.446-6.75-16c-2.527-2.554-7-7.25-10.5-8.75s-6.75-2.75-10-1.25s-12.5,8.75-15.75,10.5s-17.5,8.5-17.5,8.5s-5.5-5.75-8-11
	s-4.25-11-6.75-14s-10-10.25-10-10.25L1001.28,409.913z"/>
<path fill="#333333" d="M1161.821,432.746c-4.271-1.424-15.729-10.627-22.529-15.516c-6.803-4.89-25.293-18.917-32.945-22.956
	c-7.652-4.038-16.793-10.627-28.27-12.115c-11.477-1.488-23.379-2.976-28.906-1.913c-5.525,1.063-18.064,4.039-23.592,7.864
	c-5.527,3.826-15.516,13.816-18.492,17.642s-8.502,11.903-12.965,18.066c-4.463,6.164-9.777,12.753-15.303,15.94
	c-5.527,3.188-12.967,5.951-20.617,9.777c-7.652,3.826-14.666,7.014-17.43,12.541c-2.764,5.526-6.801,14.028-6.375,18.279
	c0.424,4.251,2.551,8.29,4.676,11.689c2.125,3.4,3.188,5.102,4.463,5.526s2.125,1.062,2.125,1.062s0-1.274,0.85-3.188
	c0.852-1.913,2.977-4.888,2.977-4.888s-1.275,3.399-1.488,6.589c-0.213,3.188,0.211,5.738,1.062,8.076
	c0.85,2.339,2.762,6.164,2.762,6.164s-4.039-4.039-4.889-6.164s-1.062-4.251-2.125-4.463c-1.062-0.213-1.699-0.85-2.125,1.062
	c-0.426,1.913,0.213,4.039,1.488,7.651c1.275,3.613,3.4,8.29,6.375,10.627c2.977,2.338,6.377,4.252,10.416,4.463
	c4.037,0.213,15.09-1.488,20.83-2.338c5.738-0.85,13.604-2.551,19.768-2.338c6.162,0.213,10.84,0,16.365,2.125
	s7.863,4.25,10.201,4.676s4.039,0,5.104-0.85c1.061-0.85,1.486-1.488,0.211-2.977s-4.676-4.25-4.676-4.25s2.127,1.913,5.951,3.188
	c3.826,1.275,13.816,4.25,13.816,4.25s-4.463-0.85-8.078-0.85c-3.613,0-5.312-0.211-5.525,1.062c-0.213,1.275-0.85,2.125,1.699,3.4
	c2.551,1.275,9.354,6.164,15.518,10.203c6.162,4.039,7.227,6.588,12.113,7.652c4.891,1.062,7.652,1.273,9.777,0.211
	s2.23-1.807,1.275-4.037c-0.955-2.232-2.338-5.527-2.23-7.016c0.105-1.486,1.168,2.125,1.912,3.826s2.125,2.553,3.826,3.721
	c1.701,1.17,12.221,4.57,12.221,4.57s-2.975-0.639-6.057-1.062c-3.082-0.426-5.527-1.17-6.695,0c-1.17,1.168-3.082,0.85-2.338,2.762
	c0.744,1.914,1.807,1.807,4.781,4.57c2.977,2.764,8.607,5.846,14.135,10.096c5.527,4.252,10.416,11.266,12.965,15.092
	c2.551,3.826,5.74,6.588,9.141,11.051c3.4,4.465,5.738,6.59,7.863,7.016c2.125,0.424,3.189-0.639,5.74,1.062
	c2.549,1.699,7.014,8.502,2.549,7.014c-4.463-1.488-8.289-2.338-11.902-5.102c-3.613-2.762-9.777-9.775-15.941-17.641
	c-6.164-7.863-11.902-13.391-17.641-17.854c-5.738-4.465-10.84-9.564-14.453-11.689s-5.102-0.426-9.777-3.402
	c-4.676-2.975-9.352-6.375-17.43-11.264c-8.076-4.891-12.328-7.652-14.877-8.078c-2.553-0.424-4.891,0-4.891,0
	s-2.125-2.338-7.863-4.676s-9.777-3.613-17.854-3.4c-8.078,0.213-13.816,1.488-19.555,2.338s-9.352,2.762-17.43,1.699
	c-8.076-1.062-11.051-1.062-15.09-4.676s-7.865-13.178-8.928-17.641c-1.062-4.464-0.637-7.014-1.701-8.927
	c-1.061-1.913-3.826-7.439-5.1-12.328c-1.275-4.889-2.338-8.927-1.275-11.902s4.463-13.815,10.203-17.217
	c5.738-3.399,19.553-9.989,26.355-12.965c6.801-2.976,11.053-6.164,15.729-11.689c4.676-5.526,15.516-24.23,20.83-29.545
	c5.312-5.313,9.99-11.902,15.729-14.877c5.738-2.976,20.191-11.053,32.309-10.84c12.115,0.212,27.205,2.55,34.219,4.889
	c7.014,2.338,19.768,8.077,29.756,15.303c9.99,7.226,21.256,15.516,25.719,19.342s11.266,8.077,12.328,8.714
	c1.062,0.639,2.551,0,2.551-1.062c0-1.063,0.213-4.039,0.213-4.039s-0.639,5.312,0.637,7.438s2.551,4.89,5.312,5.739
	c2.764,0.851,5.953,0.213,8.078-0.212s-1.488,1.913-4.252,2.125C1164.372,433.171,1163.735,433.384,1161.821,432.746z"/>
<path fill="#333333" d="M1025.579,438.591c0,0,1.912,0.744,4.676,0.744c2.762,0,7.74-2.147,9.988-3.188
	c7.121-3.296,10.84-6.803,14.455-9.565c3.613-2.763,7.863-4.039,11.051-3.188c3.189,0.851,10.416,2.444,16.473,11.479
	c6.051,9.021,7.121,14.028,7.334,16.579c0.213,2.55,0.426,4.889-1.699,9.352s-7.229,11.69-10.203,15.517
	c-2.977,3.825-6.721,9.241-7.652,12.54c-1.168,4.145-0.957,7.121-0.957,7.121l-4.676-8.077c0,0,5.527-8.82,9.352-13.709
	c3.613-4.618,10.012-11.944,11.584-15.091c2.338-4.677,1.062-9.141-0.637-13.816c-1.701-4.676-3.295-8.289-6.271-11.903
	c-3.057-3.712-7.758-7.014-11.371-7.864c-3.613-0.85-5.102-1.274-8.076,0.851c-2.977,2.125-6.59,4.889-10.84,7.864
	c-4.252,2.975-12.328,7.65-13.816,8.289c-1.486,0.638-1.381,0.743-1.381,2.02C1032.911,445.818,1025.579,438.591,1025.579,438.591z"
	/>
<path fill="#333333" d="M1089.661,524.78c0,0,1.381,1.486,3.721,1.912c2.338,0.426,4.463,0.426,6.375,0
	c1.914-0.426,10.203-4.039,12.328-5.312c2.125-1.275,4.676-3.188,7.439-2.976c2.764,0.213,6.803,1.488,8.928,3.187
	c2.125,1.701,8.926,7.334,11.051,11.479s5.209,10.416,5.633,13.922c0.426,3.508,0.318,8.928-0.424,11.904
	c-0.744,2.975-4.357,7.332-6.803,9.562c-2.443,2.232-7.65,6.059-8.82,7.865c-1.168,1.807-2.338,4.463-2.338,6.588
	c0,2.127,0.531,3.932,0.531,3.932l-6.27-10.732c0,0,0.957,0.424,1.807,0c0.85-0.426,5.525-4.889,8.078-7.121
	c2.551-2.23,7.863-7.227,9.564-10.732c1.699-3.508,2.762-8.396,2.338-11.479c-0.426-3.082-1.701-7.758-3.613-11.053
	c-1.914-3.295-4.57-7.332-6.801-9.352c-2.232-2.02-6.059-4.996-7.865-5.633c-1.805-0.637-5.312-0.424-7.438,0.213
	s-5.314,3.188-7.334,4.25s-8.182,4.145-10.414,4.676c-2.232,0.533-6.152,0.957-6.59,0.957
	C1092.319,530.836,1089.661,524.78,1089.661,524.78z"/>
<path fill="#333333" d="M1004.323,407.453c0,0-0.85,0.637,3.4,4.463c4.252,3.826,6.59,7.014,8.291,10.415
	c1.699,3.401,3.188,7.652,5.738,11.052c2.551,3.401,3.189,5.103,6.801,7.439c0,0,9.354,7.651,12.965,11.478
	c3.613,3.826,8.291,12.54,10.416,17.643c2.125,5.101,8.076,10.415,10.414,13.814c2.34,3.401,7.229,12.965,7.229,12.965
	s2.551,2.338,4.039,2.977c1.488,0.638,7.014,5.525,9.352,9.776c2.338,4.252,8.502,17.854,11.266,24.655
	c2.762,6.803,7.014,15.092,11.477,20.617c4.463,5.527,13.604,17.643,17.43,24.018c3.826,6.377,7.227,14.029,9.141,18.705
	c1.912,4.676,2.125,6.164,4.463,9.352s15.941,18.066,21.68,27.631s8.289,14.029,12.115,21.467
	c3.826,7.439,7.227,13.604,7.863,28.906c0.639,15.303,1.275,31.033,1.488,38.684c0.213,7.652-0.639,28.482-3.188,40.385
	c-2.551,11.902-8.291,26.994-10.627,34.434c-2.338,7.438-4.252,14.027-7.227,26.566c-2.977,12.541-8.715,27.207-12.328,34.434
	c-3.615,7.227-20.83,40.809-38.26,59.088s-31.031,34.434-57.176,55.051c-26.143,20.617-41.871,34.434-60.789,41.021
	c-18.916,6.588-15.516,5.525-23.592,7.65c-8.078,2.125-24.23,6.59-31.033,8.291c-6.801,1.699-22.742,5.312-31.031,5.738
	s-24.867-0.213-33.156-0.85c-8.291-0.639-19.129-4.252-27.631-7.865s-26.994-13.178-32.732-16.791
	c-5.74-3.613-32.094-25.08-41.873-31.668c-9.777-6.588-24.443-16.793-34.432-24.23c-9.99-7.439-22.531-17.854-27.631-23.805
	c-5.102-5.953-7.439-10.627-11.266-12.754c-3.826-2.125-11.479-5.738-17.854-11.902c-6.377-6.164-17.43-19.555-21.895-27.631
	c-4.463-8.078-8.289-13.604-9.562-20.617c-1.275-7.014-0.639-9.564-2.764-15.092c-2.125-5.525-11.053-23.168-12.541-31.67
	c-1.488-8.5-4.252-25.717-2.977-38.684c1.275-12.965,2.338-25.08,6.377-33.795c4.037-8.715,0.211-9.777,0.211-15.516
	c0-5.74-2.338-14.027,1.275-32.307s7.652-25.293,9.564-33.158c1.914-7.865,1.701-14.879,3.4-20.193
	c1.701-5.312,4.676-13.178,8.291-19.979c3.613-6.801,8.076-13.178,10.414-22.529s7.652-26.145,9.564-32.096
	c1.914-5.951,6.59-18.492,10.627-25.08c4.039-6.59,11.691-14.666,14.24-19.768c2.551-5.101,8.078-16.791,12.541-25.08
	s11.266-18.492,14.666-27.418c3.402-8.928,4.889-14.241,7.229-20.405c0,0,4.463-10.202,5.312-11.69
	c0.852-1.487,2.764-4.039,2.764-4.039l0.426,7.439c0,0-0.852-0.638-2.764,2.338c-1.914,2.976-5.102,14.241-7.227,19.767
	c-2.125,5.526-6.801,17.854-9.777,24.23s-9.564,17.003-12.541,22.742c-2.977,5.738-7.652,13.39-9.352,17.216
	c-1.701,3.826-2.338,4.889-2.338,6.801c0,1.914-0.852,3.826,0,3.402c0.85-0.426,6.375-4.465,6.375-4.465s-4.25,2.977-4.889,5.102
	s-2.764,5.525-3.4,7.652c-0.639,2.125-1.914,5.738-2.977,7.438c-1.062,1.701-2.551,6.164-2.551,9.354
	c0,3.188,0.426-8.291,1.914-11.479s2.125-5.738,1.912-7.439c-0.211-1.699-1.488-2.125-3.826-0.426
	c-2.338,1.701-7.438,7.016-9.99,14.879c-2.551,7.863-7.227,25.719-8.502,31.457c-1.273,5.738-0.85,8.928-2.338,12.115
	c-1.486,3.188-7.438,11.053-11.9,19.768c-4.463,8.713-7.439,16.152-8.502,22.529c-1.064,6.377-1.062,9.141-2.764,15.516
	c-1.701,6.377-3.4,11.902-5.525,19.342s-5.102,13.604-5.74,24.443c-0.637,10.84-0.424,17.854,0.213,21.043
	c0.639,3.188,0.85,4.887,1.914,5.949c1.062,1.062,2.338,1.275,1.912,2.34c-0.424,1.062-2.125,3.824-3.613,7.438
	c-1.488,3.615-3.613,10.627-4.676,15.941c-1.062,5.312-3.188,16.367-2.762,29.756c0.424,13.391,2.549,27.42,5.1,33.795
	c2.551,6.377,6.59,7.652,8.502,9.99c1.914,2.338,2.977,7.439,4.039,11.689c1.062,4.252,1.275,10.416,2.338,16.791
	c1.062,6.377,3.613,16.154,8.289,20.193s8.076,11.902,12.115,18.066s10.414,13.178,13.391,15.729s4.889,4.676,7.014,4.676
	s1.275-2.125,0.637-3.826c-0.637-1.699-4.463-7.227-6.375-9.139c-1.914-1.914,1.701,0,4.889,2.975
	c3.188,2.977,17.004,13.816,19.342,15.518c2.338,1.699-6.164-3.826-7.863-4.039c-1.701-0.213-2.764,0-1.275,2.125
	s4.676,7.863,8.502,11.902s23.379,21.893,37.195,30.182c13.816,8.291,34.221,22.531,44.635,31.457
	c10.416,8.928,47.611,34.008,63.553,37.834s35.07,6.164,53.773,3.4c18.705-2.764,49.949-11.266,68.016-16.791
	c18.066-5.527,32.52-12.754,52.924-30.184c20.404-17.428,45.91-37.408,55.688-47.186c9.775-9.777,31.457-33.582,38.471-45.061
	c7.014-11.477,19.766-35.283,24.654-47.396c4.889-12.115,9.99-36.348,14.027-49.312c4.039-12.965,9.564-27.205,11.266-43.359
	c1.701-16.152,0.639-33.795,0.213-45.061c-0.426-11.264-1.062-25.719-1.914-32.73c-0.85-7.016-3.613-13.604-6.164-17.43
	s-8.076-10.84-11.053-16.365c-2.975-5.527-7.863-10.629-10.84-14.879c-2.977-4.252-3.826-6.377-6.801-10.84
	c-2.977-4.465-9.141-14.455-10.627-18.918s-5.738-12.965-12.541-23.166c-6.801-10.203-9.99-12.754-13.178-17.43
	s-7.227-11.902-10.84-20.617s-7.652-18.067-9.99-22.317s-5.525-8.289-7.439-9.353c-1.912-1.062-3.826-2.55-4.25-1.488
	c-0.424,1.063-0.637,5.103-0.637,7.015c0,1.913-0.426,6.164-0.426,6.164s-0.639-7.864-2.125-14.028
	c-1.488-6.164-3.188-11.265-6.164-14.666s-7.65-5.526-9.777-8.29c-2.125-2.764-3.4-8.29-5.314-13.178
	c-1.912-4.89-4.463-8.29-7.65-11.054c-3.188-2.763-9.354-3.825-11.902-6.376c-2.551-2.55-6.59-8.076-7.652-12.752
	s-2.764-9.352-4.889-12.328c-2.125-2.976-5.738-8.076-7.438-8.714c-1.701-0.638-3.402-1.913-3.402-1.913L1004.323,407.453z"/>
<g>
	<text transform="matrix(1 0 0 1 300.3276 1049.3071)" fill="#7F7F7F" font-family="'Myriad-Roman'" font-size="12.6806">cc</text>
	<circle fill="none" stroke="#81807F" stroke-width="0.7398" cx="306.207" cy="1046.057" r="8.097"/>
	<text transform="matrix(1 0 0 1 318.2305 1050.145)" fill="#7F7F7F" font-family="'Myriad-Roman'" font-size="12.6806">Patrick J. Lynch, 2006</text>
</g>
<g>
	<text transform="matrix(1 0 0 1 959.3276 1049.3071)" fill="#7F7F7F" font-family="'Myriad-Roman'" font-size="12.6806">cc</text>
	<circle fill="none" stroke="#81807F" stroke-width="0.7398" cx="965.208" cy="1046.057" r="8.097"/>
	<text transform="matrix(1 0 0 1 977.231 1050.145)" fill="#7F7F7F" font-family="'Myriad-Roman'" font-size="12.6806">Patrick J. Lynch, 2006</text>
</g>
</svg>
