<?xml version="1.0" encoding="utf-8"?>
<!-- Generator: Adobe Illustrator 19.1.0, SVG Export Plug-In . SVG Version: 6.00 Build 0)  -->
<!DOCTYPE svg PUBLIC "-//W3C//DTD SVG 1.1//EN" "http://www.w3.org/Graphics/SVG/1.1/DTD/svg11.dtd">
<svg version="1.1" xmlns="http://www.w3.org/2000/svg" xmlns:xlink="http://www.w3.org/1999/xlink" x="0px" y="0px"
	 viewBox="-71.8 193.4 168.5 158.8" style="enable-background:new -71.8 193.4 168.5 158.8;" xml:space="preserve">
<style type="text/css">
	.st0{display:none;}
	.st1{display:inline;fill:#2E4F88;}
	.st2{fill:#2E4F88;}
	.st3{display:inline;}
</style>
<g id="Layer_1" class="st0">
	<path class="st1" d="M16.1,352.2H9.8c-0.6,0-1-0.5-1-1v-19.7c0-0.6,0.5-1,1-1h6.3c0.6,0,1,0.5,1,1v19.7
		C17.1,351.8,16.6,352.2,16.1,352.2z"/>
	<path class="st1" d="M47,254.3l-0.2-3.5h-3.5c-0.4,0-1.4,0-2.9,0.1c6.7-10.3,6.6-23.2,6.6-23.8l-0.2-3.5h-3.5
		c-1.2,0-8.7,0.1-16.5,3.1c0.2-1.1,0.4-2.3,0.4-3.6c0-14.9-12.3-26.9-12.8-27.4l-2.5-2.4l-2.5,2.4c-0.5,0.5-12.8,12.6-12.8,27.4
		c0,1,0.1,1.9,0.2,2.8c-7-2.2-13.3-2.3-14.5-2.3c0,0,0,0,0,0l-3.4,0.1l-0.1,3.4c0,0.6-0.1,13.5,6.6,23.8c-1.5-0.1-2.7-0.1-3.1-0.1
		c0,0,0,0,0,0l-3.4,0.1l-0.1,3.4c0,0.6-0.1,13.5,6.6,23.8c-1.5-0.1-2.7-0.1-3.1-0.1c0,0,0,0,0,0l-3.4,0.1l-0.1,3.4
		c0,0.6-0.1,13.5,6.6,23.8c-1.5-0.1-2.7-0.1-3.1-0.1c0,0,0,0,0,0l-3.4,0.1l-0.1,3.4c0,0.7-0.2,17.9,10.3,28.5c3,3,6.5,4.6,10.1,4.6
		c3.5,0,6.9-1.6,10.1-4.5l7.1,0c3.2,3,6.6,4.5,10.1,4.5h0c3.6,0,7-1.6,10.1-4.6C47.2,326.5,47,309.3,47,308.5l-0.2-3.5h-3.5
		c-0.4,0-1.4,0-2.9,0.1c6.7-10.3,6.6-23.2,6.6-23.8l-0.2-3.5h-3.5c-0.4,0-1.4,0-2.9,0.1C47.1,267.8,47,254.9,47,254.3z M26.6,307.4
		c-1.8,0-3.8-1.1-5.9-3.2c-2.2-2.2-3.2-4.2-3.2-6.1c0.1-1.6,0.9-3.2,2.6-4.9c5.8-5.8,14.7-7.5,19.7-8c-0.5,5-2.3,13.8-8.1,19.6
		C30,306.6,28.2,307.4,26.6,307.4z M15.1,288.3c-0.8,0.8-1.5,1.7-2.1,2.6c-0.6-0.9-1.3-1.8-2.1-2.6c-1.3-1.3-2.6-2.4-4.1-3.3
		c1.2-0.8,2.3-1.6,3.5-2.8c1.1-1.1,2-2.2,2.7-3.4c0.8,1.1,1.6,2.3,2.7,3.4c1.1,1.1,2.3,2,3.5,2.8C17.7,285.9,16.3,287,15.1,288.3z
		 M-5.8,304.9c-5.8-5.8-7.5-14.7-8.1-19.6c5,0.5,13.9,2.3,19.7,8c1.6,1.6,2.5,3.3,2.6,4.9c0.1,1.9-1,4-3.2,6.1
		C1.2,308.3-2.2,308.5-5.8,304.9z M15.6,255c1.1,1.1,2.3,2,3.5,2.8c-1.4,1-2.8,2.1-4.1,3.3c-0.8,0.8-1.5,1.7-2.1,2.6
		c-0.6-0.9-1.3-1.8-2.1-2.6c-1.3-1.3-2.6-2.4-4.1-3.3c1.2-0.8,2.3-1.6,3.5-2.8c1.1-1.1,2-2.2,2.7-3.4
		C13.7,252.8,14.5,253.9,15.6,255z M5.8,266.1c1.6,1.6,2.5,3.3,2.6,4.9c0.1,1.9-1,4-3.2,6.1c-4,4-7.4,4.2-11,0.6
		c-5.8-5.8-7.5-14.7-8.1-19.6C-8.9,258.6,0,260.4,5.8,266.1z M26.6,280.3c-1.8,0-3.8-1.1-5.9-3.2c-2.2-2.2-3.2-4.2-3.2-6.1
		c0.1-1.6,0.9-3.2,2.6-4.9c5.8-5.8,14.7-7.5,19.7-8c-0.5,5-2.3,13.8-8.1,19.6C30,279.4,28.2,280.3,26.6,280.3z M39.7,231
		c-0.5,5-2.3,13.8-8.1,19.6c-1.7,1.7-3.4,2.6-5.1,2.6c-1.8,0-3.8-1.1-5.9-3.2c-2.2-2.2-3.2-4.2-3.2-6.1c0.1-1.6,0.9-3.2,2.6-4.9
		C25.8,233.3,34.7,231.5,39.7,231z M11.9,203.6c3.1,3.9,8.2,11.4,8.2,19.6c0,5.1-2.5,7.4-8.2,7.4c-5.7,0-8.2-2.3-8.2-7.4
		C3.7,215,8.7,207.5,11.9,203.6z M5.8,239c1.6,1.6,2.5,3.3,2.6,4.9c0.1,1.9-1,4-3.2,6.1c-4,4-7.4,4.2-11,0.6
		c-5.8-5.8-7.5-14.7-8.1-19.6C-8.9,231.5,0,233.2,5.8,239z M5.2,331.4c-4,4-7.4,4.2-11,0.6c-5.8-5.8-7.5-14.7-8.1-19.6
		c5,0.5,13.9,2.3,19.7,8c1.6,1.6,2.5,3.3,2.6,4.9C8.4,327.2,7.3,329.2,5.2,331.4z M15.1,315.4c-0.8,0.8-1.5,1.7-2.1,2.6
		c-0.6-0.9-1.3-1.8-2.1-2.6c-1.3-1.3-2.6-2.4-4.1-3.3c1.2-0.8,2.3-1.6,3.5-2.8c1.1-1.1,2-2.2,2.7-3.4c0.8,1.1,1.6,2.3,2.7,3.4
		c1.1,1.1,2.3,2,3.5,2.8C17.7,313,16.3,314.1,15.1,315.4z M31.7,332c-1.7,1.7-3.4,2.6-5.1,2.6c-1.8,0-3.8-1.1-5.9-3.2
		c-2.2-2.2-3.2-4.2-3.2-6.1c0.1-1.6,0.9-3.2,2.6-4.9c5.8-5.8,14.7-7.5,19.7-8C39.2,317.3,37.4,326.2,31.7,332z"/>
</g>
<g id="Layer_2">
	<path class="st2" d="M-44.8,281.9c0,30,23.2,54.6,52.9,57v8.9c0,2.4,2.1,4.5,4.5,4.5s4.5-2.1,4.5-4.5v-8.9
		c29.4-2.4,52.9-27,52.9-57c-1.8,0-3.6,0-5.3,0.3c2.4-14.3-0.6-28.2-7.7-40.1c-2.1,0.6-4.2,1.5-6.2,2.4c-0.9-10.7-5-20.5-11.3-28.8
		c-2.7,1.2-5.3,2.4-7.7,3.9c-3.6-10.4-10.1-19.3-18.7-26.1c-8.6,6.5-15.1,15.7-18.7,26.1c-2.4-1.5-5-3-7.7-4.2
		c-6.2,8.3-10.1,18.4-11.3,28.8c-2.1-0.9-4.2-1.8-6.2-2.4c-7.4,11.6-10.4,25.8-7.7,40.1C-41.3,282.2-43.1,281.9-44.8,281.9z
		 M12.5,330.3c-23.5,0-42.8-16.6-47.5-38.6c7.1,1.5,14,4.5,19.6,9.2l7.7,5.9l5-8.3c3.9-6.2,8.9-11.3,14.8-15.1
		c5.9,3.9,11,9.2,14.8,15.1l5,8.3l7.7-5.9c5.9-4.5,12.5-7.7,19.6-9.2C55.2,313.7,35.9,330.3,12.5,330.3z M4.4,277.1
		c-1.2-3.6-3-6.8-4.8-9.8c1.5-9.8,5.6-19,12.8-26.1c6.8,7.1,11.3,16.3,12.8,26.1c-1.8,3-3.6,6.5-4.8,9.8c0,0.3-0.3,0.6-0.3,0.9
		c-2.4-1.8-5-3.6-7.7-4.8c-2.7,1.5-5.3,3-7.7,4.8C4.7,277.7,4.7,277.4,4.4,277.1z M52.3,253.4c4.2,9.5,5,20.2,2.7,30.6
		c-7.4,2.1-14.3,5.3-20.2,10.1c-2.1-3.6-4.8-6.5-7.4-9.5c0.3-1.5,0.9-2.7,1.2-4.2C33,268.2,41.3,259,52.3,253.4z M35.9,227.2
		c3.9,6.8,5.6,14.5,5.6,22.3c-3.6,2.4-6.5,5-9.5,8.3c-2.1-6.8-5.3-13.1-9.5-18.4C26.1,234.7,30.6,230.5,35.9,227.2z M12.5,205.9
		c5.3,5.6,9.2,12.5,11.3,19.6c-2.7,2.1-4.8,4.8-7.1,7.4c-1.5-1.2-2.7-2.4-4.2-3.6c-1.5,1.2-3,2.4-4.2,3.6c-2.1-2.7-4.5-5-7.1-7.4
		C3.3,218,7.1,211.2,12.5,205.9z M-11,227.2c5,3.3,9.5,7.1,13.1,11.9c-4.2,5.3-7.4,11.9-9.5,18.4c-3-3-5.9-5.9-9.5-8.3
		C-16.6,241.8-14.6,234.4-11,227.2z M-27.6,253.4c11,5.6,19.6,14.8,23.8,26.7c0.6,1.5,0.9,2.7,1.2,4.2c-2.7,3-5.3,6.2-7.4,9.5
		c-5.9-4.5-12.8-8-20.2-10.1C-32.7,273.6-31.8,263.2-27.6,253.4z"/>
</g>
<g id="Layer_3" class="st0">
	<g class="st3">
		<path class="st2" d="M15.7,352.2l-5.2-3.6c-39.5-26.8-49.8-80.8-23-120.3l23.8-35l5.2,3.6c39.5,26.8,49.8,80.8,23,120.3
			L15.7,352.2z M14.5,211.3L-2,235.5c-11.1,16.3-15.2,36-11.4,55.4c3.3,17.3,12.4,32.5,26,43.5L29,310.1
			C50.7,278.2,43.9,235.1,14.5,211.3z"/>
	</g>
	<g class="st3">
		<path class="st2" d="M3.1,343c-5.5-35.1-1.2-63,2.3-85.5c3-19.7,5.5-35.3,0.7-49l12-4.1c5.7,16.7,3,34.5-0.2,55.1
			c-3.5,22.7-7.5,48.5-2.3,81.6L3.1,343z"/>
	</g>
</g>
<g id="Layer_4" class="st0">
	<path class="st1" d="M91,317.7v-71.5c0-11.1-9-20-20-20s-20,9-20,20v71.5H37.2v-37.8h7.4l-18.9-32l-31.8-11.5v-7.3h4.8l-12.2-11
		V216h3.4l-0.5,1.2l3.7-1.4l-3.7-1.4l0.6,1.2h-6.7l-0.6-1.2h-3.1l0.6,1.4l-0.6,1.4h3.1l0.6-1.2h2.9v2.1l-12.2,11h4.8v7.3L-52.9,248
		l-18.9,32h7.4v37.8H-70v7.2H96.6v-7.2H91z M-18.2,248.4h9.1V259h-9.1V248.4z M10.2,318.1h-47.8v-33.2h47.8L10.2,318.1L10.2,318.1z"
		/>
</g>
</svg>
