<?xml version="1.0" encoding="UTF-8" standalone="no"?>
<!-- Created with Inkscape (http://www.inkscape.org/) -->

<svg
   xmlns:dc="http://purl.org/dc/elements/1.1/"
   xmlns:cc="http://creativecommons.org/ns#"
   xmlns:rdf="http://www.w3.org/1999/02/22-rdf-syntax-ns#"
   xmlns:svg="http://www.w3.org/2000/svg"
   xmlns="http://www.w3.org/2000/svg"
   xmlns:sodipodi="http://sodipodi.sourceforge.net/DTD/sodipodi-0.dtd"
   xmlns:inkscape="http://www.inkscape.org/namespaces/inkscape"
   width="210mm"
   height="297mm"
   viewBox="0 0 744.09448819 1052.3622047"
   id="svg2"
   version="1.1"
   inkscape:version="0.91 r13725"
   sodipodi:docname="symbol1.svg">
  <defs
     id="defs4" />
  <sodipodi:namedview
     id="base"
     pagecolor="#000000"
     bordercolor="#666666"
     borderopacity="1.0"
     inkscape:pageopacity="0"
     inkscape:pageshadow="2"
     inkscape:zoom="0.083593746"
     inkscape:cx="-891.40031"
     inkscape:cy="-540.02281"
     inkscape:document-units="px"
     inkscape:current-layer="layer1"
     showgrid="false"
     showborder="false"
     inkscape:object-nodes="true"
     inkscape:window-width="1213"
     inkscape:window-height="717"
     inkscape:window-x="0"
     inkscape:window-y="1"
     inkscape:window-maximized="0"
     inkscape:snap-intersection-paths="true"
     inkscape:snap-midpoints="true"
     inkscape:snap-smooth-nodes="true"
     inkscape:object-paths="true"
     inkscape:snap-object-midpoints="true" />
  <metadata
     id="metadata7">
    <rdf:RDF>
      <cc:Work
         rdf:about="">
        <dc:format>image/svg+xml</dc:format>
        <dc:type
           rdf:resource="http://purl.org/dc/dcmitype/StillImage" />
        <dc:title></dc:title>
      </cc:Work>
    </rdf:RDF>
  </metadata>
  <g
     inkscape:label="Layer 1"
     inkscape:groupmode="layer"
     id="layer1">
    <path
       style="color:#000000;font-style:normal;font-variant:normal;font-weight:normal;font-stretch:normal;font-size:medium;line-height:normal;font-family:sans-serif;text-indent:0;text-align:start;text-decoration:none;text-decoration-line:none;text-decoration-style:solid;text-decoration-color:#000000;letter-spacing:normal;word-spacing:normal;text-transform:none;direction:ltr;block-progression:tb;writing-mode:lr-tb;baseline-shift:baseline;text-anchor:start;white-space:normal;clip-rule:nonzero;display:inline;overflow:visible;visibility:visible;opacity:1;isolation:auto;mix-blend-mode:normal;color-interpolation:sRGB;color-interpolation-filters:linearRGB;solid-color:#000000;solid-opacity:1;fill:#a0892c;fill-opacity:1;fill-rule:nonzero;stroke:none;stroke-width:50.406;stroke-linecap:butt;stroke-linejoin:miter;stroke-miterlimit:4;stroke-dasharray:none;stroke-dashoffset:0;stroke-opacity:1;color-rendering:auto;image-rendering:auto;shape-rendering:auto;text-rendering:auto;enable-background:accumulate"
       d="M -758.21875 739.73047 C -759.51608 739.72778 -760.81383 739.73428 -762.11133 739.75195 C -815.34166 740.47686 -868.59128 761.64516 -912.82422 813.53516 C -1024.6345 944.70081 -1024.6345 1153.049 -912.82422 1284.2148 C -856.20626 1350.6337 -785.42473 1365.0582 -717.43555 1354.6895 C -649.44638 1344.3207 -581.35782 1313.3941 -512.72461 1291.8203 C -459.05412 1274.9498 -329.92244 1220.593 -211.30859 1169.6387 C -109.16431 1125.7595 -20.627014 1086.7105 3.1992188 1076.1797 C 3.2000303 1076.18 3.2023133 1076.1813 3.203125 1076.1816 L 64.935547 1048.8398 C 106.52253 1030.5577 164.28368 1005.2782 237.33594 973.89648 C 355.63874 923.07607 488.27858 867.84522 534.02734 853.46484 C 606.34674 830.73247 673.49805 801.13658 731.30664 792.32031 C 743.95227 790.39175 756.0137 789.25587 767.62695 789.22852 C 769.28599 789.22461 770.93499 789.24288 772.57617 789.28516 C 811.96454 790.29989 846.33104 804.88877 881.25586 845.85938 C 975.81431 956.78656 975.81433 1140.9515 881.25586 1251.8789 C 834.68944 1306.5063 789.11522 1314.2342 731.30664 1305.418 C 673.49806 1296.6018 606.3467 1267.0059 534.02734 1244.2734 C 490.67507 1230.6463 357.84841 1175.3572 238.98438 1124.3594 C 185.67928 1101.4891 140.72422 1081.9672 103.91406 1065.8945 L 107.52148 1067.4727 L 45.855469 1094.9043 C 86.992008 1112.9285 149.20497 1140.0689 219.33594 1170.1582 C 338.4951 1221.2827 467.44113 1275.5813 519.08398 1291.8145 C 587.7172 1313.3883 655.80428 1344.3148 723.79297 1354.6836 C 791.78166 1365.0524 862.56375 1350.6278 919.18164 1284.209 C 1030.9921 1153.0432 1030.9921 944.69494 919.18164 813.5293 C 873.1796 759.56392 817.82812 739.92236 762.2207 740.01562 C 749.38822 740.03712 736.54085 741.11053 723.79297 743.05469 C 655.80428 753.4235 587.71716 784.35016 519.08398 805.92383 C 465.41352 822.79426 336.28039 877.15121 217.66602 928.10547 C 115.52128 971.98471 26.984337 1011.0336 3.1582031 1021.5645 C 3.130049 1021.552 3.0478672 1021.5164 3.0195312 1021.5039 L -58.576172 1048.9043 C -100.16265 1067.1864 -157.92467 1092.467 -230.97852 1123.8496 C -349.28079 1174.67 -481.91926 1229.899 -527.66797 1244.2793 C -599.98726 1267.0118 -667.14008 1296.6075 -724.94922 1305.4238 C -782.75837 1314.24 -828.33206 1306.5121 -874.89844 1251.8848 C -969.45682 1140.9574 -969.4568 956.79243 -874.89844 845.86523 C -838.51859 803.18774 -803.11594 790.14967 -761.43359 789.58203 C -760.41759 789.5682 -759.39858 789.56384 -758.375 789.56836 C -693.88943 789.85287 -614.42981 826.19858 -527.66797 853.4707 C -484.31577 867.09775 -351.49046 922.38691 -232.62695 973.38477 C -158.83227 1005.0461 -100.47183 1030.5315 -58.576172 1048.9043 L -101.22266 1030.1797 L -39.496094 1002.8398 C -80.632151 984.81562 -142.84591 957.67518 -212.97656 927.58594 C -332.13519 876.46145 -461.08167 822.16279 -512.72461 805.92969 C -595.06439 780.04756 -676.48679 739.90014 -758.21875 739.73047 z M 9.84375 1079.1016 C 17.28146 1082.3766 27.630811 1086.92 41.496094 1092.998 L 9.84375 1079.1016 z "
       id="path4647" />
    <circle
       style="opacity:0.45500004;fill:#d4aa00;stroke:#ff0000;stroke-width:44.84221268;stroke-linecap:round;stroke-linejoin:round;stroke-miterlimit:4;stroke-dasharray:none"
       id="path4581"
       cx="790.55096"
       cy="-490.94873"
       ry="595.57892"
       rx="359.57889" />
    <path
       style="color:#000000;font-style:normal;font-variant:normal;font-weight:normal;font-stretch:normal;font-size:medium;line-height:normal;font-family:sans-serif;text-indent:0;text-align:start;text-decoration:none;text-decoration-line:none;text-decoration-style:solid;text-decoration-color:#000000;letter-spacing:normal;word-spacing:normal;text-transform:none;direction:ltr;block-progression:tb;writing-mode:lr-tb;baseline-shift:baseline;text-anchor:start;white-space:normal;clip-rule:nonzero;display:inline;overflow:visible;visibility:visible;opacity:1;isolation:auto;mix-blend-mode:normal;color-interpolation:sRGB;color-interpolation-filters:linearRGB;solid-color:#000000;solid-opacity:1;fill:#a0892c;fill-opacity:1;fill-rule:nonzero;stroke:none;stroke-width:50.40599823;stroke-linecap:round;stroke-linejoin:round;stroke-miterlimit:4;stroke-dasharray:none;stroke-dashoffset:0;stroke-opacity:1;color-rendering:auto;image-rendering:auto;shape-rendering:auto;text-rendering:auto;enable-background:accumulate"
       d="m 3.1796875,-731.12891 c -170.3573675,0 -308.9999975,138.64264 -308.9999975,309 0,170.35737 138.64263,309 308.9999975,309 170.3573625,0 308.9980425,-138.64263 308.9980425,-309 0,-170.35736 -138.64068,-309 -308.9980425,-309 z m 0,50.40625 c 143.1159425,0 258.5937525,115.47781 258.5937525,258.59375 0,143.11594 -115.47781,258.59375 -258.5937525,258.59375 -143.1159375,0 -258.5937475,-115.47781 -258.5937475,-258.59375 0,-143.11594 115.47781,-258.59375 258.5937475,-258.59375 z"
       id="path4603"
       inkscape:connector-curvature="0" />
    <path
       style="color:#000000;font-style:normal;font-variant:normal;font-weight:normal;font-stretch:normal;font-size:medium;line-height:normal;font-family:sans-serif;text-indent:0;text-align:start;text-decoration:none;text-decoration-line:none;text-decoration-style:solid;text-decoration-color:#000000;letter-spacing:normal;word-spacing:normal;text-transform:none;direction:ltr;block-progression:tb;writing-mode:lr-tb;baseline-shift:baseline;text-anchor:start;white-space:normal;clip-rule:nonzero;display:inline;overflow:visible;visibility:visible;opacity:1;isolation:auto;mix-blend-mode:normal;color-interpolation:sRGB;color-interpolation-filters:linearRGB;solid-color:#000000;solid-opacity:1;fill:#a0892c;fill-opacity:1;fill-rule:nonzero;stroke:none;stroke-width:50.406;stroke-linecap:round;stroke-linejoin:round;stroke-miterlimit:4;stroke-dasharray:none;stroke-dashoffset:0;stroke-opacity:1;color-rendering:auto;image-rendering:auto;shape-rendering:auto;text-rendering:auto;enable-background:accumulate"
       d="m -187.82122,-77.714844 c -60.22452,24.894279 -115.58381,61.554515 -162.55274,108.523438 -93.76143,93.761436 -146.44726,220.954036 -146.44726,353.552736 0,132.5987 52.68583,259.79325 146.44726,353.55469 46.96893,46.96891 102.32822,83.62769 162.55274,108.52148 l 0,-54.30859 c -46.88979,-21.96273 -90.08174,-52.04658 -127.40039,-89.36524 -84.45193,-84.45193 -131.88672,-198.96928 -131.88672,-318.40234 0,-119.43307 47.43479,-233.94846 131.88672,-318.40039 37.31865,-37.318658 80.5106,-67.402507 127.40039,-89.365237 l 0,-54.310547 z m 382,0 0,54.310547 c 46.88979,21.96273 90.08173,52.046579 127.40039,89.365237 84.45193,84.45193 131.88672,198.96732 131.88672,318.40039 0,119.43306 -47.43479,233.95041 -131.88672,318.40234 -37.31866,37.31866 -80.5106,67.40251 -127.40039,89.36524 l 0,54.30859 c 60.22452,-24.89379 115.58381,-61.55257 162.55273,-108.52148 93.76144,-93.76144 146.44727,-220.95599 146.44727,-353.55469 0,-132.5987 -52.68583,-259.7913 -146.44727,-353.552736 C 309.76259,-16.160329 254.4033,-52.820565 194.17878,-77.714844 Z"
       id="circle4614"
       inkscape:connector-curvature="0" />
    <path
       style="font-style:normal;font-variant:normal;font-weight:normal;font-stretch:normal;font-size:medium;line-height:125%;font-family:Allura;-inkscape-font-specification:'Allura, Normal';text-align:start;letter-spacing:0px;word-spacing:0px;writing-mode:lr-tb;text-anchor:start;fill:#a0892c;fill-opacity:1;stroke:none;stroke-width:1px;stroke-linecap:butt;stroke-linejoin:miter;stroke-opacity:1"
       inkscape:connector-curvature="0"
       id="path4209"
       d="m -755.29084,1587.5351 48.16461,4.2687 q 11.51764,1.4229 11.51764,6.4031 0,0.7115 -1.04706,2.1343 -3.14118,5.6917 -11.51763,5.6917 -8.37646,-0.7115 -12.56469,-0.7115 -33.50583,0 -58.63519,18.4977 -25.12937,18.4978 -43.97639,53.359 -18.84704,34.8611 -71.19989,148.6935 -52.35285,113.8323 -58.63519,125.2155 54.44697,-9.2488 72.24693,-9.2488 18.84702,0 24.08232,2.1343 7.3294,4.2687 3.14116,7.8259 -4.18822,3.5573 -8.37646,2.1344 -4.18822,-1.4229 -16.7529,-1.4229 -11.51762,0 -47.11757,6.4031 -35.59994,5.6916 -41.88228,17.0749 -104.70567,179.9973 -253.38777,250.431 -65.9646,31.304 -119.3645,31.304 -19.8941,0 -36.647,-4.2688 -49.2117,-12.0947 -49.2117,-49.0901 0,-42.6871 65.9646,-93.9118 129.835,-101.0261 347.6229,-148.6934 7.3294,-11.3832 34.5529,-80.3941 27.22349,-69.0108 40.83523,-99.6033 -93.18813,96.046 -193.70553,160.7882 -100.5175,64.7422 -183.235,64.7422 -74.341,0 -74.341,-65.4536 0,-59.7621 86.9057,-180.7089 47.1175,-66.165 55.494,-79.6826 9.4235,-14.2291 1.047,-13.5176 -8.3764,1.4229 -24.0823,9.2489 -81.6704,46.9558 -142.3997,49.8016 -10.4705,0.7115 -10.4705,-3.5573 2.094,-6.4031 13.6116,-7.8259 40.8352,-2.8459 121.4587,-46.9558 81.6704,-44.8216 98.4233,-66.1651 4.1883,-8.5375 39.7882,-8.5375 27.2235,1.423 26.1764,8.5375 -180.0938,205.6096 -204.1761,294.5412 -5.2353,19.9206 -5.2353,35.5725 0,49.8017 52.3529,49.8017 42.9293,0 98.4233,-29.881 55.4941,-30.5924 109.941,-77.5483 128.78803,-113.8323 198.94086,-226.9532 18.84702,-29.8809 29.3176,-35.5726 21.98819,-24.9008 87.9528,-24.9008 z m -614.62246,607.58 q 0,8.5375 3.1411,15.652 10.4706,27.7467 52.3529,27.7467 61.7763,0 128.788,-56.2048 101.5645,-83.2399 166.4821,-207.0325 -181.1409,40.5528 -290.0348,131.6186 -60.7293,50.5132 -60.7293,88.22 z" />
    <path
       style="font-style:normal;font-variant:normal;font-weight:normal;font-stretch:normal;font-size:medium;line-height:125%;font-family:Allura;-inkscape-font-specification:'Allura, Normal';text-align:start;letter-spacing:0px;word-spacing:0px;writing-mode:lr-tb;text-anchor:start;fill:#a0892c;fill-opacity:1;stroke:none;stroke-width:1px;stroke-linecap:butt;stroke-linejoin:miter;stroke-opacity:1"
       inkscape:connector-curvature="0"
       id="path4211"
       d="m -623.00172,1906.2656 q 18.84703,-26.3237 18.84703,-40.5527 0,-14.2291 -5.23529,-22.0551 -4.18823,-8.5374 4.18823,-14.2289 9.42352,-5.6917 23.03526,-4.2688 20.94114,3.5572 20.94114,32.0154 0,28.458 -49.21169,74.7024 1.04706,19.2092 29.31759,19.2092 28.27055,0 85.85869,-41.2642 27.22349,-21.3436 33.50583,-27.7467 7.3294,-6.403 12.56468,-4.2687 5.23528,1.4229 5.23528,2.8459 0,7.1145 -37.69405,36.9954 -59.68225,49.8017 -105.75277,49.8017 -30.36465,0 -42.92933,-17.7863 -20.94114,14.9405 -40.83523,27.7467 -40.83522,23.4779 -91.09397,23.4779 -28.27053,0 -47.11756,-9.2489 -36.64699,-14.9405 -36.64699,-53.3589 0,-41.9757 41.88228,-85.3742 24.08231,-25.6123 56.54107,-44.8216 51.30581,-30.5924 97.37632,-30.5924 11.51762,0 21.98818,2.1344 31.41173,7.1144 31.41173,27.0352 0,16.3634 -12.56469,16.3634 -5.23529,-1.4229 -5.23529,-10.6718 0,-12.8062 -20.94113,-12.8062 -36.647,0 -94.23514,45.533 -57.58814,45.5329 -69.10577,91.7772 -2.09411,7.826 -2.09411,17.7864 0,9.2488 9.42351,22.055 9.42351,12.0947 34.55289,12.0947 26.17642,0 56.54107,-15.652 30.36466,-15.6519 54.44697,-39.8413 l -3.14116,-4.2687 q -4.18824,-11.3833 4.18822,-18.4977 8.37646,-7.1145 21.9882,-4.2688 z" />
    <path
       style="font-style:normal;font-variant:normal;font-weight:normal;font-stretch:normal;font-size:medium;line-height:125%;font-family:Allura;-inkscape-font-specification:'Allura, Normal';text-align:start;letter-spacing:0px;word-spacing:0px;writing-mode:lr-tb;text-anchor:start;fill:#a0892c;fill-opacity:1;stroke:none;stroke-width:1px;stroke-linecap:butt;stroke-linejoin:miter;stroke-opacity:1"
       inkscape:connector-curvature="0"
       id="path4213"
       d="m -500.90503,2255.5886 q -8.37646,0 -20.94114,-2.1344 -53.39991,-9.2488 -53.39991,-38.4183 0,-28.4582 55.49402,-71.8567 54.44697,-43.3986 231.3996,-123.0812 75.38812,-104.5835 104.70572,-165.7684 -58.63519,48.3788 -83.76457,66.8765 -94.23514,71.1453 -151.82327,71.1453 -16.75292,0 -36.647,-7.1146 -18.84703,-6.4031 -32.45877,-18.4978 -13.61174,-12.8061 -13.61174,-27.0351 0,-37.707 77.48223,-84.6628 46.07051,-28.4581 96.32924,-48.3787 50.25874,-19.9208 79.57633,-24.9009 29.3176,-4.9801 56.54109,-4.9801 27.22348,0 48.16462,9.9602 20.94115,9.9604 20.94115,19.9208 0,5.6916 -8.37646,3.5572 -11.51763,-13.5176 -51.30579,-13.5176 -38.74112,0 -88.99986,17.7864 -49.21168,17.0748 -88.99985,41.2641 -39.78817,23.4779 -68.05871,54.0704 -27.22348,29.881 -27.22348,44.11 0,24.9008 20.94114,24.9008 29.3176,0 90.04691,-32.7267 90.0469,-47.6674 172.76441,-115.9667 13.61174,-13.5176 56.54109,0.7114 16.752903,5.6916 13.61174,9.9603 -13.61174,20.6322 -50.25875,71.8567 -35.59994,50.5131 -53.3999,76.1254 24.08232,-8.5374 81.67045,-42.6871 58.635189,-34.8612 102.611588,-69.7223 23.0352559,-18.4978 23.0352559,-5.6917 0,17.7863 -125.6468439,93.9117 -72.24693,44.11 -102.6116,55.4933 -88.99985,124.5041 -119.3645,156.5195 -78.52927,78.9711 -154.96444,78.9711 z m 192.65849,-208.4555 q -125.64684,64.0308 -180.09381,101.0262 -54.44697,37.707 -54.44697,70.4338 0,9.9603 9.42352,14.229 9.42351,4.2687 19.89409,4.2687 10.47056,0 30.36464,-10.6718 19.89409,-10.6717 33.50583,-21.3435 14.6588,-9.9604 25.12938,-19.2092 10.47056,-8.5374 23.03525,-22.7665 13.61174,-13.5175 20.94114,-21.3435 7.3294,-7.8261 19.89408,-24.9009 13.61174,-16.3633 17.79997,-22.7664 5.23529,-5.6916 17.79998,-24.1894 13.61174,-18.4978 16.7529,-22.7665 z" />
    <path
       style="font-style:normal;font-variant:normal;font-weight:normal;font-stretch:normal;font-size:medium;line-height:125%;font-family:Allura;-inkscape-font-specification:'Allura, Normal';text-align:start;letter-spacing:0px;word-spacing:0px;writing-mode:lr-tb;text-anchor:start;fill:#a0892c;fill-opacity:1;stroke:none;stroke-width:1px;stroke-linecap:butt;stroke-linejoin:miter;stroke-opacity:1"
       inkscape:connector-curvature="0"
       id="path4215"
       d="m 62.428031,1787.4532 q 26.176426,0 31.411711,11.3832 2.094114,6.403 -3.141171,12.8061 -4.188228,5.6916 -6.282343,9.2489 -2.094114,3.5572 -3.141171,5.6916 -5.235285,7.1146 -10.47057,13.5176 -59.682252,81.1055 -62.8234243,103.1605 -1.0470564,6.4031 -1.0470564,16.3634 0,9.9604 8.3764567,16.3635 14.658799,11.3831 41.882281,1.4229 27.223484,-9.9604 75.388106,-39.8413 49.21168,-29.881 79.57634,-58.3392 4.18823,-3.5572 9.42351,-1.4229 5.23529,1.4229 5.23529,3.5573 0,1.4229 -2.09412,3.5573 -15.70585,19.2092 -56.54108,49.0902 -67.01165,49.0901 -112.035102,60.4734 -26.176426,6.4031 -43.976397,6.4031 -41.882282,0 -55.494023,-27.0352 -2.094114,-4.9802 -2.094114,-12.0947 0,-24.9009 33.505825,-75.414 -5.235285,7.826 -40.835224,35.5727 -9.42351,7.1145 -14.658806,0 -1.047045,-1.4229 -1.047045,-3.5572 0,-2.8459 4.188223,-6.4031 51.305796,-43.3986 80.623393,-73.2796 -2.094115,-3.5573 2.094114,-9.2488 20.941141,-39.8414 36.646998,-41.9757 3.14117,0 7.329399,0 z m 82.717509,-94.6232 -8.37646,22.7665 q 0,6.4031 -13.61174,20.6321 -13.61174,14.229 -20.94114,14.229 -45.023456,0 -45.023456,-14.9405 0,-2.8458 45.023456,-26.3237 l 17.79997,-9.2489 q 16.75291,-9.9603 20.94114,-9.9603 4.18823,0 4.18823,2.8458 z" />
    <path
       style="font-style:normal;font-variant:normal;font-weight:normal;font-stretch:normal;font-size:medium;line-height:125%;font-family:Allura;-inkscape-font-specification:'Allura, Normal';text-align:start;letter-spacing:0px;word-spacing:0px;writing-mode:lr-tb;text-anchor:start;fill:#a0892c;fill-opacity:1;stroke:none;stroke-width:1px;stroke-linecap:butt;stroke-linejoin:miter;stroke-opacity:1"
       inkscape:connector-curvature="0"
       id="path4217"
       d="m 238.9225,1855.0411 q 43.97641,-28.4581 92.14104,-48.3787 48.16461,-20.6322 71.19987,-24.9009 24.08231,-4.9801 64.91753,-4.9801 41.88229,0 65.96461,12.8061 l 27.22348,-41.9757 q 13.61174,-10.6717 41.88227,-10.6717 34.55289,0 34.55289,10.6717 0,9.9604 -35.59995,32.0154 -45.02345,24.1893 -124.59978,191.3805 10.47056,12.8063 25.12937,12.8063 15.70586,0 37.69406,-7.826 23.03525,-8.5375 71.19987,-38.4184 49.21169,-29.881 79.57634,-58.3392 4.18823,-3.5572 9.42352,-1.4229 5.23528,1.4229 5.23528,3.5573 0,1.4229 -2.09412,3.5573 -15.70585,19.2092 -56.54107,49.0902 -40.83523,29.8809 -79.57634,48.3787 -31.41172,17.7863 -73.294,17.7863 -3.14117,0 -6.28235,0 12.5647,37.707 18.84704,85.3743 6.28234,47.6672 6.28234,63.3192 0,16.3634 0,22.055 -7.3294,47.6673 -36.647,68.2994 -28.27054,21.3435 -58.63519,21.3435 -41.88228,0 -71.19989,-29.1694 -16.7529,-16.3634 -16.7529,-49.0903 0,-35.5725 42.92934,-115.2552 12.56468,-22.7665 20.94113,-39.8413 9.42352,-17.0749 52.35286,-90.3545 42.92933,-73.991 43.97639,-76.8368 -167.52912,132.3302 -237.68195,132.3302 -16.75291,0 -36.64699,-7.1146 -18.84703,-6.4031 -32.45877,-19.2092 -13.61174,-12.8061 -13.61174,-27.0352 0,-39.1298 70.15281,-83.9513 z m 285.84659,-54.0704 q -12.56469,-4.2687 -43.97641,-4.2687 -31.4117,0 -81.67045,17.7864 -49.21167,17.0748 -93.18807,43.3985 -36.64699,23.4779 -64.91754,53.3589 -27.22348,29.1695 -27.22348,42.6871 0,26.3238 21.9882,26.3238 21.98819,0 67.01165,-24.1895 116.22334,-64.742 207.3173,-130.9071 l 14.6588,-24.1894 z m -57.58815,205.6096 q 0,-5.6915 -3.14116,-5.6915 -3.14118,0 -6.28234,6.4031 -3.14118,6.403 -20.94115,34.8611 -16.75292,29.1695 -25.12936,44.8214 -28.27054,50.5131 -32.45878,73.2796 -3.14117,22.7665 -3.14117,32.0154 0,9.9603 1.04706,18.4977 3.14117,30.5924 33.50583,30.5924 76.43515,0 76.43515,-102.449 0,-52.6475 -19.89408,-132.3302 z" />
    <path
       style="font-style:normal;font-variant:normal;font-weight:normal;font-stretch:normal;font-size:medium;line-height:125%;font-family:Allura;-inkscape-font-specification:'Allura, Normal';text-align:start;letter-spacing:0px;word-spacing:0px;writing-mode:lr-tb;text-anchor:start;fill:#a0892c;fill-opacity:1;stroke:none;stroke-width:1px;stroke-linecap:butt;stroke-linejoin:miter;stroke-opacity:1"
       inkscape:connector-curvature="0"
       id="path4219"
       d="m 1171.8339,1884.9221 q -15.7058,19.2092 -56.5411,49.0902 -40.8352,29.8809 -73.294,46.2444 -41.8822,20.6321 -91.09391,20.6321 -9.42352,0 -25.12937,-6.4031 -14.6588,-5.6916 -19.89408,-17.0748 -5.2353,-11.3833 -5.2353,-22.0551 0,-36.9954 20.94114,-73.2796 -3.14116,1.423 -29.31758,30.5925 -25.12938,28.458 -62.82343,54.0703 -36.64701,25.6124 -74.34105,25.6124 -17.79997,0 -40.83523,-6.4031 -41.88229,-12.8062 -41.88229,-46.9559 0,-41.9756 41.88229,-86.0856 42.92934,-44.8216 54.44697,-47.6674 15.70586,-2.8457 29.3176,-2.8457 14.65879,0 29.31759,4.2687 14.6588,3.5572 -4.18822,12.8061 -72.24694,44.8215 -102.6116,99.6033 -11.51762,21.3435 -11.51762,36.284 0,14.2291 10.47056,18.4978 11.51763,4.2687 21.9882,4.2687 25.12937,0 68.05871,-23.4779 43.97639,-24.1894 120.41156,-99.6033 10.47057,-10.6718 36.64699,-41.2643 26.17644,-31.3039 31.41172,-36.9954 16.75295,0 38.74115,5.6915 23.0352,4.9803 15.7058,13.5177 -50.2587,56.9162 -71.19987,83.9513 -19.89408,27.0352 -27.22348,63.3192 -1.04704,6.4031 -1.04704,16.3634 0,9.9604 8.37644,16.3635 15.70586,11.3831 42.92935,1.4229 28.2705,-10.6719 76.4352,-39.8413 48.1646,-29.881 77.4822,-58.3392 4.1882,-3.5572 9.4235,-1.4229 6.2823,1.4229 6.2823,3.5573 0,1.4229 -2.0941,3.5573 z" />
    <path
       style="font-style:normal;font-variant:normal;font-weight:normal;font-stretch:normal;font-size:medium;line-height:125%;font-family:Allura;-inkscape-font-specification:'Allura, Normal';text-align:start;letter-spacing:0px;word-spacing:0px;writing-mode:lr-tb;text-anchor:start;fill:#a0892c;fill-opacity:1;stroke:none;stroke-width:1px;stroke-linecap:butt;stroke-linejoin:miter;stroke-opacity:1"
       inkscape:connector-curvature="0"
       id="path4221"
       d="m 1387.8551,1777.4928 q 56.5411,0 56.5411,36.9956 0,19.2092 -15.7059,31.3038 -26.1764,26.3238 -84.8116,46.2444 -58.6352,19.2092 -99.4704,21.3435 -14.6588,0.7115 -15.7059,-5.6915 -1.0471,-2.8459 2.0941,-3.5573 4.1882,-0.7114 6.2824,-0.7114 24.0823,-1.423 61.7763,-15.652 70.1528,-25.6123 102.6116,-52.6475 13.6118,-12.8061 13.6118,-24.1893 0,-12.0947 -16.753,-12.0947 -13.6117,0 -36.6469,7.826 -49.2117,15.6519 -103.6587,54.7818 -54.447,38.4184 -71.1999,75.4138 -5.2353,11.3833 -5.2353,22.7665 0,10.6718 13.6118,20.6322 13.6117,9.9603 41.8823,9.9603 31.4117,0 72.2469,-11.3833 118.3174,-32.7267 182.1879,-98.8918 6.2824,-5.6916 11.5177,-2.1344 4.1882,1.4229 4.1882,3.5573 0,2.1344 -3.1412,4.9801 -31.4117,35.5727 -79.5763,63.3193 -93.1881,54.0704 -181.1409,54.0704 -75.3881,0 -105.7528,-30.5925 -11.5176,-12.0946 -11.5176,-29.1695 0,-17.0748 13.6117,-40.5527 26.1765,-40.5529 112.0352,-83.24 85.8586,-42.6871 136.1174,-42.6871 z" />
    <path
       style="font-style:normal;font-variant:normal;font-weight:normal;font-stretch:normal;font-size:medium;line-height:125%;font-family:Allura;-inkscape-font-specification:'Allura, Normal';text-align:start;letter-spacing:0px;word-spacing:0px;writing-mode:lr-tb;text-anchor:start;fill:#a0892c;fill-opacity:1;stroke:none;stroke-width:1px;stroke-linecap:butt;stroke-linejoin:miter;stroke-opacity:1"
       inkscape:connector-curvature="0"
       id="path4223"
       d="m 1599.7368,1953.2215 0,12.0947 q 0,4.9801 -11.5177,16.3634 -11.5176,11.3832 -17.7999,11.3832 -34.5529,0 -34.5529,-11.3832 0,-5.6916 20.9412,-17.0749 29.3176,-15.6519 35.5999,-15.6519 7.3294,0 7.3294,4.2687 z" />
    <text
       xml:space="preserve"
       style="font-style:normal;font-weight:normal;font-size:40px;line-height:125%;font-family:sans-serif;letter-spacing:0px;word-spacing:0px;fill:#d4aa00;fill-opacity:1;stroke:none;stroke-width:1px;stroke-linecap:butt;stroke-linejoin:miter;stroke-opacity:1;"
       x="1778.3574"
       y="1454.4257"
       id="text4204"
       sodipodi:linespacing="125%"><tspan
         sodipodi:role="line"
         id="tspan4206"
         x="1778.3574"
         y="1454.4257" /></text>
    <path
       style="color:#000000;font-style:normal;font-variant:normal;font-weight:normal;font-stretch:normal;font-size:medium;line-height:normal;font-family:sans-serif;text-indent:0;text-align:start;text-decoration:none;text-decoration-line:none;text-decoration-style:solid;text-decoration-color:#000000;letter-spacing:normal;word-spacing:normal;text-transform:none;direction:ltr;block-progression:tb;writing-mode:lr-tb;baseline-shift:baseline;text-anchor:start;white-space:normal;clip-rule:nonzero;display:inline;overflow:visible;visibility:visible;opacity:1;isolation:auto;mix-blend-mode:normal;color-interpolation:sRGB;color-interpolation-filters:linearRGB;solid-color:#000000;solid-opacity:1;fill:#a0892c;fill-opacity:1;fill-rule:nonzero;stroke:none;stroke-width:50.40599823;stroke-linecap:butt;stroke-linejoin:miter;stroke-miterlimit:4;stroke-dasharray:none;stroke-dashoffset:0;stroke-opacity:1;color-rendering:auto;image-rendering:auto;shape-rendering:auto;text-rendering:auto;enable-background:accumulate"
       d="m -762.35938,743.73633 c -52.43379,0.18685 -104.17512,24.35697 -139.32799,63.54834 -61.53755,66.0943 -92.26018,157.21854 -90.97669,246.68413 1.06855,88.3643 33.75248,177.9176 95.81975,241.7995 33.51379,33.8359 79.26867,55.4316 127.02009,57.5598 53.91641,3.0124 106.49008,-13.7128 157.08643,-31.0606 40.90836,-14.5323 81.87382,-28.9169 123.05892,-42.627 98.87338,-36.534 195.37398,-79.2131 292.40549,-120.3477 213.882551,-92.0906 425.64656,-189.28655 641.69902,-276.28866 38.78562,-15.9066 78.10248,-30.55566 118.06802,-43.17569 57.7624,-18.64563 114.04766,-43.99865 174.62298,-52.34614 28.67102,-4.04841 58.85783,-3.49671 85.80983,8.17618 31.48939,12.91563 55.58323,38.66472 75.46415,65.50948 58.98315,83.07209 72.56148,194.37053 41.98698,290.80813 -15.70904,48.5707 -42.54876,94.6451 -81.64908,128.0317 -22.60767,19.3659 -51.53007,31.0884 -81.33226,32.2033 -49.35637,2.3176 -97.07547,-13.8671 -143.25076,-29.2787 -39.12893,-13.6513 -78.14825,-27.6663 -117.56542,-40.4558 -89.73777,-33.1269 -177.44456,-71.4331 -265.54592,-108.6124 -47.90927,-20.493 -95.72282,-41.1998 -143.48924,-62.0244 -17.256509,7.6758 -34.513019,15.3516 -51.769529,23.0274 138.571679,60.2068 276.888719,121.0762 417.496109,176.3642 43.26484,16.4366 87.71977,29.5229 131.03449,45.8779 50.69113,17.9315 102.92807,35.6029 157.14323,36.6993 47.8826,0.4919 96.42144,-16.3034 131.92383,-49.0274 38.89699,-34.997 66.43636,-81.541 84.28515,-130.4453 40.2817,-112.8937 23.482,-246.16215 -48.89751,-342.43669 -29.98937,-41.64834 -74.24454,-74.61361 -125.24116,-84.02421 -56.25143,-11.18199 -113.58877,3.96465 -166.96289,21.6582 -45.6116,15.43285 -90.72675,32.34963 -136.57289,47.14652 -96.45733,35.31134 -190.45627,76.88172 -285.00315,116.90238 -219.9553497,94.3954 -437.47016,194.642 -659.65996,283.8 -38.4418,15.9047 -77.66111,29.7823 -117.27376,42.4675 -57.03832,18.7355 -112.92225,43.5841 -173.01368,50.9316 -27.76364,3.597 -56.85027,2.2994 -82.75257,-9.1953 -31.36703,-13.1875 -55.21205,-39.1285 -75.01305,-66.0156 -53.86376,-76.2785 -69.18946,-176.405 -47.75957,-266.59075 13.3731,-55.2986 40.88601,-108.3265 83.20879,-146.95611 21.96259,-20.06053 50.24065,-33.15149 79.98855,-35.57693 48.25832,-4.56002 95.42414,10.8275 140.65793,25.65701 42.49233,14.47204 84.81935,29.56701 127.44922,43.52929 91.53157,33.9075 181.03049,72.99437 270.91389,110.98686 45.72782,19.57321 91.36612,39.34673 136.96306,59.22413 17.292972,-7.6596 34.585941,-15.3191 51.878909,-22.9786 C -187.86453,942.71983 -326.05712,881.91723 -466.51126,826.66184 c -42.72468,-16.2402 -86.68193,-29.19902 -129.44239,-45.50858 -53.60372,-19.22492 -108.94322,-37.93286 -166.40573,-37.41693 z"
       id="path4233"
       inkscape:connector-curvature="0" />
  </g>
</svg>
